SplineFontDB: 3.2
FontName: ZameroSans-Light
FullName: Zamero Sans Light
FamilyName: Zamero Sans
Weight: Light
Copyright: Copyright (c) 2024-2025, Zamero Type Foundry
UComments: "2024-1-17: Created with FontForge (http://fontforge.org)+AAoACgAK-Instead of Charlie and the Alphabet and Charlie and the Numbers, how about Charlie and the Fonts? :)"
Version: 001.100
ItalicAngle: 0
UnderlinePosition: -100
UnderlineWidth: 50
Ascent: 800
Descent: 200
InvalidEm: 0
LayerCount: 2
Layer: 0 0 "Back" 1
Layer: 1 0 "Fore" 0
XUID: [1021 474 1118879153 20760]
StyleMap: 0x0040
FSType: 0
OS2Version: 0
OS2_WeightWidthSlopeOnly: 0
OS2_UseTypoMetrics: 1
CreationTime: 1705525712
ModificationTime: 1743186844
PfmFamily: 33
TTFWeight: 300
TTFWidth: 5
LineGap: 90
VLineGap: 90
OS2TypoAscent: 0
OS2TypoAOffset: 1
OS2TypoDescent: 0
OS2TypoDOffset: 1
OS2TypoLinegap: 90
OS2WinAscent: 0
OS2WinAOffset: 1
OS2WinDescent: 0
OS2WinDOffset: 1
HheadAscent: 0
HheadAOffset: 1
HheadDescent: 0
HheadDOffset: 1
OS2Vendor: 'ZAM '
Lookup: 1 0 0 "Single Substitution lookup 5" { "Single Substitution lookup 5 subtable"  } []
Lookup: 1 0 0 "Single Substitution lookup 6" { "Single Substitution lookup 6 subtable"  } []
Lookup: 1 0 0 "'ss15' Style Set 15 lookup 20" { "'ss15' Style Set 15 lookup 20-1" ("ss15") } ['ss15' ('DFLT' <'dflt' > 'grek' <'dflt' > 'latn' <'dflt' > ) ]
Lookup: 1 0 0 "'ss14' Style Set 14 lookup 19" { "'ss14' Style Set 14 lookup 19-1" ("ss14") } ['ss14' ('DFLT' <'dflt' > 'grek' <'dflt' > 'latn' <'dflt' > ) ]
Lookup: 1 0 0 "'onum' Oldstyle Figures lookup 18" { "'onum' Oldstyle Figures lookup 18-1" ("osf") } ['onum' ('DFLT' <'dflt' > 'grek' <'dflt' > 'latn' <'dflt' > ) ]
Lookup: 1 0 0 "'tnum' Tabular Numbers lookup 17" { "'tnum' Tabular Numbers lookup 17-1" ("tf") } ['tnum' ('DFLT' <'dflt' > 'grek' <'dflt' > 'latn' <'dflt' > ) ]
Lookup: 1 0 0 "'dnom' Denominators lookup 0" { "'dnom' Denominators lookup 0 subtable" ("dnom") } ['dnom' ('DFLT' <'dflt' > 'latn' <'dflt' > ) ]

StartChar: I
Encoding: 73 73 0
Width: 434
Flags: W
HStem: 0 86.25<42.5 167 267 391.5> 30 56.25<167 267> 643.75 87.25<42.5 167 267 391.5> 643.75 57.25<167 267>
VStem: 167 100<30 701>
LayerCount: 2
Fore
SplineSet
391.5 0 m 1x88
 42.5 0 l 1
 42.5 86.25 l 1
 391.5 86.25 l 1
 391.5 0 l 1x88
391.5 643.75 m 1x28
 42.5 643.75 l 1
 42.5 731 l 1
 391.5 731 l 1
 391.5 643.75 l 1x28
167 30 m 1x58
 167 701 l 1
 267 701 l 1
 267 30 l 1
 167 30 l 1x58
EndSplineSet
EndChar

StartChar: O
Encoding: 79 79 1
Width: 797
Flags: W
HStem: -9.99805 93.2257<287.01 510.768> 645.895 93.2257<287.01 510.768>
VStem: 48.5125 101.749<233.695 495.428> 647.516 101.749<233.695 495.428>
LayerCount: 2
Back
SplineSet
104.848632812 364.561523438 m 0
 104.848632812 169.015917071 203.263968617 38.4638671875 398.888671875 38.4638671875 c 4
 594.513375133 38.4638671875 692.928710938 169.015917071 692.928710938 364.561523438 c 0
 692.928710938 560.107129798 594.513375133 690.659179688 398.888671875 690.659179688 c 0
 203.263968617 690.659179688 104.848632812 560.107129798 104.848632812 364.561523438 c 0
55 364.561523438 m 0
 55 591.206054688 185.120861123 739.12109375 398.888671875 739.12109375 c 0
 612.656482627 739.12109375 742.77734375 591.206054688 742.77734375 364.561523438 c 0
 742.77734375 137.916992188 612.656482627 -9.998046875 398.888671875 -9.998046875 c 0
 185.120861123 -9.998046875 55 137.916992188 55 364.561523438 c 0
EndSplineSet
Fore
SplineSet
150.261132812 364.561523438 m 0
 150.261132812 195.858657181 228.938627304 83.2276171878 398.888671875 83.2276171878 c 0
 568.838716447 83.2276171878 647.516210938 195.858657181 647.516210938 364.561523438 c 0
 647.516210938 533.26438969 568.838716447 645.895429688 398.888671875 645.895429688 c 0
 228.938627304 645.895429688 150.261132812 533.26438969 150.261132812 364.561523438 c 0
48.5125 364.561523438 m 0
 48.5125 591.206054688 181.088106381 739.12109375 398.888671875 739.12109375 c 0
 616.689237369 739.12109375 749.26484375 591.206054688 749.26484375 364.561523438 c 0
 749.26484375 137.916992188 616.689237369 -9.998046875 398.888671875 -9.998046875 c 0
 181.088106381 -9.998046875 48.5125 137.916992188 48.5125 364.561523438 c 0
EndSplineSet
EndChar

StartChar: H
Encoding: 72 72 2
Width: 719
Flags: W
HStem: 0 21G<68.5125 169.413 549.588 650.487> 315.538 84.925<115.95 588.05> 711.008 20G<68.5125 169.413 549.588 650.487>
VStem: 68.5125 100.9<0 315.538 400.462 731.008> 115.95 53.4625<315.538 400.462> 549.588 100.9<0 315.538 400.462 731.008> 549.588 38.4625<315.538 400.462>
LayerCount: 2
Fore
SplineSet
588.05 315.5375 m 1xea
 115.95 315.5375 l 1
 115.95 400.4625 l 1
 588.05 400.4625 l 1
 588.05 315.5375 l 1xea
549.5875 0 m 1xe4
 549.5875 731.0078125 l 1
 650.4875 731.0078125 l 1
 650.4875 0 l 1
 549.5875 0 l 1xe4
68.5125 0 m 1xf0
 68.5125 731.0078125 l 1
 169.4125 731.0078125 l 1
 169.4125 0 l 1
 68.5125 0 l 1xf0
EndSplineSet
EndChar

StartChar: V
Encoding: 86 86 4
Width: 699
Flags: W
HStem: 0 21G<285.748 422.978> 711.008 20G<18.5125 131.014 568.246 680.487>
LayerCount: 2
Fore
SplineSet
293.265 0 m 1
 18.5125 731.0078125 l 1
 123.71 731.0078125 l 1
 353.606445312 101.540585938 l 1
 575.29 731.0078125 l 1
 680.4875 731.0078125 l 1
 415.735 0 l 1
 293.265 0 l 1
EndSplineSet
EndChar

StartChar: D
Encoding: 68 68 5
Width: 727
Flags: W
HStem: 0 90.4128<169.413 426.479> 640.588 90.4196<169.413 423.933>
VStem: 68.5125 100.9<90.4128 640.588> 577.516 101.749<234.32 494.934>
LayerCount: 2
Fore
SplineSet
68.5125 0 m 1
 68.5125 731.0078125 l 1
 308.888671875 731.0078125 l 2
 503.761528466 731.0078125 679.26484375 631.206054688 679.26484375 364.561523438 c 0
 679.26484375 97.9169921873 502.620956035 -2.37268419038e-14 308.888671875 0 c 2
 68.5125 0 l 1
169.4125 640.588164062 m 1
 169.4125 90.4128125 l 1
 283.888671875 90.5231640621 l 2
 451.99027607 90.691723884 577.516210938 146.824020453 577.516210938 364.561523438 c 0
 577.516210938 581.870028486 451.990283284 640.326670119 283.888671875 640.484648438 c 2
 169.4125 640.588164062 l 1
EndSplineSet
EndChar

StartChar: U
Encoding: 85 85 6
Width: 719
Flags: W
HStem: -9.99805 93.5769<251.594 464.184> 711.008 20G<68.5125 169.413 546.365 647.265>
VStem: 68.5125 100.9<168.323 731.008> 546.365 100.9<168.323 731.008>
LayerCount: 2
Fore
SplineSet
357.888671875 -9.998046875 m 0
 141.779742506 -9.998046875 68.5125 105.149840206 68.5125 281.586523438 c 2
 68.5125 731.0078125 l 1
 169.4125 731.0078125 l 1
 169.4125 304.561523438 l 2
 169.4125 172.048496483 198.911237086 83.5788671878 357.888671875 83.5788671878 c 0
 516.866106663 83.5788671878 546.36484375 172.048496483 546.36484375 304.561523438 c 2
 546.36484375 731.0078125 l 1
 647.26484375 731.0078125 l 1
 647.26484375 281.586523438 l 2
 647.26484375 105.149840206 573.997601244 -9.998046875 357.888671875 -9.998046875 c 0
EndSplineSet
EndChar

StartChar: L
Encoding: 76 76 7
Width: 568
Flags: W
HStem: 0 88.1687<169.413 544> 711.008 20G<68.5125 169.413>
VStem: 68.5125 100.9<88.1687 731.008>
LayerCount: 2
Fore
SplineSet
169.4125 88.16875 m 1
 544 88.16875 l 1
 544 0 l 1
 68.5125 0 l 1
 68.5125 731.0078125 l 1
 169.4125 731.0078125 l 1
 169.4125 88.16875 l 1
EndSplineSet
EndChar

StartChar: F
Encoding: 70 70 8
Width: 574
Flags: W
HStem: 0 21G<68.5125 169.413> 298.562 90.4125<115.95 466.975> 642.839 88.1688<169.413 526.975>
VStem: 68.5125 100.9<0 298.562 388.975 642.839> 115.95 53.4625<298.562 388.975>
LayerCount: 2
Fore
SplineSet
466.975 298.5625 m 1xe8
 115.95 298.5625 l 1
 115.95 388.975 l 1
 466.975 388.975 l 1
 466.975 298.5625 l 1xe8
169.4125 642.8390625 m 1xf0
 169.4125 0 l 1
 68.5125 0 l 1
 68.5125 731.0078125 l 1
 526.975 731.0078125 l 1
 526.975 642.8390625 l 1
 169.4125 642.8390625 l 1xf0
EndSplineSet
EndChar

StartChar: C
Encoding: 67 67 9
Width: 667
Flags: W
HStem: -9.99805 91.8207<297.648 552.259> 647.3 91.8207<297.941 534.532>
VStem: 48.5125 102.986<234.051 493.397>
LayerCount: 2
Fore
SplineSet
48.5125 360.561523438 m 0
 48.5125 589.626439045 177.955368378 739.12109375 405.888671875 739.12109375 c 0
 565.569301426 739.12109375 636.169140625 672.891601562 636.169140625 672.891601562 c 1
 598.27296875 588.726171875 l 1
 598.27296875 588.726171875 535.840551702 647.300429688 419.888671875 647.300429688 c 0
 231.879983136 647.300429688 151.498779297 532.505516948 151.498779297 360.561523438 c 0
 151.498779297 193.414758057 234.000305099 81.8226171878 416.376171875 81.8226171878 c 0
 542.191603692 81.8226171878 608.828554688 129.359453125 608.828554688 129.359453125 c 1
 639.314648438 44.595703125 l 1
 639.314648438 44.595703125 568.01288034 -9.998046875 405.888671875 -9.998046875 c 0
 177.955368378 -9.998046875 48.5125 136.337376545 48.5125 360.561523438 c 0
EndSplineSet
Substitution2: "'ss12' Style Set 12 lookup 13-1" C.ss12
EndChar

StartChar: E
Encoding: 69 69 10
Width: 579
Flags: W
HStem: 0 88.1687<169.413 535.487> 321.05 91.4125<119.463 475.487> 642.839 88.1688<169.413 535.487>
VStem: 119.463 49.95<321.05 412.462>
LayerCount: 2
Fore
SplineSet
475.4875 321.05 m 1
 119.4625 321.05 l 1
 119.4625 412.4625 l 1
 475.4875 412.4625 l 1
 475.4875 321.05 l 1
169.4125 642.8390625 m 1
 169.4125 88.16875 l 1
 535.4875 88.16875 l 1
 535.4875 0 l 1
 68.5125 0 l 1
 68.5125 731.0078125 l 1
 535.4875 731.0078125 l 1
 535.4875 642.8390625 l 1
 169.4125 642.8390625 l 1
EndSplineSet
EndChar

StartChar: N
Encoding: 78 78 11
Width: 719
Flags: W
HStem: 0 21G<68.5125 168.115 531.529 650.487> 711.008 20G<68.5125 187.69 550.885 650.487>
VStem: 68.5125 99.6025<0 564.18> 550.885 99.6025<175.912 731.008>
LayerCount: 2
Fore
SplineSet
68.5125 0 m 1
 68.5125 731.0078125 l 1
 174.115 731.0078125 l 1
 550.885 175.912109375 l 1
 550.885 731.0078125 l 1
 650.4875 731.0078125 l 1
 650.4875 0 l 1
 544.885 0 l 1
 168.115 564.179882812 l 1
 168.115 0 l 1
 68.5125 0 l 1
EndSplineSet
EndChar

StartChar: M
Encoding: 77 77 12
Width: 830
Flags: W
HStem: 0 21G<68.5125 169.413 660.588 761.487> 711.008 20G<68.5125 199.914 630.086 761.487>
VStem: 68.5125 100.9<0 571.205> 660.588 100.9<0 571.205>
LayerCount: 2
Fore
SplineSet
68.5125 0 m 1
 68.5125 731.0078125 l 1
 189.4125 731.0078125 l 1
 415 301.367109375 l 1
 640.5875 731.0078125 l 1
 761.4875 731.0078125 l 1
 761.4875 0 l 1
 660.5875 0 l 1
 660.5875 571.204882812 l 1
 454.4625 180 l 1
 375.5375 180 l 1
 169.4125 571.204882812 l 1
 169.4125 0 l 1
 68.5125 0 l 1
EndSplineSet
EndChar

StartChar: G
Encoding: 71 71 13
Width: 789
Flags: W
HStem: -9.99805 91.8207<292.391 513.465> 311.538 85.1687<409.513 573.581 668.695 750.487> 311.538 23.5957<573.581 668.695> 647.3 91.8207<299.819 537.143>
VStem: 48.5125 102.635<228.9 492.663> 591.205 95.2522<152.039 311.301>
LayerCount: 2
Fore
SplineSet
750.4875 311.5375 m 1xdc
 409.5125 311.5375 l 1
 409.5125 396.70625 l 1
 750.4875 396.70625 l 1
 750.4875 311.5375 l 1xdc
48.5125 364.561523438 m 0
 48.5125 591.206054688 184.871914101 739.12109375 408.888671875 739.12109375 c 0
 580.585855484 739.12109375 651.169140625 663.891601562 651.169140625 663.891601562 c 1
 610.38046875 583.267421875 l 1
 610.38046875 583.267421875 546.140282033 647.300429688 415.888671875 647.300429688 c 0
 235.0752895 647.300429688 151.147705078 534.106902881 151.147705078 364.561523438 c 0
 151.147705078 195.01614399 228.34482799 81.8226171878 406.888671875 81.8226171878 c 0
 534.793978405 81.8226171878 591.205195312 142.466036689 591.205195312 233.4875 c 0
 591.205195312 301.066309736 573.581054688 335.133203125 573.581054688 335.133203125 c 1
 668.694648438 335.133203125 l 1xbc
 668.694648438 335.133203125 686.457421875 305.122076116 686.457421875 222 c 0
 686.457421875 92.3834042083 594.229518779 -9.998046875 399.888671875 -9.998046875 c 0
 176.079449646 -9.998046875 48.5125 137.916992188 48.5125 364.561523438 c 0
EndSplineSet
Substitution2: "'ss12' Style Set 12 lookup 13-1" G.ss12
Substitution2: "'ss08' Style Set 8 lookup 9-1" G.ss08
EndChar

StartChar: A
Encoding: 65 65 14
Width: 719
Flags: W
HStem: 0 21G<18.5125 131.585 587.147 700.487> 165.538 88.8712<151.462 566.537> 711.008 20G<294.791 414.483>
LayerCount: 2
Fore
SplineSet
566.5375 165.5375 m 1
 151.4625 165.5375 l 1
 151.4625 254.40875 l 1
 566.5375 254.40875 l 1
 566.5375 165.5375 l 1
406.4375 731.0078125 m 1
 700.4875 0 l 1
 594.93875 0 l 1
 355.393554688 614.900976562 l 1
 124.06125 0 l 1
 18.5125 0 l 1
 302.5625 731.0078125 l 1
 406.4375 731.0078125 l 1
EndSplineSet
EndChar

StartChar: P
Encoding: 80 80 15
Width: 655
Flags: W
HStem: 0 21G<68.5125 169.413> 254.538 84.5203<132.925 435.837> 642.481 88.5271<169.413 436.184>
VStem: 68.5125 100.9<0 254.538 339.058 642.481> 132.925 36.4875<254.538 339.058> 510.516 101.749<404.035 575.681>
LayerCount: 2
Fore
SplineSet
132.925 254.5375 m 1xec
 132.925 339.0578125 l 1xec
 316.888671875 339.168164062 l 2
 427.740237664 339.333022707 510.516210937 369.432910536 510.516210937 488.776523438 c 0
 510.516210937 610.182764182 427.740249935 642.220359289 316.888671875 642.377148438 c 2
 169.4125 642.480664062 l 1
 169.4125 0 l 1
 68.5125 0 l 1
 68.5125 731.0078125 l 1xf4
 338.888671875 731.0078125 l 2
 482.725126762 731.0078125 612.26484375 665.036047558 612.26484375 488.776523438 c 0
 612.26484375 317.451381892 481.883265572 254.5375 338.888671875 254.5375 c 2
 132.925 254.5375 l 1xec
EndSplineSet
EndChar

StartChar: R
Encoding: 82 82 16
Width: 660
Flags: W
HStem: 0 21G<68.5125 169.413 533.103 646.487> 282.538 89.9253<132.925 405.606> 641.832 89.1759<169.413 439.292>
VStem: 68.5125 100.9<0 282.538 372.463 641.832> 132.925 36.4875<282.538 372.463> 504.219 103.046<430.352 584.704>
LayerCount: 2
Back
SplineSet
124 383.3515625 m 1xec
 300.888671875 383.461914062 l 2
 383.403259307 383.509014034 462.928710938 404.697396723 462.928710938 501.561523438 c 0
 462.928710938 596.672668425 383.403268044 618.487535435 300.888671875 618.545898438 c 2
 184 618.649414062 l 1
 184 0 l 1
 55 0 l 1
 55 731.0078125 l 1xf4
 308.888671875 731.0078125 l 2
 457.204101562 731.0078125 590.77734375 670.696715458 590.77734375 509.561523438 c 4
 590.77734375 364.195131811 466.688476562 330.276367188 466.688476562 330.276367188 c 1
 466.688476562 330.276367188 540.174524344 311.767586577 573.702148438 195.399414062 c 2
 630 0 l 1
 492 0 l 1
 447 165 l 2
 420.732434887 256.417062766 391.813913829 266 270 266 c 2
 124 266 l 1
 124 383.3515625 l 1xec
EndSplineSet
Fore
SplineSet
132.925 372.4628125 m 1xec
 312.508671875 372.573164062 l 2
 422.262378487 372.640796357 504.218710938 399.164305828 504.218710938 504.830273438 c 0
 504.218710938 614.024281997 426.145174643 641.657389224 321.591171875 641.728398438 c 2
 169.4125 641.831914062 l 1
 169.4125 0 l 1
 68.5125 0 l 1
 68.5125 731.0078125 l 1xf4
 338.888671875 731.0078125 l 2
 480.094513829 731.0078125 607.26484375 670.917319691 607.26484375 510.371523438 c 0
 607.26484375 341.08272755 458.07414917 325.369293213 458.07414917 325.369293213 c 1
 458.07414917 325.369293213 524.869596802 312.978204336 576.863272705 183.023243408 c 2
 646.4875 0 l 1
 540.885 0 l 1
 482.300737304 150.558959961 l 2
 438.94012779 257.489395977 409.085649521 282.5375 293.43 282.5375 c 2
 132.925 282.5375 l 1
 132.925 372.4628125 l 1xec
EndSplineSet
Substitution2: "'ss01' Style Set 1 lookup 2-1" R.ss01
EndChar

StartChar: T
Encoding: 84 84 17
Width: 614
Flags: W
HStem: 0 21G<256.55 357.45> 642.831 88.1688<40 256.55 357.45 574> 642.831 58.1688<256.55 357.45>
VStem: 256.55 100.9<0 701>
LayerCount: 2
Fore
SplineSet
574 642.83125 m 1xd0
 40 642.83125 l 1
 40 731 l 1
 574 731 l 1
 574 642.83125 l 1xd0
256.55 0 m 1
 256.55 701 l 1
 357.45 701 l 1xb0
 357.45 0 l 1
 256.55 0 l 1
EndSplineSet
EndChar

StartChar: Q
Encoding: 81 81 18
Width: 856
Flags: W
HStem: -9.99805 96.7382<293.565 513.755> 645.895 93.2257<290.232 509.721>
VStem: 48.5125 101.749<234.532 495.428> 647.516 103.749<240.052 498.323>
LayerCount: 2
Fore
SplineSet
48.5125 364.561523438 m 0
 48.5125 591.206054687 182.980010241 739.12109375 403.888671875 739.12109375 c 0
 619.8245618 739.12109375 751.265136719 586.88281634 751.265136719 379.311523438 c 0
 751.265136719 160.919688413 624.053710938 88.416015625 624.053710938 88.416015625 c 1
 706.085944491 89.9359230689 808.132568359 106.927246094 808.132568359 106.927246094 c 1
 818.376464844 19.001953125 l 1
 818.376464844 19.001953125 713.780464863 -9.998046875 444 -9.998046875 c 0
 170.202086443 -9.998046875 48.5125 137.916992188 48.5125 364.561523438 c 0
150.261132812 364.561523438 m 0
 150.261132812 197.964940158 231.1932112 86.7401171878 403.888671875 86.7401171878 c 0
 569.775213787 86.7401171878 647.516357422 197.964940158 647.516357422 364.561523438 c 0
 647.516357422 533.26438969 569.775213787 645.895429688 403.888671875 645.895429688 c 0
 231.1932112 645.895429688 150.261132812 533.26438969 150.261132812 364.561523438 c 0
EndSplineSet
Substitution2: "'ss10' Style Set 10 lookup 11-1" Q.ss10
Substitution2: "'ss09' Style Set 9 lookup 10-1" Q.ss09
EndChar

StartChar: B
Encoding: 66 66 19
Width: 640
Flags: W
HStem: 0 87.9262<164.413 443.979> 325.194 80.6203<132.925 417.374> 643.183 87.8246<164.413 416.211>
VStem: 132.925 31.4875<325.194 405.814> 476.516 96.7486<455.552 590.982> 499.516 96.7486<134.159 274.879>
LayerCount: 2
Fore
SplineSet
469.450859375 373.6275 m 1xf8
 469.450859375 373.6275 596.26484375 343.376743928 596.26484375 202.933789062 c 0xf4
 596.26484375 55.2690789144 471.685209119 -1.60128585842e-14 332.376171875 0 c 2
 68.5125 0 l 1
 68.5125 731.0078125 l 1
 311.376171875 731.0078125 l 2
 449.1684962 731.0078125 573.26484375 675.643070542 573.26484375 527.722773438 c 0
 573.26484375 403.468756063 469.450859375 373.6275 469.450859375 373.6275 c 1xf8
164.4125 87.9262109379 m 1
 329.376171875 87.9281640621 l 2
 426.676168636 87.929293607 499.516210938 109.991792642 499.516210938 205.933789062 c 0xf4
 499.516210938 303.658664126 418.231014097 324.971593414 309.376171875 325.083398438 c 2
 132.925 325.19375 l 1
 132.925 405.8140625 l 1
 287.376171875 405.924414062 l 2
 395.658262459 406.074185934 476.516210938 427.0185159 476.516210938 523.235273438 c 0xf8
 476.516210938 620.672226948 395.658710709 643.004817419 287.376171875 643.079648438 c 2
 164.4125 643.183164062 l 1
 164.4125 87.9262109379 l 1
EndSplineSet
EndChar

StartChar: J
Encoding: 74 74 20
Width: 432
Flags: W
HStem: -10 86.52<24.3091 210.255> 642.839 88.1688<53.5125 252.587>
VStem: 252.587 100.9<119.509 642.839>
LayerCount: 2
Fore
SplineSet
131.5125 76.52 m 0
 216.755684815 76.52 252.5875 117.019580668 252.5875 212 c 2
 252.5875 642.8390625 l 1
 53.5125 642.8390625 l 1
 53.5125 731.0078125 l 1
 353.4875 731.0078125 l 1
 353.4875 201 l 2
 353.4875 74.4647758463 295.017025862 -10 154 -10 c 0
 70.952793996 -10 13.5125 12.1075 13.5125 12.1075 c 1
 27.16125 94.33 l 1
 27.16125 94.33 70.6464900443 76.52 131.5125 76.52 c 0
EndSplineSet
EndChar

StartChar: K
Encoding: 75 75 21
Width: 668
Flags: W
HStem: 0 21G<68.5125 169.413 469.867 622.244> 318.025 75.9497<103.5 196.468 196.468 263.661> 711.008 20G<68.5125 169.413 467.301 612.244>
VStem: 68.5125 100.9<0 318.025 393.975 731.008> 103.5 65.9125<318.025 393.975>
LayerCount: 2
Fore
SplineSet
103.5 393.974853516 m 1xe8
 263.661132812 393.974853516 l 1
 263.661132812 318.025146484 l 1
 103.5 318.025146484 l 1
 103.5 393.974853516 l 1xe8
487.773925781 0 m 1
 196.467529297 325.353515625 l 1
 196.467529297 325.353515625 196.467529297 388.00375 196.4675 388.00375 c 1
 484.071044922 731.0078125 l 1
 612.243896484 731.0078125 l 1
 286.094970703 366.683837891 l 1
 622.243896484 0 l 1
 487.773925781 0 l 1
68.5125 0 m 1xf0
 68.5125 731.0078125 l 1
 169.4125 731.0078125 l 1
 169.4125 0 l 1
 68.5125 0 l 1xf0
EndSplineSet
EndChar

StartChar: S
Encoding: 83 83 22
Width: 591
Flags: W
HStem: -10 89.6307<142.095 384.812> 648.49 90.6307<218.459 446.383>
VStem: 63.1395 101.212<475.032 601.264> 444.764 98.2429<128.529 259.576>
LayerCount: 2
Fore
SplineSet
283.3828125 321.839375 m 0
 114.687128505 365.884539956 63.139453125 427.732034387 63.139453125 528.97125 c 0
 63.139453125 656.804428348 160.04047784 739.12109375 319.233398438 739.12109375 c 0
 455.466606725 739.12109375 521.720117188 688.891601562 521.720117188 688.891601562 c 1
 487.77609375 605.969921875 l 1
 487.77609375 605.969921875 427.324109928 648.490429688 332.49953125 648.490429688 c 0
 216.510432419 648.490429688 164.350976562 609.471966447 164.350976562 535.81 c 0
 164.350976562 475.42503825 197.385572909 442.509409135 321.997070312 410.382304688 c 0
 483.769840539 368.315128128 543.00703125 305.515715698 543.00703125 200.4875 c 0
 543.00703125 70.7670596561 452.76422142 -10 283.8046875 -10 c 0
 140.608548678 -10 49.84140625 42.2294921875 49.84140625 42.2294921875 c 1
 79.97265625 128.151171875 l 1
 79.97265625 128.151171875 163.762458327 79.6306640622 271.262539062 79.6306640622 c 0
 385.949805691 79.6306640622 444.764140625 118.582315737 444.764140625 194.13625 c 0
 444.764140625 258.902301244 418.263385326 286.749191449 283.3828125 321.839375 c 0
EndSplineSet
EndChar

StartChar: W
Encoding: 87 87 23
Width: 949
Flags: W
HStem: 0 21G<202.864 328.572 613.076 742.35> 711.008 20G<18.5125 122.458 819.484 930.487>
LayerCount: 2
Fore
SplineSet
208.05 0 m 1
 18.5125 731.0078125 l 1
 117.46625 731.0078125 l 1
 269.445195312 122.056835938 l 1
 415.3475 671.0078125 l 1
 527.6525 671.0078125 l 1
 676.362695312 122.056835938 l 1
 824.34375 731.0078125 l 1
 930.4875 731.0078125 l 1
 737.0575 0 l 1
 618.645 0 l 1
 471.5 528.421484375 l 1
 322.95 0 l 1
 208.05 0 l 1
EndSplineSet
EndChar

StartChar: X
Encoding: 88 88 24
Width: 689
Flags: W
HStem: 0 21G<24.5662 161.149 527.851 664.434> 711.008 20G<34.5662 166.784 522.216 654.434>
VStem: 329.62 29.76<318.025 401>
LayerCount: 2
Fore
SplineSet
147.84625 0 m 1
 24.56625 0 l 1
 276.02125 370.595 l 1
 34.56625 731.0078125 l 1
 154.35875 731.0078125 l 1
 359.38 401 l 1
 359.38 318.025 l 1
 147.84625 0 l 1
541.15375 0 m 1
 329.62 318.025 l 1
 329.62 401 l 1
 534.64125 731.0078125 l 1
 654.43375 731.0078125 l 1
 412.97875 370.595 l 1
 664.43375 0 l 1
 541.15375 0 l 1
EndSplineSet
EndChar

StartChar: Y
Encoding: 89 89 25
Width: 689
Flags: W
HStem: 0 21G<294.05 394.95> 282 51.975<300.05 388.95> 711.008 20G<33.5125 155.219 533.781 655.487>
VStem: 294.05 100.9<0 333.975>
LayerCount: 2
Fore
SplineSet
300.05 282 m 1
 33.5125 731.0078125 l 1
 143.71 731.0078125 l 1
 344.5 382.084765625 l 1
 545.29 731.0078125 l 1
 655.4875 731.0078125 l 1
 388.95 282 l 1
 300.05 282 l 1
294.05 0 m 1
 294.05 333.975 l 1
 394.95 333.975 l 1
 394.95 0 l 1
 294.05 0 l 1
EndSplineSet
EndChar

StartChar: Z
Encoding: 90 90 26
Width: 594
Flags: W
HStem: 0 88.1687<168.387 554> 642.831 88.1688<50 425.612>
LayerCount: 2
Fore
SplineSet
554 0 m 1
 40 0 l 1
 40 73.16875 l 1
 425.6125 642.83125 l 1
 50 642.83125 l 1
 50 731 l 1
 544 731 l 1
 544 647.83125 l 1
 168.3875 88.16875 l 1
 554 88.16875 l 1
 554 0 l 1
EndSplineSet
EndChar

StartChar: ampersand
Encoding: 38 38 27
Width: 754
Flags: W
HStem: -10 84.8565<194.836 367.182 550.497 731.087> 658.539 80.453<317.043 491.387>
VStem: 48.5125 93.7907<124.263 261.709> 175.063 95.276<419.845 610.749>
LayerCount: 2
Fore
SplineSet
270.730078125 421.258789062 m 1
 295.136796875 357.951367188 l 0
 295.136796875 357.951367188 142.303164062 304.053085104 142.303164062 192.00375 c 0
 142.303164062 117.850011089 196.860260957 74.8565234375 281.666628418 74.8565234375 c 0
 385.361570083 74.8565234375 514.542043091 160.04090973 585.22375 444.281328125 c 1
 673.775585938 419.8046875 l 1
 581.484761814 106.417159114 435.90152507 -10 265.928710938 -10 c 0
 128.294581338 -10 48.5125 68.0826715673 48.5125 181.160546875 c 0
 48.5125 356.939553726 270.730078125 421.258789062 270.730078125 421.258789062 c 1
738.938671875 4.5546875 m 1
 738.938671875 4.5546875 712.065188541 -10 638.5 -10 c 0
 503.545838744 -10 413.289957128 68.5715459007 340.5375 159.5125 c 0
 238.951301778 286.680903277 175.06328125 422.123364096 175.06328125 527.80375 c 0
 175.06328125 667.270607463 257.23600714 738.9921875 393.509960938 738.9921875 c 0
 476.743223949 738.9921875 527.590390625 704.351914062 527.590390625 704.351914062 c 1
 505.0290625 629.626132812 l 1
 505.0290625 629.626132812 457.453501207 658.53921875 400.4875 658.53921875 c 0
 314.80288397 658.53921875 270.339257812 614.253200067 270.339257812 526.80375 c 0
 270.339257812 444.093893633 322.459927333 334.280994933 401.4 232.7 c 0
 460.984654166 156.322683136 532.583530828 75.4734375 644.01171875 75.4734375 c 0
 698.042353934 75.4734375 729.31890625 85.0746875 729.31890625 85.0746875 c 1
 738.938671875 4.5546875 l 1
EndSplineSet
EndChar

StartChar: i
Encoding: 105 105 28
Width: 269
Flags: W
HStem: 0 21G<87.9963 181.004> 481.011 20G<87.9963 181.004> 594.088 125.374<85.5256 183.474>
VStem: 72.4242 124.152<607.319 706.232> 87.9963 93.0075<0 501.011>
LayerCount: 2
Fore
SplineSet
87.99625 0 m 1xe8
 87.99625 501.010742188 l 1
 181.00375 501.010742188 l 1
 181.00375 0 l 1
 87.99625 0 l 1xe8
72.42421875 656.775390625 m 0xf0
 72.42421875 694.752255005 96.8925238806 719.4625 134.499023438 719.4625 c 0
 172.106561455 719.4625 196.57578125 694.752255005 196.57578125 656.775390625 c 0
 196.57578125 618.797840134 172.106561455 594.08828125 134.499023438 594.08828125 c 0
 96.8925238806 594.08828125 72.42421875 618.797840134 72.42421875 656.775390625 c 0xf0
EndSplineSet
EndChar

StartChar: o
Encoding: 111 111 29
Width: 589
Flags: W
HStem: -9.99805 81.0357<213.074 378.593> 429.71 81.2232<208.455 380.283>
VStem: 48.5125 90.6124<149.448 354.625> 450.652 90.6124<149.448 354.625>
LayerCount: 2
Fore
SplineSet
139.124882812 253.561523438 m 0
 139.124882812 144.11042117 189.062555779 71.0376171875 293.888671875 71.0376171875 c 0
 400.11657775 71.0376171875 450.652460938 144.11042117 450.652460938 253.561523438 c 0
 450.652460938 359.189834535 400.14987699 429.710429688 294 429.710429688 c 0
 189.095854158 429.710429688 139.124882812 359.189834535 139.124882812 253.561523438 c 0
48.5125 253.561523438 m 0
 48.5125 409.296356709 141.358125328 510.93359375 293.888671875 510.93359375 c 0
 447.662456878 510.93359375 541.26484375 409.296356709 541.26484375 253.561523438 c 0
 541.26484375 94.0826581124 447.662456878 -9.998046875 293.888671875 -9.998046875 c 0
 141.358125328 -9.998046875 48.5125 94.0826581124 48.5125 253.561523438 c 0
EndSplineSet
EndChar

StartChar: n
Encoding: 110 110 30
Width: 595
Flags: W
HStem: 0 21G<71.715 164.722 434.567 527.575> 432.847 78.0869<231.006 386.952> 481.011 20G<71.715 164.722>
VStem: 71.715 93.0075<0 501.011> 434.567 93.0075<0 381.491>
LayerCount: 2
Fore
SplineSet
164.7225 284 m 1xd8
 116.7475 293.561523438 l 1
 140.640833334 444 204.408320669 510.93359375 338.4875 510.93359375 c 0
 463.358355526 510.93359375 527.57484375 441.809114388 527.57484375 297.536523438 c 2
 527.57484375 0 l 1
 434.56734375 0 l 1
 434.56734375 280.536523438 l 2
 434.56734375 384.044943325 396.244904606 432.846679688 306.025 432.846679688 c 0
 214.175061475 432.846679688 164.7225 373.256434926 164.7225 284 c 1xd8
71.715 0 m 1
 71.715 501.010742188 l 1
 164.7225 501.010742188 l 1xb8
 164.7225 0 l 1
 71.715 0 l 1
EndSplineSet
EndChar

StartChar: m
Encoding: 109 109 31
Width: 882
Flags: W
HStem: 0 21G<71.715 164.722 394.774 487.781 721.345 814.352> 432.847 78.0869<214.793 354.24 539.294 681.792> 481.011 20G<71.715 164.722>
VStem: 71.715 93.0075<0 501.011> 394.774 93.0075<0 386.773> 721.345 93.0075<0 391.818>
LayerCount: 2
Fore
SplineSet
487.78109375 284 m 1xdc
 425.77734375 300.586523438 l 1
 448.99829321 446.16315047 507.458062269 510.93359375 641.27734375 510.93359375 c 0
 752.061249742 510.93359375 814.3521875 447.323924219 814.3521875 314.561523438 c 2
 814.3521875 0 l 1
 721.3446875 0 l 1
 721.3446875 297.561523438 l 2
 721.3446875 386.772671882 689.286722995 432.846679688 613.81484375 432.846679688 c 0
 525.52746509 432.846679688 487.78109375 373.256434924 487.78109375 284 c 1xdc
164.7225 284 m 1
 103.7725 293.561523438 l 1
 126.312175897 444 183.146175288 510.93359375 312.95 510.93359375 c 0
 424.933005645 510.93359375 487.78109375 447.323924219 487.78109375 314.561523438 c 2
 487.78109375 0 l 1
 394.77359375 0 l 1
 394.77359375 297.561523438 l 2
 394.77359375 386.772671882 362.192036927 432.846679688 285.4875 432.846679688 c 0
 204.244175847 432.846679688 164.7225 373.256434926 164.7225 284 c 1
71.715 0 m 1
 71.715 501.010742188 l 1
 164.7225 501.010742188 l 1xbc
 164.7225 0 l 1
 71.715 0 l 1
EndSplineSet
EndChar

StartChar: p
Encoding: 112 112 32
Width: 602
Flags: W
HStem: -9.99805 80.3869<233.114 396.315> 431.359 79.5744<233.72 399.098> 481.011 20G<71.715 164.722>
VStem: 71.715 93.0075<-180 501.011> 114.436 50.2861<66.4394 183.562> 125.386 39.3361<283.562 425.747> 462.655 90.2611<144.425 359.814>
LayerCount: 2
Fore
SplineSet
71.715 -180 m 1xb2
 71.715 501.010742188 l 1xb2
 164.7225 501.010742188 l 1xa6
 164.7225 -180 l 1
 71.715 -180 l 1xb2
164.7225 213.561523438 m 1
 164.7225 143.808649678 210.640206667 70.3888671875 318.040039062 70.3888671875 c 0
 419.343719334 70.3888671875 462.655078125 143.721395949 462.655078125 253.561523438 c 0
 462.655078125 360.17851327 419.377061457 431.359179688 318.151367188 431.359179688 c 0
 217.443643607 431.359179688 164.7225 372.188907768 164.7225 283.561523438 c 1xd2
 125.386367188 283.561523438 l 1xc6
 125.386367188 425.746590474 206.524225501 510.93359375 331.4875 510.93359375 c 0
 472.140076659 510.93359375 552.916210938 409.296356709 552.916210938 253.561523438 c 0
 552.916210938 94.0826581123 468.390232831 -9.998046875 329.527539062 -9.998046875 c 0
 195.822730838 -9.998046875 114.436367188 66.4393843715 114.436367188 183.561523438 c 1xca
 164.7225 213.561523438 l 1
EndSplineSet
EndChar

StartChar: j
Encoding: 106 106 33
Width: 269
Flags: W
HStem: -190 79.2763<-71.1297 64.41> 481.011 20G<87.9963 181.004> 594.088 125.374<85.5256 183.474>
VStem: 72.4242 124.152<607.319 706.232> 87.9963 93.0075<-85.3134 501.011>
LayerCount: 2
Fore
SplineSet
87.99625 -10.9175 m 2xe8
 87.99625 501.010742188 l 1
 181.00375 501.010742188 l 1
 181.00375 -12.5125 l 2
 181.00375 -119.341469194 135.555862069 -190 25.94625 -190 c 0
 -37.4176080769 -190 -81.24375 -171.64875 -81.24375 -171.64875 c 1
 -67.94625 -96.265 l 1
 -67.94625 -96.265 -39.204559197 -110.72375 1.025 -110.72375 c 0
 62.2573463744 -110.72375 87.99625 -80.661626506 87.99625 -10.9175 c 2xe8
72.42421875 656.775390625 m 0xf0
 72.42421875 694.752255005 96.8925238806 719.4625 134.499023438 719.4625 c 0
 172.106561455 719.4625 196.57578125 694.752255005 196.57578125 656.775390625 c 0
 196.57578125 618.797840134 172.106561455 594.08828125 134.499023438 594.08828125 c 0
 96.8925238806 594.08828125 72.42421875 618.797840134 72.42421875 656.775390625 c 0xf0
EndSplineSet
EndChar

StartChar: k
Encoding: 107 107 34
Width: 555
Flags: W
HStem: 0 21G<69.215 162.222 374.268 510> 217.715 76.5698<83.2151 224.148> 481.011 20G<370.146 500> 731.002 20G<69.215 162.222>
VStem: 69.215 93.0075<0 217.715 294.285 751.002> 83.2151 79.0074<217.715 294.285> 194.898 29.25<240.215 271.785>
LayerCount: 2
Fore
SplineSet
224.147705078 294.284912109 m 1xf6
 224.147705078 217.715087891 l 1
 83.2150878906 217.715087891 l 1
 83.2150878906 294.284912109 l 1
 224.147705078 294.284912109 l 1xf6
390.558837891 0 m 1
 194.897705078 240.215087891 l 1
 194.897705078 271.784912109 l 1
 386.897705078 501.010742188 l 1
 500 501.010742188 l 1
 286 260.737792969 l 1
 510 0 l 1
 390.558837891 0 l 1
69.215 0 m 1xfa
 69.215 751.001953125 l 1
 162.2225 751.001953125 l 1
 162.2225 0 l 1
 69.215 0 l 1xfa
EndSplineSet
EndChar

StartChar: l
Encoding: 108 108 35
Width: 371
Flags: W
HStem: -10.0088 82.925<195.303 315.743> 731.002 20G<78.2025 171.21>
VStem: 78.2025 93.0075<97.8988 751.002>
LayerCount: 2
Fore
SplineSet
171.21 184.966210938 m 2
 171.21 106.666210937 196.172411987 72.9162109375 255.5575 72.9162109375 c 0
 289.40232915 72.9162109375 313.5825 85.3212109378 313.5825 85.3212109378 c 1
 325.475 5.9912109375 l 1
 325.475 5.9912109375 287.947409401 -10.0087890625 233.69 -10.0087890625 c 0
 123.776422414 -10.0087890625 78.2025 54.9057903211 78.2025 160.991210938 c 2
 78.2025 751.001953125 l 1
 171.21 751.001953125 l 1
 171.21 184.966210938 l 2
EndSplineSet
EndChar

StartChar: h
Encoding: 104 104 36
Width: 595
Flags: W
HStem: 0 21G<71.715 164.722 434.567 527.575> 432.847 78.0869<230.861 386.952> 731.002 20G<71.715 164.722>
VStem: 71.715 93.0075<0 751.002> 434.567 93.0075<0 381.491>
LayerCount: 2
Fore
SplineSet
71.715 0 m 1
 71.715 751.001953125 l 1
 164.7225 751.001953125 l 1
 164.7225 0 l 1
 71.715 0 l 1
164.7225 284 m 9
 116.7475 293.561523438 l 17
 140.640833334 444 204.118068823 510.93359375 338.4875 510.93359375 c 0
 463.358355526 510.93359375 527.57484375 441.809114388 527.57484375 297.536523438 c 2
 527.57484375 0 l 1
 434.56734375 0 l 1
 434.56734375 280.536523438 l 2
 434.56734375 384.044943325 396.244904606 432.846679688 306.025 432.846679688 c 0
 213.812965599 432.846679688 164.7225 373.256434926 164.7225 284 c 9
EndSplineSet
EndChar

StartChar: q
Encoding: 113 113 37
Width: 602
Flags: W
HStem: -9.99805 80.3869<214.206 381.804> 430.657 80.2769<214.176 382.804> 481.011 20G<442.278 535.285>
VStem: 54.0838 90.2611<146.218 357.87> 442.278 93.0075<-180 501.011> 442.278 54.1499<66.4394 183.562 283.562 425.747>
LayerCount: 2
Fore
SplineSet
535.285 -180 m 1xb8
 442.2775 -180 l 1xb8
 442.2775 501.010742188 l 1xb4
 535.285 501.010742188 l 1
 535.285 -180 l 1xb8
442.2775 205.561523438 m 1
 496.427382812 183.561523438 l 1xd4
 496.427382812 66.4393843713 414.908112916 -9.998046875 280.984960938 -9.998046875 c 0
 139.938829628 -9.998046875 54.0837890625 94.0826581121 54.0837890625 253.561523438 c 0
 54.0837890625 409.296356709 136.141266535 510.93359375 279.025 510.93359375 c 0
 412.060029627 510.93359375 492.832382812 425.746590474 492.832382812 283.561523438 c 1
 442.2775 275.561523438 l 1
 442.2775 368.564879307 399.321392752 430.656679688 298.848632812 430.656679688 c 0xd8
 190.617880084 430.656679688 144.344921875 359.757256674 144.344921875 253.561523438 c 0
 144.344921875 143.721395949 190.651222206 70.3888671875 298.959960938 70.3888671875 c 0
 399.354734873 70.3888671875 442.2775 139.7062025 442.2775 205.561523438 c 1
EndSplineSet
EndChar

StartChar: g
Encoding: 103 103 38
Width: 602
Flags: W
HStem: -190 81.9314<157.003 382.189> 20.002 76.7919<210.702 380.014> 433.9 77.0332<211.549 381.532> 481.011 20G<442.278 535.285>
VStem: 54.0838 90.2611<167.499 365.132> 442.278 93.0075<-53.7544 36.19 223.562 501.011> 442.278 55.5549<100.388 223.562 293.562 429.493>
LayerCount: 2
Fore
SplineSet
442.2775 36.19 m 2xdc
 442.2775 501.010742188 l 1
 535.285 501.010742188 l 1
 535.285 31 l 2
 535.285 -102.018957346 464.856637932 -190 295 -190 c 0
 170.277712417 -190 84.0125 -146 84.0125 -146 c 1
 104.851074219 -63.7175292969 l 1
 104.851074219 -63.7175292969 177.21912009 -108.068603516 278.512207031 -108.068603516 c 0
 393.811609341 -108.068603516 442.2775 -64.6172169147 442.2775 36.19 c 2xdc
442.2775 235.561523438 m 1
 497.832382812 223.561523438 l 1xea
 497.832382812 100.388423477 424.166574264 20.001953125 280.984960938 20.001953125 c 0
 129.428728756 20.001953125 54.0837890625 115.39477208 54.0837890625 261.561523438 c 0
 54.0837890625 412.455587994 125.626492246 510.93359375 279.025 510.93359375 c 0
 417.051558542 510.93359375 492.832382812 429.493180948 492.832382812 293.561523438 c 1
 442.2775 285.561523438 l 1
 442.2775 374.513470235 395.119303786 433.900429688 294.848632812 433.900429688 c 0xec
 189.419903467 433.900429688 144.344921875 366.106194085 144.344921875 264.561523438 c 0
 144.344921875 163.959058374 190.651222206 96.7938671879 298.959960938 96.7938671879 c 0
 399.354734874 96.7938671879 442.2775 167.9547397 442.2775 235.561523438 c 1
EndSplineSet
Substitution2: "'ss14' Style Set 14 lookup 19-1" g.ss14
EndChar

StartChar: f
Encoding: 102 102 39
Width: 398
Flags: W
HStem: 0 21G<127.996 221.004> 425.914 75.097<27.5125 368.487> 685.681 75.33<252.7 389.212>
VStem: 127.996 93.0075<0 653.847>
LayerCount: 2
Fore
SplineSet
27.5125 501.010742188 m 1
 368.4875 501.010742188 l 1
 368.4875 425.91375 l 1
 27.5125 425.91375 l 1
 27.5125 501.010742188 l 1
221.00375 567.548242188 m 2
 221.00375 0 l 1
 127.99625 0 l 1
 127.99625 580.548242188 l 2
 127.99625 689.167689394 177.095697344 761.010742188 295.5125 761.010742188 c 0
 356.384710787 761.010742188 398.4875 745.010742188 398.4875 745.010742188 c 1
 386.595 673.275742188 l 1
 386.595 673.275742188 359.249595215 685.680742188 320.975 685.680742188 c 0
 250.590363868 685.680742188 221.00375 650.098130752 221.00375 567.548242188 c 2
EndSplineSet
EndChar

StartChar: c
Encoding: 99 99 40
Width: 492
Flags: W
HStem: -9.99805 77.7919<221.124 420.465> 431.657 79.2769<212.889 409.188>
VStem: 48.5125 89.9035<150.363 353.411>
LayerCount: 2
Fore
SplineSet
48.5125 253.561523438 m 0
 48.5125 409.296356709 136.331764418 510.93359375 294.537421875 510.93359375 c 0
 410.574665078 510.93359375 458.276611328 467.739013672 458.276611328 467.739013672 c 1
 435.760498047 394.263671875 l 1
 435.760498047 394.263671875 392.580106693 431.656679688 305.02875 431.656679688 c 0
 191.847810588 431.656679688 138.416015625 360.35691019 138.416015625 253.561523438 c 0
 138.416015625 142.165295073 194.144793781 67.7938671875 312.702421875 67.7938671875 c 0
 392.047919158 67.7938671875 434.072509766 97.1281738278 434.072509766 97.1281738278 c 1
 459.855898438 26.839453125 l 1
 459.855898438 26.839453125 401.11432544 -9.998046875 299.078671875 -9.998046875 c 0
 138.126543692 -9.998046875 48.5125 94.0826581128 48.5125 253.561523438 c 0
EndSplineSet
Substitution2: "'ss12' Style Set 12 lookup 13-1" c.ss12
EndChar

StartChar: t
Encoding: 116 116 41
Width: 412
Flags: W
HStem: -10 78.6813<244.617 364.661> 426.562 74.4482<27.5125 368.487>
VStem: 127.996 93.0075<92.4892 654.416>
LayerCount: 2
Fore
SplineSet
27.5125 501.010742188 m 1
 368.4875 501.010742188 l 1
 368.4875 426.5625 l 1
 27.5125 426.5625 l 1
 27.5125 501.010742188 l 1
221.00375 175.4625 m 2
 221.00375 100.844759002 245.999420496 68.68125 305.4625 68.68125 c 0
 338.755185943 68.68125 362.54125 79.68125 362.54125 79.68125 c 1
 373.4875 4 l 1
 373.4875 4 336.081538086 -10 282 -10 c 0
 156.664159243 -10 127.99625 61.3745011735 127.99625 160.4625 c 2
 127.99625 654.415742188 l 1
 221.00375 666.254492188 l 1
 221.00375 175.4625 l 2
EndSplineSet
Substitution2: "'ss11' Style Set 11 lookup 12-1" t.ss11
EndChar

StartChar: r
Encoding: 114 114 42
Width: 420
Flags: W
HStem: 0 21G<69.215 162.222> 432.359 78.5744<217.069 382.501> 481.011 20G<69.215 162.222>
VStem: 69.215 93.0075<0 501.011>
LayerCount: 2
Fore
SplineSet
69.215 0 m 1xb0
 69.215 501.010742188 l 1
 162.2225 501.010742188 l 1
 162.2225 0 l 1
 69.215 0 l 1xb0
302.51625 510.93359375 m 0xd0
 373.847028775 510.93359375 397.975 484.93359375 397.975 484.93359375 c 1
 376.54125 411.00859375 l 1
 376.54125 411.00859375 344.484150509 432.359179688 292.73125 432.359179688 c 0
 211.786719868 432.359179688 162.2225 382.137323284 162.2225 284 c 1
 114.95 293.561523438 l 1
 135.061907593 444 184.342928986 510.93359375 302.51625 510.93359375 c 0xd0
EndSplineSet
EndChar

StartChar: e
Encoding: 101 101 43
Width: 551
Flags: W
HStem: -9.99805 76.8457<221.458 453.113> 214.484 70.545<111.169 422.778> 432.954 77.9794<205.437 366.116>
VStem: 111.169 29.5511<214.484 285.029>
LayerCount: 2
Fore
SplineSet
48.5125 253.561523438 m 0
 48.5125 409.296356709 139.087840698 510.93359375 287.888671875 510.93359375 c 0
 459.243745375 510.93359375 512.953320312 378.434945038 512.953320312 279.2771875 c 0
 512.953320312 239.276390369 508.4875 214.48375 508.4875 214.48375 c 1
 111.16875 214.48375 l 1
 111.16875 285.02875 l 1
 422.7775 285.02875 l 1
 422.7775 285.02875 422.892745586 290.865780327 421.83125 301.975 c 0
 416.872421833 370.090756756 380.677630438 432.954179688 283.75625 432.954179688 c 0
 183.558438607 432.954179688 140.719882812 360.334267662 140.719882812 251.561523438 c 0
 140.719882812 130.858512497 196.171992665 66.8476171875 327.83875 66.8476171875 c 0
 416.685804846 66.8476171875 467.316054688 94.979453125 467.316054688 94.979453125 c 1
 483.314648438 18.595703125 l 1
 483.314648438 18.595703125 425.066768185 -9.998046875 323.888671875 -9.998046875 c 0
 133.645029959 -9.998046875 48.5125 94.0826581128 48.5125 253.561523438 c 0
EndSplineSet
Substitution2: "'ss03' Style Set 3 lookup 4-1" e.ss03
EndChar

StartChar: d
Encoding: 100 100 44
Width: 602
Flags: W
HStem: -9.99805 79.9257<211.493 371.901> 0 21G<442.278 535.285> 430.195 80.7382<214.315 377.301> 731.002 20G<442.278 535.285>
VStem: 54.0838 90.2611<145.934 354.616> 442.278 93.0075<217.374 751.002> 442.278 39.3361<75.1885 217.374 317.374 434.496>
LayerCount: 2
Fore
SplineSet
535.285 0 m 1x7c
 442.2775 0 l 1x7a
 442.2775 751.001953125 l 1
 535.285 751.001953125 l 1
 535.285 0 l 1x7c
442.2775 295.374023438 m 1xbc
 442.2775 361.058594428 397.85786256 430.195429688 293.959960938 430.195429688 c 0
 192.535977549 430.195429688 144.344921875 357.003935763 144.344921875 247.374023438 c 0
 144.344921875 140.967965043 192.501377195 69.9276171875 293.848632812 69.9276171875 c 0
 397.823199764 69.9276171875 442.2775 132.160371899 442.2775 225.374023438 c 1xbc
 481.613632812 217.374023438 l 1xba
 481.613632812 75.1884765622 399.304407798 -9.998046875 272.5375 -9.998046875 c 0
 133.775003161 -9.998046875 54.0837890625 91.639648437 54.0837890625 247.374023438 c 0
 54.0837890625 406.852539062 137.483840092 510.93359375 274.497460938 510.93359375 c 0
 400.136620285 510.93359375 476.613632812 434.49609375 476.613632812 317.374023438 c 1
 442.2775 295.374023438 l 1xbc
EndSplineSet
Substitution2: "'ss05' Style Set 5 lookup 6-1" d.ss05
EndChar

StartChar: b
Encoding: 98 98 45
Width: 602
Flags: W
HStem: -9.99805 79.9257<229.19 397.527> 0 21G<71.715 164.722> 430.195 80.7382<232.787 394.711> 731.002 20G<71.715 164.722>
VStem: 71.715 93.0075<197.374 751.002> 128.899 35.8236<55.1885 197.374 297.374 424.496> 462.655 90.2611<141.227 356.405>
LayerCount: 2
Fore
SplineSet
71.715 0 m 1x7a
 71.715 751.001953125 l 1
 164.7225 751.001953125 l 1x7a
 164.7225 0 l 1x76
 71.715 0 l 1x7a
164.7225 295.374023438 m 1
 123.898867188 297.374023438 l 1
 123.898867188 424.49609375 204.159694331 510.93359375 336.015039062 510.93359375 c 0
 470.845218476 510.93359375 552.916210938 406.852539062 552.916210938 247.374023438 c 0
 552.916210938 91.639648437 474.50634559 -9.998046875 337.975 -9.998046875 c 0
 211.208092202 -9.998046875 128.898867188 55.1884765622 128.898867188 197.374023438 c 1xb6
 164.7225 225.374023438 l 1
 164.7225 132.160371899 209.176800236 69.9276171875 313.151367188 69.9276171875 c 0xba
 417.880183881 69.9276171875 462.655078125 140.967965043 462.655078125 247.374023438 c 0
 462.655078125 357.003935763 417.845659831 430.195429688 313.040039062 430.195429688 c 0
 209.14213744 430.195429688 164.7225 361.058594428 164.7225 295.374023438 c 1
EndSplineSet
EndChar

StartChar: a
Encoding: 97 97 46
Width: 566
Flags: W
HStem: -9.99805 77.1969<160.106 318.251 460.845 532.617> 239.714 65.8492<193.182 383.584> 431.079 79.9314<147.312 330.784>
VStem: 41.0125 95.8561<89.8926 196.081> 367.735 90.4125<67.08 114.988 160.562 239.714 298.536 392.176> 367.735 37.8236<57.3566 160.562> 367.735 15.8488<239.714 305.564>
LayerCount: 2
Back
SplineSet
357.928710938 177.561523438 m 5x7c
 407.77734375 180.561523438 l 5x7a
 407.77734375 65.2546726394 343.443566636 -9.998046875 207.888671875 -9.998046875 c 4
 103.525845263 -9.998046875 40 50 40 141 c 4
 40 286.71747631 179.159368499 309.798279039 373.928710938 309.93359375 c 5
 373.77734375 224.284179688 l 5x79
 214.9215174 224.170106541 164.848632812 210.544945242 164.848632812 148.561523438 c 4
 164.848632812 111.324445486 189.419144912 86.4638671875 246.888671875 86.4638671875 c 4
 313.711369303 86.4638671875 357.928710938 123.027306191 357.928710938 177.561523438 c 5x7c
357.928710938 299.010742188 m 6xbc
 357.928710938 377.97408765 325.670027448 412.010742188 248.928710938 412.010742188 c 4
 170.769677734 412.010742188 114.928710938 368.010742188 114.928710938 368.010742188 c 5
 79.9287109375 467.010742188 l 5
 79.9287109375 467.010742188 159.657226562 511.010742188 274.928710938 511.010742188 c 4
 417.721987032 511.010742188 476.928710938 427.01055301 476.928710938 300.010742188 c 6
 476.928710938 118 l 6
 476.928710938 93.251950046 485.36431245 84 507.928710938 84 c 4
 525.694039812 84 536.928710938 91 536.928710938 91 c 5
 545.928710938 13 l 5
 545.928710938 13 520.8653569 -9.998046875 467.928710938 -9.998046875 c 4
 394.082557091 -9.998046875 357.928710938 33 357.928710938 125 c 6
 357.928710938 299.010742188 l 6xbc
EndSplineSet
Fore
SplineSet
367.734960938 177.561523438 m 1xf8
 405.55859375 160.561523438 l 1xf4
 405.55859375 57.3565944281 345.157397365 -9.998046875 217.888671875 -9.998046875 c 0
 107.939042451 -9.998046875 41.0125 48.8834656129 41.0125 136.43375 c 0
 41.0125 282.57312921 194.582573338 305.428121844 383.734960938 305.56359375 c 1
 383.583740234 239.714355469 l 1xf2
 225.113134985 239.567134688 136.868632812 222.435159374 136.868632812 141.98803833 c 0
 136.868632812 98.0631414362 165.399580731 67.1988671875 232.132421875 67.1988671875 c 0
 313.736566783 67.1988671875 367.734960938 111.49460888 367.734960938 177.561523438 c 1xf8
367.734960938 298.535742188 m 2xf8
 367.734960938 391.155975401 340.373669662 431.079345703 249.940917969 431.079345703 c 0
 170.159647368 431.079345703 113.159667969 392.079345703 113.159667969 392.079345703 c 1
 87.4287109375 467.010742188 l 1
 87.4287109375 467.010742188 157.952671649 511.010742188 259.916210938 511.010742188 c 0
 400.045367431 511.010742188 458.147460938 430.802504677 458.147460938 309.535742188 c 2
 458.147460938 114.9875 l 2
 458.147460938 78.6260636632 468.071878087 65.0325 494.618710938 65.0325 c 0
 516.854470414 65.0325 530.916210938 73.38375 530.916210938 73.38375 c 1
 539.916210938 8.83875 l 1
 539.916210938 8.83875 516.229938179 -9.998046875 470.371251221 -9.998046875 c 0
 400.13657908 -9.998046875 367.734960938 29.492423393 367.734960938 113.9875 c 2
 367.734960938 298.535742188 l 2xf8
EndSplineSet
Substitution2: "'ss15' Style Set 15 lookup 20-1" a.ss15
Substitution2: "'ss02' Style Set 2 lookup 3-1" a.ss02
EndChar

StartChar: plus
Encoding: 43 43 47
Width: 450
Flags: W
HStem: 319.835 76.33<30 420>
VStem: 186.835 76.33<163 553>
LayerCount: 2
Fore
SplineSet
263.165 553 m 1
 263.165 163 l 1
 186.835 163 l 1
 186.835 553 l 1
 263.165 553 l 1
420 319.835 m 1
 30 319.835 l 1
 30 396.165 l 1
 420 396.165 l 1
 420 319.835 l 1
EndSplineSet
EndChar

StartChar: s
Encoding: 115 115 48
Width: 476
Flags: W
HStem: -9.99805 75.417<98.7036 313.955> 434.872 76.0618<170.376 377.73>
VStem: 52.7166 91.4701<318.116 408.42> 338.596 89.5814<90.2862 179.533>
LayerCount: 2
Fore
SplineSet
216.137486572 215.619564209 m 0
 86.5454642398 242.056396713 52.7166015625 287.426165518 52.7166015625 358.5125 c 0
 52.7166015625 453.460425154 129.641966729 510.93359375 256.017578125 510.93359375 c 0
 362.861298203 510.93359375 414.822460938 473.225585938 414.822460938 473.225585938 c 1
 393.294921875 405.709335938 l 1
 393.294921875 405.709335938 341.551984704 434.871796875 265.284414062 434.871796875 c 0
 181.75281709 434.871796875 144.18671875 406.991277149 144.18671875 362.031054688 c 0
 144.18671875 324.053735539 168.647188133 304.443558606 254.060745849 286.81583496 c 0
 381.947806092 259.654746843 428.176953125 214.698766794 428.176953125 139.88984375 c 0
 428.176953125 47.5156501121 358.433622921 -9.998046875 227.856445312 -9.998046875 c 0
 116.253967979 -9.998046875 45.5125 26.5625 45.5125 26.5625 c 1
 65.314453125 101.298828125 l 1
 65.314453125 101.298828125 132.554998645 65.4189453125 214.993164062 65.4189453125 c 0
 298.729529842 65.4189453125 338.595507812 89.0288245266 338.595507812 134.824414062 c 0
 338.595507812 171.858348579 318.644367312 195.030436802 216.137486572 215.619564209 c 0
EndSplineSet
EndChar

StartChar: y
Encoding: 121 121 49
Width: 539
Flags: W
HStem: 481.011 20G<21.0125 127.52 412.143 517.987>
LayerCount: 2
Fore
SplineSet
223.99625 27.92125 m 1
 21.0125 501.010742188 l 1
 119.02 501.010742188 l 1
 275.606445312 132.569335938 l 1
 419.98 501.010742188 l 1
 517.9875 501.010742188 l 1
 242.30125 -179.994140625 l 1
 139.69875 -179.994140625 l 1
 223.99625 27.92125 l 1
EndSplineSet
Substitution2: "'ss04' Style Set 4 lookup 5-1" y.ss04
EndChar

StartChar: u
Encoding: 117 117 50
Width: 595
Flags: W
HStem: -9.92285 78.0869<212.338 368.428> 0 21G<434.567 527.575> 481.011 20G<71.715 164.722 434.567 527.575>
VStem: 71.715 93.0075<119.52 501.011> 434.567 93.0075<207.449 501.011>
LayerCount: 2
Fore
SplineSet
434.56734375 217.010742188 m 9xb8
 482.54234375 207.44921875 l 17
 458.649010416 57.0107421877 395.171774927 -9.9228515625 260.80234375 -9.9228515625 c 0
 135.931488224 -9.9228515625 71.715 59.2016277989 71.715 203.47421875 c 2
 71.715 501.010742188 l 1
 164.7225 501.010742188 l 1
 164.7225 220.47421875 l 2
 164.7225 116.965798861 203.044939144 68.1640625 293.26484375 68.1640625 c 0
 385.476878151 68.1640625 434.56734375 127.754307261 434.56734375 217.010742188 c 9xb8
527.57484375 501.010742188 m 1
 527.57484375 0 l 1
 434.56734375 0 l 1x78
 434.56734375 501.010742188 l 1
 527.57484375 501.010742188 l 1
EndSplineSet
Substitution2: "'ss05' Style Set 5 lookup 6-1" u.ss05
EndChar

StartChar: backslash
Encoding: 92 92 51
Width: 434
Flags: W
LayerCount: 2
Fore
SplineSet
311.59125 -171.469726562 m 1
 36.59125 761.403320312 l 1
 122.40875 761.403320312 l 1
 397.40875 -171.469726562 l 1
 311.59125 -171.469726562 l 1
EndSplineSet
EndChar

StartChar: equal
Encoding: 61 61 52
Width: 450
Flags: W
HStem: 238.43 70.1938<30 420> 407.376 70.1938<30 420>
LayerCount: 2
Back
SplineSet
420 285 m 5xea
 30 285 l 5
 30 431 l 5
 420 431 l 5
 420 285 l 5xea
EndSplineSet
Fore
SplineSet
420 238.43 m 1
 30 238.43 l 1
 30 308.62375 l 1
 420 308.62375 l 1
 420 238.43 l 1
420 407.37625 m 1
 30 407.37625 l 1
 30 477.57 l 1
 420 477.57 l 1
 420 407.37625 l 1
EndSplineSet
EndChar

StartChar: v
Encoding: 118 118 53
Width: 539
Flags: W
HStem: 0 21G<211.144 337.456> 481.011 20G<21.0125 126.59 412.812 517.987>
LayerCount: 2
Fore
SplineSet
219.05 0 m 1
 21.0125 501.010742188 l 1
 119.02 501.010742188 l 1
 273.606445312 92.5943359379 l 1
 419.98 501.010742188 l 1
 517.9875 501.010742188 l 1
 329.95 0 l 1
 219.05 0 l 1
EndSplineSet
EndChar

StartChar: w
Encoding: 119 119 54
Width: 735
Flags: W
HStem: 0 21G<151.936 269.503 464.554 582.104> 481.011 20G<18.5125 114.802 620.198 716.487>
LayerCount: 2
Fore
SplineSet
157.48375 0 m 1
 18.5125 501.010742188 l 1
 109.6275 501.010742188 l 1
 213.093945312 101.081835938 l 1
 311.645 451.010742188 l 1
 423.00375 451.010742188 l 1
 521.906054688 101.081835938 l 1
 625.3725 501.010742188 l 1
 716.4875 501.010742188 l 1
 576.51625 0 l 1
 470.40125 0 l 1
 367.5 351.941796875 l 1
 263.59875 0 l 1
 157.48375 0 l 1
EndSplineSet
EndChar

StartChar: x
Encoding: 120 120 55
Width: 528
Flags: W
HStem: 0 21G<21.0125 147.446 382.141 506.987> 481.011 20G<31.0125 150.526 377.474 496.987>
VStem: 248.727 30.545<207.322 289.595>
LayerCount: 2
Fore
SplineSet
133.37125 0 m 1
 21.0125 0 l 1
 208.3475 252.35125 l 1
 31.0125 501.010742188 l 1
 137.07375 501.010742188 l 1
 279.2725 289.595 l 1
 279.2725 207.3225 l 1
 133.37125 0 l 1
396.385 0 m 1
 248.7275 207.3225 l 1
 248.7275 289.595 l 1
 390.92625 501.010742188 l 1
 496.9875 501.010742188 l 1
 319.6525 252.35125 l 1
 506.9875 0 l 1
 396.385 0 l 1
EndSplineSet
EndChar

StartChar: z
Encoding: 122 122 56
Width: 478
Flags: W
HStem: 0 80.6813<150.602 438> 420.329 80.6812<50 317.397>
LayerCount: 2
Fore
SplineSet
438 0 m 1
 40 0 l 1
 40 78.4375 l 1
 317.3975 420.329492188 l 1
 50 420.329492188 l 1
 50 501.010742188 l 1
 428 501.010742188 l 1
 428 424.329492188 l 1
 150.6025 80.68125 l 1
 438 80.68125 l 1
 438 0 l 1
EndSplineSet
EndChar

StartChar: period
Encoding: 46 46 57
Width: 245
Flags: W
HStem: -10 125.374<73.639 171.587>
VStem: 60.5375 124.152<3.23067 102.143>
LayerCount: 2
Fore
SplineSet
60.5375 52.687109375 m 0
 60.5375 90.6636959687 85.0061070419 115.37421875 122.612304688 115.37421875 c 0
 160.219547044 115.37421875 184.6890625 90.6636959687 184.6890625 52.687109375 c 0
 184.6890625 14.7098661108 160.219547044 -10 122.612304688 -10 c 0
 85.0061070421 -10 60.5375 14.7098661108 60.5375 52.687109375 c 0
EndSplineSet
EndChar

StartChar: two
Encoding: 50 50 58
Width: 608
Flags: W
HStem: 0 86.8713<158.862 566.049> 650.537 88.4548<175.35 395.977>
VStem: 54.0125 104.85<86.8713 155.739> 457.817 96.9322<451.789 592.727>
LayerCount: 2
Fore
SplineSet
457.81703125 519.86375 m 0
 457.81703125 593.457815305 414.354680178 650.537382812 286.840625 650.537382812 c 0
 183.830527279 650.537382812 110.066835938 595.639882812 110.066835938 595.639882812 c 1
 75.983515625 677.201875 l 1
 75.983515625 677.201875 163.226646821 738.9921875 290.20390625 738.9921875 c 0
 455.165175395 738.9921875 554.74921875 664.185908972 554.74921875 516.55359375 c 0
 554.74921875 389.641121361 465.141373294 335.18464286 349.374023438 276.3709375 c 0
 178.14503058 191.202660246 160.243674247 139.905448687 158.862226562 86.87125 c 1
 566.048828125 86.87125 l 1
 566.048828125 0 l 1
 54.0125 0 l 1
 54.0125 54 l 2
 54.0125 198.307401944 147.256085494 281.36493347 314.821289062 363.124453125 c 0
 402.903874384 405.519997496 457.81703125 445.438427114 457.81703125 519.86375 c 0
EndSplineSet
Substitution2: "'frac' Diagonal Fractions in Latin lookup 26 subtable" two.numr
Substitution2: "'onum' Oldstyle Figures lookup 18-1" two.osf
Substitution2: "'tnum' Tabular Numbers lookup 17-1" two.tf
Substitution2: "'numr' Numerators lookup 0 subtable" two.numr
Substitution2: "'dnom' Denominators lookup 0 subtable" two.dnom
Substitution2: "'sups' Superscript lookup 0 subtable" two.superior
Substitution2: "'sinf' Scientific Inferiors lookup 0 subtable" two.inferior
Substitution2: "'sups' Superscript lookup 0 subtable" two.superior
EndChar

StartChar: three
Encoding: 51 51 59
Width: 579
Flags: W
HStem: -9.99805 85.1062<114.783 363.28> 331.538 82.4064<164.139 369.774> 651.186 87.8061<125.998 357.226>
VStem: 417.376 96.9322<456.593 599.455> 429.272 100.876<132.141 277.622>
LayerCount: 2
Fore
SplineSet
262.638671875 413.943945312 m 2xe8
 372.08190173 413.943945312 417.375625 452.304276849 417.375625 528.62484375 c 0
 417.375625 598.295897267 376.741045691 651.186132812 247.223071289 651.186132812 c 0
 135.641990096 651.186132812 69.2391796875 602.288632812 69.2391796875 602.288632812 c 1
 40.643359375 684.796875 l 1
 40.643359375 684.796875 118.352281147 738.9921875 253.05375 738.9921875 c 0
 415.842495939 738.9921875 514.3078125 668.705952784 514.3078125 535.326914062 c 0xf0
 514.3078125 408.22391597 397.125585938 374.643515625 397.125585938 374.643515625 c 1
 397.125585938 374.643515625 530.148632812 344.041295222 530.148632812 202.273995362 c 0
 530.148632812 52.3315966791 418.157690683 -9.998046875 250 -9.998046875 c 0
 106.704492776 -9.998046875 21.463671875 40.9091796875 21.463671875 40.9091796875 c 1
 49.5181640625 126.377695312 l 1
 49.5181640625 126.377695312 123.691229648 75.108203125 243.5125 75.108203125 c 0
 370.919075634 75.108203125 429.272148438 120.871666629 429.272148438 203.38 c 0
 429.272148438 290.799411117 371.975063697 330.971508494 262.638671875 331.274804688 c 2
 164 331.5375 l 1
 164.138671875 413.943945312 l 1
 262.638671875 413.943945312 l 2xe8
EndSplineSet
Substitution2: "'frac' Diagonal Fractions in Latin lookup 26 subtable" three.numr
Substitution2: "'onum' Oldstyle Figures lookup 18-1" three.osf
Substitution2: "'tnum' Tabular Numbers lookup 17-1" three.tf
Substitution2: "'numr' Numerators lookup 0 subtable" three.numr
Substitution2: "'dnom' Denominators lookup 0 subtable" three.dnom
Substitution2: "'sups' Superscript lookup 0 subtable" three.superior
Substitution2: "'sinf' Scientific Inferiors lookup 0 subtable" three.inferior
Substitution2: "'sups' Superscript lookup 0 subtable" three.superior
EndChar

StartChar: comma
Encoding: 44 44 61
Width: 252
Flags: W
HStem: -107.57 222.944
VStem: 60.5375 131.152<5.90389 98.095>
LayerCount: 2
Fore
SplineSet
60.5375 52.687109375 m 0
 60.5375 90.6636959687 85.0061070419 115.37421875 122.612304688 115.37421875 c 0
 164.460275874 115.37421875 191.6890625 88.3586210779 191.6890625 39.4625 c 0
 191.6890625 -42.8749509214 105.19 -107.57 105.19 -107.57 c 1
 66.56625 -69.4875 l 1
 66.56625 -69.4875 105.642317532 -42.5752078211 122.704492188 -10.50296875 c 1
 84.7284961949 -7.24790153911 60.5375 16.9154164409 60.5375 52.687109375 c 0
EndSplineSet
EndChar

StartChar: zero
Encoding: 48 48 63
Width: 683
Flags: W
HStem: -9.99805 86.9819<252.37 431.407> 652.139 86.9819<252.37 431.407>
VStem: 49.7625 96.1536<209.907 519.217> 537.861 96.1536<209.907 519.217>
LayerCount: 2
Fore
SplineSet
145.916132812 364.561523438 m 0
 145.916132812 192.114570534 204.608762622 76.9838671875 341.888671875 76.9838671875 c 0
 479.168581128 76.9838671875 537.861210938 192.114570534 537.861210938 364.561523438 c 0
 537.861210938 537.008476335 479.168581128 652.139179688 341.888671875 652.139179688 c 0
 204.608762622 652.139179688 145.916132812 537.008476335 145.916132812 364.561523438 c 0
49.7625 364.561523438 m 0
 49.7625 591.206054688 150.778464048 739.12109375 341.888671875 739.12109375 c 0
 532.998879702 739.12109375 634.01484375 591.206054688 634.01484375 364.561523438 c 0
 634.01484375 137.916992188 532.998879702 -9.998046875 341.888671875 -9.998046875 c 0
 150.778464048 -9.998046875 49.7625 137.916992188 49.7625 364.561523438 c 0
EndSplineSet
Substitution2: "'frac' Diagonal Fractions in Latin lookup 26 subtable" zero.numr
Substitution2: "'onum' Oldstyle Figures lookup 18-1" zero.osf
Substitution2: "'tnum' Tabular Numbers lookup 17-1" zero.tf
Substitution2: "'numr' Numerators lookup 0 subtable" zero.numr
Substitution2: "'dnom' Denominators lookup 0 subtable" zero.dnom
Substitution2: "'sups' Superscript lookup 0 subtable" zero.superior
Substitution2: "'sinf' Scientific Inferiors lookup 0 subtable" zero.inferior
Substitution2: "'sups' Superscript lookup 0 subtable" zero.superior
EndChar

StartChar: one
Encoding: 49 49 64
Width: 415
Flags: W
HStem: 0 21G<239.575 340.475> 711 20G<256.575 340.475>
VStem: 239.575 100.9<0 623.641>
LayerCount: 2
Fore
SplineSet
340.475 731 m 1
 340.475 0 l 1
 239.575 0 l 1
 239.575 623.64125 l 1
 70.5 531.61625 l 1
 70.5 531.61625 33.0375 608 33.0375 608 c 1
 33.0375 608 256.575 731 256.575 731 c 1
 340.475 731 l 1
EndSplineSet
Substitution2: "'frac' Diagonal Fractions in Latin lookup 26 subtable" one.numr
Substitution2: "'onum' Oldstyle Figures lookup 18-1" one.osf
Substitution2: "'tnum' Tabular Numbers lookup 17-1" one.tf
Substitution2: "'numr' Numerators lookup 0 subtable" one.numr
Substitution2: "'dnom' Denominators lookup 0 subtable" one.dnom
Substitution2: "'sups' Superscript lookup 0 subtable" one.superior
Substitution2: "'sinf' Scientific Inferiors lookup 0 subtable" one.inferior
Substitution2: "'sups' Superscript lookup 0 subtable" one.superior
EndChar

StartChar: four
Encoding: 52 52 65
Width: 660
Flags: W
HStem: 0 21G<408.347 504.153> 186.835 83.8712<166.425 613.487> 711 20G<395.098 504.153>
VStem: 408.347 95.805<0 589.638>
LayerCount: 2
Fore
SplineSet
504.1525 731 m 1
 504.1525 0 l 1
 408.3475 0 l 1
 408.3475 589.6375 l 1
 166.425 270.70625 l 1
 613.4875 270.70625 l 1
 613.4875 186.835 l 1
 72.0125 186.835 l 1
 52.525 261.70625 l 1
 410.3475 731 l 1
 504.1525 731 l 1
EndSplineSet
Substitution2: "'frac' Diagonal Fractions in Latin lookup 26 subtable" four.numr
Substitution2: "'onum' Oldstyle Figures lookup 18-1" four.osf
Substitution2: "'tnum' Tabular Numbers lookup 17-1" four.tf
Substitution2: "'numr' Numerators lookup 0 subtable" four.numr
Substitution2: "'dnom' Denominators lookup 0 subtable" four.dnom
Substitution2: "'sups' Superscript lookup 0 subtable" four.superior
Substitution2: "'sinf' Scientific Inferiors lookup 0 subtable" four.inferior
Substitution2: "'sups' Superscript lookup 0 subtable" four.superior
EndChar

StartChar: exclam
Encoding: 33 33 66
Width: 274
Flags: W
HStem: -10 125.374<88.0257 185.974> 711.008 20G<89.645 188.355>
VStem: 74.9242 124.152<3.23067 102.143> 89.645 98.71<438.951 731.008> 102.133 73.735<210 502.056>
LayerCount: 2
Fore
SplineSet
102.1325 210 m 1xc8
 89.645 731.0078125 l 1
 188.355 731.0078125 l 1xd0
 175.8675 210 l 1
 102.1325 210 l 1xc8
74.92421875 52.687109375 m 0xe0
 74.92421875 90.6636959687 99.3928257919 115.37421875 136.999023438 115.37421875 c 0
 174.606265794 115.37421875 199.07578125 90.6636959687 199.07578125 52.687109375 c 0
 199.07578125 14.7098661108 174.606265794 -10 136.999023438 -10 c 0
 99.392825792 -10 74.92421875 14.7098661108 74.92421875 52.687109375 c 0xe0
EndSplineSet
EndChar

StartChar: five
Encoding: 53 53 67
Width: 594
Flags: W
HStem: -9.99805 88.9538<123.789 366.914> 394.552 82.9546<207.498 384.354> 643.672 87.3357<180.986 502.172>
VStem: 447.236 97.8287<154.302 331.689>
LayerCount: 2
Fore
SplineSet
267 -9.998046875 m 0
 119.315393858 -9.998046875 31.463671875 40.9091796875 31.463671875 40.9091796875 c 1
 58.5181640625 128.621445312 l 1
 58.5181640625 128.621445312 143.188606498 78.95578125 252 78.95578125 c 0
 390.932417092 78.95578125 447.235976562 141.239802483 447.235976562 242.063671875 c 0
 447.235976562 337.569013128 395.97411826 394.551796875 294.5125 394.551796875 c 0
 185.934636711 394.551796875 150.64 314.1075 150.64 314.1075 c 1
 66.203515625 337.864765625 l 1
 102.25625 731.0078125 l 1
 502.171875 731.0078125 l 1
 502.171875 643.672070312 l 1
 180.9859375 643.672070312 l 1
 159.788203125 422.086015625 l 1
 159.788203125 422.086015625 196.518372322 477.506367188 314.815429688 477.506367188 c 0
 460.242818995 477.506367188 545.064648438 389.977246505 545.064648438 243.984570312 c 0
 545.064648438 86.5628539958 447.943584933 -9.998046875 267 -9.998046875 c 0
EndSplineSet
Substitution2: "'frac' Diagonal Fractions in Latin lookup 26 subtable" five.numr
Substitution2: "'onum' Oldstyle Figures lookup 18-1" five.osf
Substitution2: "'tnum' Tabular Numbers lookup 17-1" five.tf
Substitution2: "'numr' Numerators lookup 0 subtable" five.numr
Substitution2: "'dnom' Denominators lookup 0 subtable" five.dnom
Substitution2: "'sups' Superscript lookup 0 subtable" five.superior
Substitution2: "'sinf' Scientific Inferiors lookup 0 subtable" five.inferior
Substitution2: "'sups' Superscript lookup 0 subtable" five.superior
EndChar

StartChar: six
Encoding: 54 54 68
Width: 640
Flags: W
HStem: -9.99805 86.4624<237.232 426.48> 397.317 79.2827<236.36 427.098> 652.405 86.5877<259.54 486.73>
VStem: 49.7625 90.2037<378.135 513.422> 499.277 91.1254<149.537 326.471>
LayerCount: 2
Back
SplineSet
188.3984375 236.890625 m 4
 188.3984375 160.019065367 229.88147703 103.890625 330.3984375 103.890625 c 4
 431.623435844 103.890625 473.3984375 160.019065367 473.3984375 236.890625 c 4
 473.3984375 314.340166284 431.623435844 370.890625 330.3984375 370.890625 c 4
 229.88147703 370.890625 188.3984375 314.340166284 188.3984375 236.890625 c 4
173.303710938 405.747070312 m 5
 173.303710938 405.747070312 214.094697864 475.599609375 341.263671875 475.599609375 c 4
 515.711185917 475.599609375 595.165039062 379.238029036 595.165039062 239 c 4
 595.165039062 79.095703125 494.937095781 -9.998046875 331.297851562 -9.998046875 c 4
 151.540405276 -9.998046875 45 99.6728515624 45 365.331054688 c 4
 45 605.528320312 159.046377502 738.9921875 364.297851562 738.9921875 c 4
 505.428880973 738.9921875 576.923828125 678.860351562 576.923828125 678.860351562 c 5
 532.619140625 573.388671875 l 5
 532.619140625 573.388671875 473.487673927 622.51953125 364.778320312 622.51953125 c 4
 242.266224145 622.51953125 180.301516454 546.295339891 173.303710938 405.747070312 c 5
EndSplineSet
Fore
SplineSet
161.1146875 236.890625 m 0
 161.1146875 144.167196101 213.974576673 76.464375 330.3984375 76.464375 c 0
 448.580212857 76.464375 499.2771875 144.167196101 499.2771875 236.890625 c 0
 499.2771875 329.614053899 449.94215211 397.316875 330.3984375 397.316875 c 0
 213.974576673 397.316875 161.1146875 329.614053899 161.1146875 236.890625 c 0
139.966210938 378.134570312 m 1
 139.966210938 378.134570312 178.892357634 476.599609375 342.156171875 476.599609375 c 0
 495.500959839 476.599609375 590.402539062 379.830752031 590.402539062 239 c 0
 590.402539062 79.095703125 491.983595166 -9.998046875 331.297851562 -9.998046875 c 0
 151.410096662 -9.998046875 49.7625 99.6728515623 49.7625 365.331054688 c 0
 49.7625 605.528320312 158.536027591 738.9921875 354.297851562 738.9921875 c 0
 497.403544743 738.9921875 569.898828125 681.319101562 569.898828125 681.319101562 c 1
 539.619140625 603.976171875 l 1
 539.619140625 603.976171875 476.926732682 652.40453125 361.670820312 652.40453125 c 0
 219.81652165 652.40453125 144.719425543 567.188934484 139.966210938 378.134570312 c 1
EndSplineSet
Substitution2: "'frac' Diagonal Fractions in Latin lookup 26 subtable" six.numr
Substitution2: "'onum' Oldstyle Figures lookup 18-1" six.osf
Substitution2: "'tnum' Tabular Numbers lookup 17-1" six.tf
Substitution2: "'numr' Numerators lookup 0 subtable" six.numr
Substitution2: "'dnom' Denominators lookup 0 subtable" six.dnom
Substitution2: "'ss07' Style Set 7 lookup 8-1" six.ss07
Substitution2: "'sups' Superscript lookup 0 subtable" six.superior
Substitution2: "'sinf' Scientific Inferiors lookup 0 subtable" six.inferior
Substitution2: "'sups' Superscript lookup 0 subtable" six.superior
EndChar

StartChar: parenright
Encoding: 41 41 69
Width: 402
Flags: W
HStem: -171.47 82.1529<43.5125 140.084> 677.317 82.1529<43.5125 140.084>
VStem: 266.874 91.74<88.9403 499.06>
LayerCount: 2
Fore
SplineSet
43.5125 -89.3168359377 m 1
 189.694938499 -89.3168359377 266.874492188 16.8858489252 266.874492188 294 c 0
 266.874492188 571.114151074 189.694938499 677.316835938 43.5125 677.316835938 c 1
 43.5125 759.469726562 l 1
 248.413610705 759.469726562 358.614453125 611.823242188 358.614453125 294 c 0
 358.614453125 -23.8232421879 248.413610705 -171.469726562 43.5125 -171.469726562 c 1
 43.5125 -89.3168359377 l 1
EndSplineSet
EndChar

StartChar: seven
Encoding: 55 55 70
Width: 604
Flags: W
HStem: 0 21G<193.752 296.783> 643.48 87.52<51.75 445.053>
VStem: 193.752 101.198<0 165.105>
LayerCount: 2
Fore
SplineSet
294.95 0 m 1
 193.7525 0 l 1
 206.538005729 368.238991453 445.0525 643.48 445.0525 643.48 c 1
 51.75 643.48 l 1
 51.75 731 l 1
 552.25 731 l 1
 552.25 647.48 l 1
 552.25 647.48 298.615084155 372.317108 294.95 0 c 1
EndSplineSet
Substitution2: "'frac' Diagonal Fractions in Latin lookup 26 subtable" seven.numr
Substitution2: "'onum' Oldstyle Figures lookup 18-1" seven.osf
Substitution2: "'tnum' Tabular Numbers lookup 17-1" seven.tf
Substitution2: "'numr' Numerators lookup 0 subtable" seven.numr
Substitution2: "'dnom' Denominators lookup 0 subtable" seven.dnom
Substitution2: "'sups' Superscript lookup 0 subtable" seven.superior
Substitution2: "'sinf' Scientific Inferiors lookup 0 subtable" seven.inferior
Substitution2: "'sups' Superscript lookup 0 subtable" seven.superior
EndChar

StartChar: eight
Encoding: 56 56 71
Width: 647
Flags: W
HStem: -9.99805 81.6887<215.556 431.444> 342.935 75.9403<232.898 417.725> 363.086 41.2318<168.619 481.635> 656.424 82.4605<229.805 419.766>
VStem: 50.2625 94.0188<135.085 279.215> 85.5223 90.696<470.505 605.817> 475.782 90.696<470.505 603.392> 502.719 94.0188<135.085 279.215>
LayerCount: 2
Fore
SplineSet
324.2025 418.875273438 m 0xd6
 417.725133946 418.875273438 475.781757812 464.027473111 475.781757812 535.732890625 c 0
 475.781757812 611.617083531 419.739071843 656.424296875 323.5 656.424296875 c 0
 230.421218243 656.424296875 176.218242188 611.617083531 176.218242188 535.732890625 c 0
 176.218242188 464.027473111 232.897968642 418.875273438 324.2025 418.875273438 c 0xd6
323.5 738.884765625 m 0
 474.947569878 738.884765625 566.477734375 665.090820312 566.477734375 543.655273438 c 0
 566.477734375 429.341652619 481.635005648 363.085742188 323.5 363.085742188 c 0xb6
 168.618916187 363.085742188 85.522265625 429.341652619 85.522265625 543.655273438 c 0
 85.522265625 665.090820312 175.168663011 738.884765625 323.5 738.884765625 c 0
323.5 71.690625 m 0
 435.885813961 71.690625 502.718671875 120.268961299 502.718671875 208.049257812 c 0
 502.718671875 290.543613094 435.910672068 342.934960938 323.5 342.934960938 c 0
 211.089327932 342.934960938 144.281328125 290.543613094 144.281328125 208.049257812 c 0xd9
 144.281328125 120.268961299 211.114186039 71.690625 323.5 71.690625 c 0
323.5 404.317578125 m 0xb9
 499.761934317 404.317578125 596.7375 332.69074897 596.7375 203.113085938 c 0
 596.7375 74.0928933185 489.248603657 -9.998046875 323.5 -9.998046875 c 0
 157.751396343 -9.998046875 50.2625 74.0928933187 50.2625 203.113085938 c 0
 50.2625 332.69074897 147.238065683 404.317578125 323.5 404.317578125 c 0xb9
EndSplineSet
Substitution2: "'frac' Diagonal Fractions in Latin lookup 26 subtable" eight.numr
Substitution2: "'onum' Oldstyle Figures lookup 18-1" eight.osf
Substitution2: "'tnum' Tabular Numbers lookup 17-1" eight.tf
Substitution2: "'numr' Numerators lookup 0 subtable" eight.numr
Substitution2: "'dnom' Denominators lookup 0 subtable" eight.dnom
Substitution2: "'sups' Superscript lookup 0 subtable" eight.superior
Substitution2: "'sinf' Scientific Inferiors lookup 0 subtable" eight.inferior
Substitution2: "'sups' Superscript lookup 0 subtable" eight.superior
EndChar

StartChar: nine
Encoding: 57 57 72
Width: 640
Flags: W
HStem: -9.99805 86.5877<155.082 380.625> 252.395 79.9852<216.742 406.854> 652.53 86.4624<217.522 403.646>
VStem: 49.7625 92.4229<402.724 579.457> 500.199 90.2037<215.572 350.86>
LayerCount: 2
Fore
SplineSet
480.347851562 492.103515625 m 0
 480.347851562 584.826944524 427.48796239 652.529765625 311.064101562 652.529765625 c 0
 193.222811019 652.529765625 142.185351562 584.826944524 142.185351562 492.103515625 c 0
 142.185351562 399.786118837 191.520386954 332.379765625 311.064101562 332.379765625 c 0
 427.48796239 332.379765625 480.347851562 399.786118837 480.347851562 492.103515625 c 0
500.198828125 350.859570312 m 1
 500.198828125 350.859570312 461.353471922 252.39453125 298.008867188 252.39453125 c 0
 144.664079224 252.39453125 49.7625 349.164169963 49.7625 489.994140625 c 0
 49.7625 649.8984375 148.181443898 738.9921875 308.8671875 738.9921875 c 0
 489.101668297 738.9921875 590.402539062 629.321289062 590.402539062 363.663085938 c 0
 590.402539062 123.465820312 481.629011471 -9.998046875 285.8671875 -9.998046875 c 0
 144.420875639 -9.998046875 72.7662109375 47.6750390625 72.7662109375 47.6750390625 c 1
 103.045898438 125.01796875 l 1
 103.045898438 125.01796875 164.857539315 76.589609375 278.49421875 76.589609375 c 0
 420.348517413 76.589609375 495.445613519 161.80583984 500.198828125 350.859570312 c 1
EndSplineSet
Substitution2: "'frac' Diagonal Fractions in Latin lookup 26 subtable" nine.numr
Substitution2: "'onum' Oldstyle Figures lookup 18-1" nine.osf
Substitution2: "'tnum' Tabular Numbers lookup 17-1" nine.tf
Substitution2: "'numr' Numerators lookup 0 subtable" nine.numr
Substitution2: "'dnom' Denominators lookup 0 subtable" nine.dnom
Substitution2: "'ss07' Style Set 7 lookup 8-1" nine.ss07
Substitution2: "'sups' Superscript lookup 0 subtable" nine.superior
Substitution2: "'sinf' Scientific Inferiors lookup 0 subtable" nine.inferior
Substitution2: "'sups' Superscript lookup 0 subtable" nine.superior
EndChar

StartChar: question
Encoding: 63 63 73
Width: 562
Flags: W
HStem: -10 125.374<176.026 273.974> 304.594 74.8926<225.084 366.309> 652.114 86.8787<122.092 346.931>
VStem: 162.924 124.152<3.23067 102.143> 182.96 85.8811<210 306.356> 420.183 95.6744<431.209 585.464>
LayerCount: 2
Back
SplineSet
152.38671875 63.224609375 m 0xf4
 152.38671875 107.584937143 181.008990842 136.44921875 224.999023438 136.44921875 c 0
 268.990077228 136.44921875 297.61328125 107.584937143 297.61328125 63.224609375 c 0
 297.61328125 18.8635145521 268.990077228 -10 224.999023438 -10 c 0
 181.008990842 -10 152.38671875 18.8635145521 152.38671875 63.224609375 c 0xf4
280.88671875 300.653320312 m 1
 282.37890625 210 l 1
 169.422851562 210 l 1xec
 171.15625 399.46875 l 1
 171.15625 399.46875 208.949224154 395.048828125 256.3984375 395.048828125 c 0
 348.180522211 395.048828125 392.095703125 431.389934102 392.095703125 499.145507812 c 0
 392.095703125 585.201602829 327.571533338 623.228515625 232.89453125 623.228515625 c 0
 138.66274719 623.228515625 76.923828125 573.958007812 76.923828125 573.958007812 c 1
 30.2412109375 685.311523438 l 1
 30.2412109375 685.311523438 107.390463661 738.9921875 239.89453125 738.9921875 c 0
 405.150107971 738.9921875 521.870117188 670 521.870117188 501.010742188 c 0
 521.870117188 365.685958308 421.37343496 300.59375 309 300.59375 c 0
 290.63582236 300.59375 280.88671875 300.653320312 280.88671875 300.653320312 c 1
EndSplineSet
Fore
SplineSet
162.92421875 52.687109375 m 0xf4
 162.92421875 90.6636959687 187.392825792 115.37421875 224.999023438 115.37421875 c 0
 262.606265794 115.37421875 287.07578125 90.6636959687 287.07578125 52.687109375 c 0
 287.07578125 14.7098661108 262.606265794 -10 224.999023438 -10 c 0
 187.392825792 -10 162.92421875 14.7098661108 162.92421875 52.687109375 c 0xf4
267.34921875 306.355820312 m 1
 268.84140625 210 l 1
 182.960351562 210 l 1xec
 184.69375 384.60875 l 1
 184.69375 384.60875 220.497146264 379.486328125 265.4484375 379.486328125 c 0
 370.106989763 379.486328125 420.183203125 423.529655278 420.183203125 505.645507812 c 0
 420.183203125 607.226417393 346.909628425 652.113515625 239.39453125 652.113515625 c 0
 131.104621007 652.113515625 60.155078125 598.545507812 60.155078125 598.545507812 c 1
 26.2537109375 685.311523438 l 1
 26.2537109375 685.311523438 105.790265595 738.9921875 242.39453125 738.9921875 c 0
 402.661243094 738.9921875 515.857617188 662.157517861 515.857617188 507.510742188 c 0
 515.857617188 370.497918007 413.757446538 304.59375 307.785 304.59375 c 0
 281.371510117 304.59375 267.34921875 306.355820312 267.34921875 306.355820312 c 1
EndSplineSet
EndChar

StartChar: hyphen
Encoding: 45 45 74
Width: 354
Flags: W
HStem: 238.538 81.925<43.5125 310.487>
VStem: 43.5125 266.975<238.538 320.462>
LayerCount: 2
Fore
SplineSet
310.4875 238.5375 m 1
 43.5125 238.5375 l 1
 43.5125 320.4625 l 1
 310.4875 320.4625 l 1
 310.4875 238.5375 l 1
EndSplineSet
EndChar

StartChar: quotesingle
Encoding: 39 39 75
Width: 266
Flags: W
HStem: 456 275.008<103.025 166.975>
VStem: 90.5375 88.925<576.849 731.008> 103.025 63.95<456 610.159>
LayerCount: 2
Fore
SplineSet
103.025 456 m 1xa0
 90.5375 731.0078125 l 1
 179.4625 731.0078125 l 1xc0
 166.975 456 l 1
 103.025 456 l 1xa0
EndSplineSet
EndChar

StartChar: parenleft
Encoding: 40 40 77
Width: 402
Flags: W
HStem: -171.47 82.1529<262.043 358.614> 677.317 82.1529<262.043 358.614>
VStem: 43.5125 91.74<88.9403 499.06>
LayerCount: 2
Fore
SplineSet
358.614453125 -89.3168359377 m 1
 358.614453125 -171.469726562 l 1
 153.71334242 -171.469726562 43.5125 -23.8232421879 43.5125 294 c 0
 43.5125 611.823242188 153.71334242 759.469726562 358.614453125 759.469726562 c 1
 358.614453125 677.316835938 l 1
 212.432014626 677.316835938 135.252460938 571.114151074 135.252460938 294 c 0
 135.252460938 16.8858489252 212.432014626 -89.3168359377 358.614453125 -89.3168359377 c 1
EndSplineSet
EndChar

StartChar: asterisk
Encoding: 42 42 78
Width: 400
Flags: W
HStem: 718.992 20G<157.72 242.719>
LayerCount: 2
Fore
SplineSet
242.719023438 738.9921875 m 1
 234.168984375 589.667617188 l 1
 366.519179688 646.714804688 l 1
 395.440429688 569.637890625 l 1
 254.115234375 531.280078125 l 1
 350.149023438 424.469335938 l 1
 283.56015625 369.726992188 l 1
 200.219726562 492.530195312 l 1
 116.879296875 369.726992188 l 1
 50.2904296875 424.469335938 l 1
 146.32421875 531.280078125 l 1
 5 569.637890625 l 1
 33.92125 646.714804688 l 1
 166.27046875 589.667617188 l 1
 157.720429688 738.9921875 l 1
 242.719023438 738.9921875 l 1
EndSplineSet
Substitution2: "'ss13' Style Set 13 lookup 14-1" asterisk.ss13
EndChar

StartChar: less
Encoding: 60 60 79
Width: 450
Flags: W
LayerCount: 2
Fore
SplineSet
420 162.025 m 1
 30 315.5375 l 1
 30 400.4625 l 1
 420 553.975 l 1
 420 474.05 l 1
 127.866601562 358 l 1
 420 241.95 l 1
 420 162.025 l 1
EndSplineSet
EndChar

StartChar: greater
Encoding: 62 62 80
Width: 450
Flags: W
LayerCount: 2
Fore
SplineSet
30 553.975 m 1
 420 400.4625 l 1
 420 315.5375 l 1
 30 162.025 l 1
 30 241.95 l 1
 315.645898438 358 l 1
 30 474.05 l 1
 30 553.975 l 1
EndSplineSet
EndChar

StartChar: slash
Encoding: 47 47 81
Width: 434
Flags: W
LayerCount: 2
Fore
SplineSet
36.59125 -171.469726562 m 1
 311.59125 761.403320312 l 1
 397.40875 761.403320312 l 1
 122.40875 -171.469726562 l 1
 36.59125 -171.469726562 l 1
EndSplineSet
Substitution2: "'frac' Diagonal Fractions in Latin lookup 25 subtable" fraction
EndChar

StartChar: bar
Encoding: 124 124 82
Width: 249
Flags: W
VStem: 82.2937 84.4125<-171.47 759.47>
LayerCount: 2
Fore
SplineSet
82.29375 -171.469726562 m 1
 82.29375 759.469726562 l 1
 166.70625 759.469726562 l 1
 166.70625 -171.469726562 l 1
 82.29375 -171.469726562 l 1
EndSplineSet
EndChar

StartChar: bracketleft
Encoding: 91 91 83
Width: 375
Flags: W
HStem: -171.47 74.1937<162.222 321.487> 686.276 73.1937<162.222 321.487>
VStem: 75.7025 245.785<-171.47 -97.276 686.276 759.47> 75.7025 86.52<-97.276 686.276>
LayerCount: 2
Fore
SplineSet
75.7025 759.469726562 m 1xe0
 321.4875 759.469726562 l 1
 321.4875 686.275976562 l 1
 162.2225 686.275976562 l 1
 162.2225 -97.2759765623 l 1xd0
 321.4875 -97.2759765623 l 1
 321.4875 -171.469726562 l 1
 75.7025 -171.469726562 l 1
 75.7025 759.469726562 l 1xe0
EndSplineSet
EndChar

StartChar: bracketright
Encoding: 93 93 84
Width: 375
Flags: W
HStem: -171.47 74.1937<53.5125 212.777> 685.627 73.8425<53.5125 212.777>
VStem: 53.5125 245.785<-171.47 -97.276 685.627 759.47> 212.778 86.52<-97.276 685.627>
LayerCount: 2
Fore
SplineSet
299.2975 -171.469726562 m 1xd0
 53.5125 -171.469726562 l 1
 53.5125 -97.2759765623 l 1xe0
 212.7775 -97.2759765623 l 1
 212.7775 685.627226562 l 1xd0
 53.5125 685.627226562 l 1
 53.5125 759.469726562 l 1xe0
 299.2975 759.469726562 l 1
 299.2975 -171.469726562 l 1xd0
EndSplineSet
EndChar

StartChar: asciicircum
Encoding: 94 94 85
Width: 449
Flags: W
HStem: 440 291.008
LayerCount: 2
Fore
SplineSet
273.4625 731.0078125 m 1
 430.4875 440 l 1
 344.5625 440 l 1
 225.393554688 666.875976562 l 1
 105.4375 440 l 1
 18.5125 440 l 1
 175.5375 731.0078125 l 1
 273.4625 731.0078125 l 1
EndSplineSet
EndChar

StartChar: braceleft
Encoding: 123 123 86
Width: 433
Flags: W
HStem: -171.47 72.1898<251.648 377.346> 272.07 84.925<50 137.899> 687.28 72.1898<251.555 377.44>
VStem: 147.025 87.925<-81.1444 263.953 366.727 671.638>
LayerCount: 2
Fore
SplineSet
181.32625 314.532226562 m 1
 181.32625 314.532226562 234.95 290.368536086 234.95 213.044726562 c 2
 234.95 -25.5236328125 l 2
 234.95 -82.1543234083 264.076913535 -99.2798828123 315.975 -99.2798828123 c 0
 365.176653707 -99.2798828123 376 -92.5236328123 376 -92.5236328123 c 1
 383 -160.415976562 l 1
 383 -160.415976562 347.339819588 -171.469726562 289.5125 -171.469726562 c 0
 184.609908434 -171.469726562 147.025 -121.782421875 147.025 -37.4697265625 c 2
 147.025 203.044726562 l 2
 147.025 255.735433467 128.526953125 272.069726562 92.025 272.069726562 c 2
 50 272.069726562 l 1
 50 356.994726562 l 1
 92.025 356.994726562 l 2
 128.526953125 356.994726562 147.025 373.330106871 147.025 426.019726562 c 2
 147.025 625.469726562 l 2
 147.025 709.780112592 184.609908434 759.469726562 289.5125 759.469726562 c 0
 342.279929124 759.469726562 383 748.415976562 383 748.415976562 c 1
 376 680.523632812 l 1
 376 680.523632812 356.992593044 687.279882812 314.975 687.279882812 c 0
 263.717548694 687.279882812 234.95 670.153323025 234.95 613.523632812 c 2
 234.95 416.019726562 l 2
 234.95 336.765653483 181.32625 314.532226562 181.32625 314.532226562 c 1
EndSplineSet
EndChar

StartChar: grave
Encoding: 96 96 87
Width: 242
Flags: W
HStem: 536 205.008
VStem: 18.025 205.95
LayerCount: 2
Fore
SplineSet
161.5375 536 m 1
 18.025 711.0078125 l 1
 102.95 741.0078125 l 1
 223.975 556 l 1
 161.5375 536 l 1
EndSplineSet
EndChar

StartChar: underscore
Encoding: 95 95 88
Width: 564
Flags: W
HStem: -73.4375 73.4375<40 524>
LayerCount: 2
Fore
SplineSet
524 -73.4375 m 1
 40 -73.4375 l 1
 40 0 l 1
 524 0 l 1
 524 -73.4375 l 1
EndSplineSet
EndChar

StartChar: dollar
Encoding: 36 36 89
Width: 591
Flags: W
HStem: -105 156.907<254.486 334.54> -10 89.6307<142.095 384.812> 648.49 90.6307<218.459 446.383> 676.075 153.395<254.486 334.54>
VStem: 63.1395 101.212<475.032 601.264> 254.486 80.054<-105 51.9072 676.075 829.47> 444.764 98.2429<128.529 259.576>
LayerCount: 2
Fore
SplineSet
254.485839844 -105 m 1x8e
 254.485839844 51.9072265625 l 1
 334.539794922 51.9072265625 l 1
 334.539794922 -105 l 1
 254.485839844 -105 l 1x8e
254.485839844 676.074707031 m 1x1e
 254.485839844 829.469726562 l 1
 334.539794922 829.469726562 l 1
 334.539794922 676.074707031 l 1
 254.485839844 676.074707031 l 1x1e
EndSplineSet
Refer: 22 83 N 1 0 0 1 0 0 2
EndChar

StartChar: percent
Encoding: 37 37 90
Width: 953
Flags: W
HStem: -9.99805 73.8665<657.231 787.811> 0 21G<190.287 291.414> 287.986 73.8655<656.306 788.752> 367.143 73.8655<166.558 296.811> 665.126 73.8665<165.642 297.752> 711.008 20G<659.586 760.713>
VStem: 48.5125 81.9902<477.767 629.409> 334.568 79.8798<479.842 627.344> 539.513 80.9902<100.626 252.269> 825.568 79.8798<102.701 250.204>
LayerCount: 2
Fore
SplineSet
620.50265625 176.481445312 m 0xb3c0
 620.50265625 95.6932038562 668.096620299 63.8684765625 722.48046875 63.8684765625 c 0
 776.09087957 63.8684765625 825.56765625 95.6932038562 825.56765625 176.481445312 c 0
 825.56765625 258.252032232 776.09087957 287.986015625 722.48046875 287.986015625 c 0
 668.096620299 287.986015625 620.50265625 258.252032232 620.50265625 176.481445312 c 0xb3c0
539.5125 176.481445312 m 0
 539.5125 278.624023438 606.27095371 361.8515625 722.48046875 361.8515625 c 0
 838.689013939 361.8515625 905.447460938 278.624023438 905.447460938 176.481445312 c 0
 905.447460938 74.4218750003 838.689013939 -9.998046875 722.48046875 -9.998046875 c 0
 606.27095371 -9.998046875 539.5125 74.4218750003 539.5125 176.481445312 c 0
130.50265625 553.622070312 m 0
 130.50265625 472.834143655 177.646242332 441.008125 231.48046875 441.008125 c 0
 285.09087957 441.008125 334.56765625 472.834143655 334.56765625 553.622070312 c 0
 334.56765625 635.391561961 285.09087957 665.125664062 231.48046875 665.125664062 c 0x3bc0
 177.646242332 665.125664062 130.50265625 635.391561961 130.50265625 553.622070312 c 0
48.5125 553.622070312 m 0
 48.5125 655.764648438 115.27095371 738.9921875 231.48046875 738.9921875 c 0
 347.689013939 738.9921875 414.447460938 655.764648438 414.447460938 553.622070312 c 0
 414.447460938 451.5625 347.689013939 367.142578125 231.48046875 367.142578125 c 0
 115.27095371 367.142578125 48.5125 451.5625 48.5125 553.622070312 c 0
EndSplineSet
Refer: 138 8260 N 1 0 0 1 301 0 2
EndChar

StartChar: at
Encoding: 64 64 91
Width: 924
Flags: W
HStem: -159.727 73.8441<342.186 648.533> 71.9697 72.5964<378.672 513.277 660.085 772.452> 408.46 70.6159<395.969 530.204> 635.301 72.4258<342.472 613.372>
VStem: 38.5125 76.8561<131.167 403.424> 256.598 87.4954<180.684 353.289> 565.018 81.875<200.189 331.945> 568.368 54.2854<153.069 350.156> 816.413 69.3614<201.752 449.077>
LayerCount: 2
Fore
SplineSet
344.093398438 261.0546875 m 0xfe80
 344.093398438 184.828950472 378.839592907 144.566132812 444.628085938 144.566132812 c 0
 520.658174035 144.566132812 565.017617188 200.189127173 565.017617188 295.529296875 c 0
 565.017617188 368.46362434 527.368541729 408.460234375 466.214960938 408.460234375 c 0
 389.008155744 408.460234375 344.093398438 354.246227584 344.093398438 261.0546875 c 0xfe80
423.392578125 71.9697265625 m 0
 323.540201116 71.9697265625 256.598046875 146.245237785 256.598046875 257.037109375 c 0
 256.598046875 388.627283766 338.214281564 479.076171875 451 479.076171875 c 0
 566.197694273 479.076171875 622.653632812 396.615345004 622.653632812 268.43859375 c 0xfd80
 622.653632812 153.06878871 540.403451971 71.9697265625 423.392578125 71.9697265625 c 0
487.713867188 -159.7265625 m 0
 209.572369745 -159.7265625 38.5125 14.611328125 38.5125 268.08984375 c 0
 38.5125 524.041992188 217.905512786 707.7265625 476.420898438 707.7265625 c 0
 715.409009316 707.7265625 885.774609375 561.379882812 885.774609375 321.901367188 c 0
 885.774609375 171.18359375 819.43711908 72.708984375 703.651953125 72.708984375 c 0
 618.835545104 72.708984375 568.368203125 120.982421875 568.368203125 228.081054688 c 0xfd80
 568.368203125 350.15625 607.398476562 476.46484375 607.398476562 476.46484375 c 1
 690.08515625 476.46484375 l 1
 690.08515625 476.46484375 646.892578125 331.944544316 646.892578125 227.827148438 c 0xfe80
 646.892578125 170.29226262 666.327194809 139.929765625 712.9175 139.929765625 c 0
 769.419943305 139.929765625 816.413242188 189.971473345 816.413242188 328.072265625 c 0
 816.413242188 524.425300298 679.080294738 635.30078125 474.038125 635.30078125 c 0
 261.511957666 635.30078125 115.368554688 493.560270029 115.368554688 267.489257812 c 0
 115.368554688 47.9087732295 250.151379407 -85.8825 495.2209375 -85.8825 c 0
 667.340489776 -85.8825 774.93578125 -6.8973828125 774.93578125 -6.8973828125 c 1
 774.93578125 -6.8973828125 805.250976562 -72.2255859375 805.250976562 -72.2255859375 c 1
 805.250976562 -72.2255859375 701.004882812 -159.7265625 487.713867188 -159.7265625 c 0
EndSplineSet
EndChar

StartChar: numbersign
Encoding: 35 35 92
Width: 767
Flags: W
HStem: 0 21G<124.93 209.828 394.93 479.828> 191.727 75.545<58.5125 673.487> 446.728 75.545<93.5125 708.487> 711.008 20G<285.416 370.314 555.416 640.314>
LayerCount: 2
Fore
SplineSet
93.5125 522.2725 m 1
 708.4875 522.2725 l 1
 708.4875 446.7275 l 1
 93.5125 446.7275 l 1
 93.5125 522.2725 l 1
58.5125 267.2725 m 1
 673.4875 267.2725 l 1
 673.4875 191.7275 l 1
 58.5125 191.7275 l 1
 58.5125 267.2725 l 1
394.93 0 m 1
 559.93 731.0078125 l 1
 640.31375 731.0078125 l 1
 475.31375 0 l 1
 394.93 0 l 1
124.93 0 m 1
 289.93 731.0078125 l 1
 370.31375 731.0078125 l 1
 205.31375 0 l 1
 124.93 0 l 1
EndSplineSet
EndChar

StartChar: braceright
Encoding: 125 125 93
Width: 433
Flags: W
HStem: -171.47 72.1898<42.6795 174.08> 272.07 84.925<295.101 383> 687.28 72.1898<42.5848 174.21>
VStem: 198.05 87.925<-73.0664 263.953 366.727 661.065>
LayerCount: 2
Fore
SplineSet
252.025 314.532226562 m 1
 252.025 314.532226562 198.05 336.765653483 198.05 416.019726562 c 2
 198.05 590.168632812 l 2
 198.05 664.730178494 164.618172089 687.279882812 105.05 687.279882812 c 0
 63.0324069553 687.279882812 44.025 680.523632812 44.025 680.523632812 c 1
 37.025 748.415976562 l 1
 37.025 748.415976562 77.7450708763 759.469726562 130.5125 759.469726562 c 0
 244.967586525 759.469726562 285.975 701.119657858 285.975 602.114726562 c 2
 285.975 426.019726562 l 2
 285.975 373.330106871 304.473046875 356.994726562 340.975 356.994726562 c 2
 383 356.994726562 l 1
 383 272.069726562 l 1
 340.975 272.069726562 l 2
 304.473046875 272.069726562 285.975 255.735433467 285.975 203.044726562 c 2
 285.975 -14.1147265625 l 2
 285.975 -113.122369629 244.967586525 -171.469726562 130.5125 -171.469726562 c 0
 72.6851804124 -171.469726562 37.025 -160.415976562 37.025 -160.415976562 c 1
 44.025 -92.5236328123 l 1
 44.025 -92.5236328123 54.8483462927 -99.2798828123 104.05 -99.2798828123 c 0
 164.258826014 -99.2798828123 198.05 -76.7314956494 198.05 -2.1686328125 c 2
 198.05 -2.1686328125 198.05 213.044726562 198.05 213.044726562 c 2
 198.05 290.368536086 252.025 314.532226562 252.025 314.532226562 c 1
EndSplineSet
EndChar

StartChar: asciitilde
Encoding: 126 126 94
Width: 436
VWidth: 999
Flags: W
HStem: 301.918 72.4375<237.285 359.207> 357.942 71.4375<79.4766 199.851>
LayerCount: 2
Fore
SplineSet
421 358.16125 m 1x80
 421 358.16125 373.690983607 301.9175 300.75625 301.9175 c 0x80
 221.515576924 301.9175 195.10201923 357.9425 137.24375 357.9425 c 0
 90.8348731884 357.9425 52.975 313.9425 52.975 313.9425 c 1
 15 379.38 l 1
 15 379.38 67.2370389344 429.38 135.24375 429.38 c 0x40
 213.226634616 429.38 245.929134616 374.355 298.75625 374.355 c 0
 351.857115384 374.355 379.025 416.11125 379.025 416.11125 c 1
 421 358.16125 l 1x80
EndSplineSet
EndChar

StartChar: cent
Encoding: 162 162 95
Width: 498
Flags: W
HStem: 105.002 77.7919<221.124 420.465> 546.657 79.2769<212.889 409.188> 580.537 148.932<256.835 329.009>
VStem: 48.5125 89.9035<265.363 468.411> 256.835 72.1741<-5 166.907 580.537 729.47>
LayerCount: 2
Fore
SplineSet
256.834716797 -5 m 1x98
 256.834716797 166.907226562 l 1
 329.008789062 166.907226562 l 1
 329.008789062 -5 l 1
 256.834716797 -5 l 1x98
256.834716797 580.537353516 m 1xb8
 256.834716797 729.469726562 l 1
 329.008789062 729.469726562 l 1
 329.008789062 580.537353516 l 1
 256.834716797 580.537353516 l 1xb8
EndSplineSet
Refer: 40 99 N 1 0 0 1 0 115 2
EndChar

StartChar: sterling
Encoding: 163 163 96
Width: 553
Flags: W
HStem: 0 86.8713<152.219 523> 303.538 80.925<50 434> 650.452 89.0096<224.709 441.345>
VStem: 72.8641 105.879<442.965 606.828> 150.337 93.0697<200.81 302.08>
LayerCount: 2
Fore
SplineSet
434 303.5375 m 1xe0
 50 303.5375 l 1
 50 384.4625 l 1
 434 384.4625 l 1
 434 303.5375 l 1xe0
523 0 m 1
 30 0 l 1
 30 82.87125 l 1
 30 82.87125 150.33671875 167.447858357 150.33671875 289.379882812 c 0xe8
 150.33671875 391.588284089 72.8640625 418.167846584 72.8640625 547.185546875 c 0
 72.8640625 671.3984375 164.873575995 739.461914062 302.80859375 739.461914062 c 0
 436.654774824 739.461914062 496.44453125 699.190273438 496.44453125 699.190273438 c 1
 474.9375 615.343164062 l 1
 474.9375 615.343164062 404.878508043 650.45234375 327.27109375 650.45234375 c 0
 244.716136736 650.45234375 178.742578125 629.260681504 178.742578125 531.635838623 c 0xf0
 178.742578125 432.799375057 243.406445312 407.409707551 243.406445312 290.158203125 c 0xe8
 243.406445312 164.192194398 152.219335938 86.87125 152.219335938 86.87125 c 1
 523 86.87125 l 1
 523 0 l 1
EndSplineSet
EndChar

StartChar: yen
Encoding: 165 165 97
Width: 649
Flags: W
HStem: 0 21G<274.05 374.95> 182.025 71.95<99.5 549.5> 312.025 71.95<99.5 274.05 374.95 549.5> 325.513 58.4625<280.05 368.95> 711.008 20G<33.5125 156.394 492.606 615.487>
VStem: 274.05 100.9<0 387.487>
LayerCount: 2
Fore
SplineSet
280.05 325.5125 m 1xdc
 33.5125 731.0078125 l 1
 144.925 731.0078125 l 1
 324.5 417.866015625 l 1
 504.075 731.0078125 l 1
 615.4875 731.0078125 l 1
 368.95 325.5125 l 1
 280.05 325.5125 l 1xdc
274.05 0 m 1
 274.05 387.4875 l 1
 374.95 387.4875 l 1
 374.95 0 l 1
 274.05 0 l 1
549.5 182.025 m 1
 99.5 182.025 l 1
 99.5 253.975 l 1
 549.5 253.975 l 1
 549.5 182.025 l 1
549.5 312.025 m 1xec
 99.5 312.025 l 1
 99.5 383.975 l 1
 549.5 383.975 l 1
 549.5 312.025 l 1xec
EndSplineSet
EndChar

StartChar: currency
Encoding: 164 164 98
Width: 513
Flags: W
HStem: 156.724 83.4944<184.109 327.901> 473.973 83.6819<181.731 330.341>
VStem: 56.1238 88.3686<279.836 436.444> 368.508 88.3686<279.836 436.444>
LayerCount: 2
Fore
SplineSet
332.801757812 216.949023438 m 1
 400.377148438 246.325195312 l 1
 494.747265625 117.740625 l 1
 407.142578125 69.6580078125 l 1
 332.801757812 216.949023438 l 1
180.458007812 216.949023438 m 1
 106.1171875 69.6580078125 l 1
 18.5125 117.740625 l 1
 112.882617188 246.325195312 l 1
 180.458007812 216.949023438 l 1
332.801757812 494.23359375 m 1
 407.142578125 641.523632812 l 1
 494.747265625 593.441015625 l 1
 400.377148438 464.856445312 l 1
 332.801757812 494.23359375 l 1
180.458007812 494.23359375 m 1
 112.882617188 464.856445312 l 1
 18.5125 593.441015625 l 1
 106.1171875 641.523632812 l 1
 180.458007812 494.23359375 l 1
144.492460938 359.283203125 m 0
 144.492460938 287.886207517 177.739117713 240.218046875 255.5 240.218046875 c 0
 334.662473615 240.218046875 368.507539062 287.886207517 368.507539062 359.283203125 c 0
 368.507539062 428.057360917 334.695591352 473.973359375 255.611328125 473.973359375 c 0
 177.772232858 473.973359375 144.492460938 428.057360917 144.492460938 359.283203125 c 0
56.123828125 359.283203125 m 0
 56.123828125 479.317382812 131.563331043 557.655273438 255.5 557.655273438 c 0
 380.679834399 557.655273438 456.876171875 479.317382812 456.876171875 359.283203125 c 0
 456.876171875 236.715820312 380.679834399 156.723632812 255.5 156.723632812 c 0
 131.563331043 156.723632812 56.123828125 236.715820312 56.123828125 359.283203125 c 0
EndSplineSet
EndChar

StartChar: brokenbar
Encoding: 166 166 99
Width: 249
Flags: W
VStem: 79.05 90.9<-171.47 239 339 759.47>
LayerCount: 2
Fore
SplineSet
79.05 -171.469726562 m 1
 79.05 239 l 1
 169.95 239 l 1
 169.95 -171.469726562 l 1
 79.05 -171.469726562 l 1
79.05 339 m 1
 79.05 759.469726562 l 1
 169.95 759.469726562 l 1
 169.95 339 l 1
 79.05 339 l 1
EndSplineSet
EndChar

StartChar: section
Encoding: 167 167 100
Width: 593
Flags: W
HStem: -19.6709 76.8281<169.581 353.423> 677.774 76.8281<239.055 421.145>
VStem: 43.145 89.2725<345.614 439.391> 119.046 93.2399<547.134 650.166> 379.309 94.6449<83.7745 192.843> 460.583 89.2725<295.332 388.208>
LayerCount: 2
Fore
SplineSet
186.739990234 521.951171875 m 1xe8
 237.498291016 473.7734375 l 1
 237.498291016 473.7734375 132.417480469 468.169675165 132.417480469 386.381347656 c 0
 132.417480469 348.230762616 165.453578639 320.782397937 292.860351562 303.15078125 c 0
 426.075325154 283.958078998 473.954296875 222.097113445 473.954296875 141.857617188 c 0
 473.954296875 41.2361006405 404.463052298 -19.6708984375 290.30078125 -19.6708984375 c 0
 177.5859375 -19.6708984375 122.76953125 19.734375 122.76953125 19.734375 c 1
 147.383984375 90.2626953121 l 1
 147.383984375 90.2626953121 199.294037015 57.1572265625 275.8046875 57.1572265625 c 0
 347.201438105 57.1572265625 379.309375 88.5514455756 379.309375 139.174609375 c 0
 379.309375 184.266428582 356.403116711 218.122936764 247.696289062 229.915429688 c 0
 86.4769264651 247.50693202 43.1450195312 307.827332731 43.1450195312 373.321777344 c 0
 43.1450195312 504.272803907 186.739990234 521.951171875 186.739990234 521.951171875 c 1xe8
386.260009766 202.815673828 m 1
 348.4765625 263.968261719 l 1
 348.4765625 263.968261719 460.582519531 267.123092196 460.582519531 344.525146484 c 0
 460.582519531 390.398980493 421.686516826 412.221894476 292.208007812 434.988671875 c 0
 165.889362019 457.65789113 119.045703125 514.430337272 119.045703125 593.074023438 c 0
 119.045703125 693.695539984 188.536947702 754.602539062 302.69921875 754.602539062 c 0
 415.4140625 754.602539062 470.23046875 715.197265625 470.23046875 715.197265625 c 1
 445.616015625 643.966445312 l 1
 445.616015625 643.966445312 393.706967008 677.774414062 317.1953125 677.774414062 c 0
 244.829403523 677.774414062 212.285625 645.707946128 212.285625 594.00078125 c 0
 212.285625 553.67986845 234.475068727 525.383731825 352.260742188 506.00625 c 0
 503.034014715 480.51201184 549.854980469 420.500269049 549.854980469 348.622070312 c 0xd4
 549.854980469 217.828840367 386.260009766 202.815673828 386.260009766 202.815673828 c 1
EndSplineSet
EndChar

StartChar: dieresis
Encoding: 168 168 101
Width: 459
Flags: W
HStem: 613.618 125.374<75.5256 173.474 285.526 383.474>
VStem: 62.4242 124.152<626.849 725.761> 272.424 124.152<626.849 725.761>
LayerCount: 2
Fore
SplineSet
272.42421875 676.305078125 m 0
 272.42421875 714.281942506 296.89252388 738.9921875 334.499023438 738.9921875 c 0
 372.106561455 738.9921875 396.57578125 714.281942506 396.57578125 676.305078125 c 0
 396.57578125 638.327527633 372.106561455 613.61796875 334.499023438 613.61796875 c 0
 296.89252388 613.61796875 272.42421875 638.327527633 272.42421875 676.305078125 c 0
62.42421875 676.305078125 m 0
 62.42421875 714.281942506 86.8925238806 738.9921875 124.499023438 738.9921875 c 0
 162.106561455 738.9921875 186.57578125 714.281942506 186.57578125 676.305078125 c 0
 186.57578125 638.327527633 162.106561455 613.61796875 124.499023438 613.61796875 c 0
 86.8925238804 613.61796875 62.42421875 638.327527633 62.42421875 676.305078125 c 0
EndSplineSet
EndChar

StartChar: copyright
Encoding: 169 169 102
Width: 797
Flags: W
HStem: -9.99805 73.6999<273.357 524.42> 177.281 67.1814<355.872 523.212> 484.66 67.1814<355.872 506.684> 665.421 73.6999<273.357 524.42>
VStem: 38.5125 75.334<235.699 493.425> 235.47 79.7538<283.446 445.678> 683.931 75.334<235.699 493.425>
LayerCount: 2
Fore
SplineSet
235.46953125 364.561523438 m 0
 235.46953125 477.88408452 298.033235685 551.841796875 418.401367188 551.841796875 c 0
 498.874516994 551.841796875 537.785351562 518.7265625 537.785351562 518.7265625 c 1
 512.039765625 458.548359375 l 1
 512.039765625 458.548359375 489.346894864 484.660351562 430.388867188 484.660351562 c 0
 346.563439957 484.660351562 315.223359375 436.579723286 315.223359375 364.561523438 c 0
 315.223359375 292.543323591 346.563439957 244.462695312 430.388867188 244.462695312 c 0
 492.706541589 244.462695312 519.465820312 267.528125 519.465820312 267.528125 c 1
 539.357617188 204.578125 l 1
 539.357617188 204.578125 498.360645684 177.28125 418.401367188 177.28125 c 0
 298.033235685 177.28125 235.46953125 251.238962356 235.46953125 364.561523438 c 0
113.846484375 364.561523438 m 0
 113.846484375 184.150070421 206.240186645 63.701875 398.888671875 63.701875 c 0
 591.537157105 63.701875 683.930859375 184.150070421 683.930859375 364.561523438 c 0
 683.930859375 544.972976454 591.537157105 665.421171875 398.888671875 665.421171875 c 0
 206.240186645 665.421171875 113.846484375 544.972976454 113.846484375 364.561523438 c 0
38.5125 364.561523438 m 0
 38.5125 591.206054688 174.871914101 739.12109375 398.888671875 739.12109375 c 0
 622.905429649 739.12109375 759.26484375 591.206054688 759.26484375 364.561523438 c 0
 759.26484375 137.916992188 622.905429649 -9.998046875 398.888671875 -9.998046875 c 0
 174.871914101 -9.998046875 38.5125 137.916992188 38.5125 364.561523438 c 0
EndSplineSet
EndChar

StartChar: registered
Encoding: 174 174 103
Width: 797
Flags: W
HStem: -9.99805 73.6999<273.357 524.42> 314.264 56.0433<297 451.301> 490.614 57.6422<330.76 459.24> 665.421 73.6999<273.357 524.42>
VStem: 38.5125 75.334<235.699 493.425> 256.012 74.7475<182.752 314.264 370.308 490.614> 297 33.76<314.264 370.308> 474.705 72.1713<382.933 475.244> 683.931 75.334<235.699 493.425>
LayerCount: 2
Fore
SplineSet
297 370.307734375 m 1xfb80
 387.634335938 370.362421875 l 2
 437.482071588 370.3928211 474.70484375 377.319390459 474.70484375 429.991953125 c 0
 474.70484375 479.237599978 437.482069847 490.521414351 387.634335938 490.562890625 c 2
 330.76 490.613671875 l 1
 330.76 182.751953125 l 1
 256.0125 182.751953125 l 1
 256.0125 548.255859375 l 1xfd80
 405.931835938 548.255859375 l 2
 480.089550781 548.255859375 546.876171875 516.884569343 546.876171875 432.372790527 c 0
 546.876171875 359.703245963 486.12875 340.134375 486.12875 340.134375 c 1
 486.12875 340.134375 515.220302584 330.121194277 533.8390625 271.451171875 c 2
 561.9875 182.751953125 l 1
 486.4425 182.751953125 l 1
 463.24 265.251953125 l 2
 450.176606893 311.52734639 428.790819672 314.264453125 388.19 314.264453125 c 2
 297 314.264453125 l 1
 297 370.307734375 l 1xfb80
113.846484375 364.561523438 m 0
 113.846484375 184.150070421 206.240186645 63.701875 398.888671875 63.701875 c 0
 591.537157105 63.701875 683.930859375 184.150070421 683.930859375 364.561523438 c 0
 683.930859375 544.972976454 591.537157105 665.421171875 398.888671875 665.421171875 c 0
 206.240186645 665.421171875 113.846484375 544.972976454 113.846484375 364.561523438 c 0
38.5125 364.561523438 m 0
 38.5125 591.206054688 174.871914101 739.12109375 398.888671875 739.12109375 c 0
 622.905429649 739.12109375 759.26484375 591.206054688 759.26484375 364.561523438 c 0
 759.26484375 137.916992188 622.905429649 -9.998046875 398.888671875 -9.998046875 c 0
 174.871914101 -9.998046875 38.5125 137.916992188 38.5125 364.561523438 c 0
EndSplineSet
EndChar

StartChar: uni2117
Encoding: 8471 8471 104
Width: 797
Flags: W
HStem: -9.99805 73.6999<273.357 524.42> 293.777 54.6383<314.884 471.353> 490.614 57.6422<341.508 473.366> 665.421 73.6999<273.357 524.42>
VStem: 38.5125 75.334<235.699 493.425> 266.409 75.0987<182.752 293.777 348.415 490.614> 314.884 26.6237<293.777 348.415> 490.899 70.8738<366.86 473.183> 683.931 75.334<235.699 493.425>
LayerCount: 2
Fore
SplineSet
314.884335938 293.776953125 m 1xfb80
 314.884335938 348.415234375 l 1xfb80
 395.328671875 348.469921875 l 2
 450.042709448 348.511301782 490.899179688 361.250322391 490.899179688 419.545703125 c 0
 490.899179688 477.284736745 451.54428608 490.486531022 398.841171875 490.562890625 c 2
 341.508085938 490.613671875 l 1
 341.508085938 182.751953125 l 1
 266.409335938 182.751953125 l 1
 266.409335938 548.255859375 l 1xfd80
 402.841171875 548.255859375 l 2
 486.462914374 548.255859375 561.773007812 513.201609337 561.773007812 419.545703125 c 0
 561.773007812 327.556979045 490.021436295 293.776953125 411.328671875 293.776953125 c 2
 314.884335938 293.776953125 l 1xfb80
113.846484375 364.561523438 m 0
 113.846484375 184.150070421 206.240186645 63.701875 398.888671875 63.701875 c 0
 591.537157105 63.701875 683.930859375 184.150070421 683.930859375 364.561523438 c 0
 683.930859375 544.972976454 591.537157105 665.421171875 398.888671875 665.421171875 c 0
 206.240186645 665.421171875 113.846484375 544.972976454 113.846484375 364.561523438 c 0
38.5125 364.561523438 m 0
 38.5125 591.206054688 174.871914101 739.12109375 398.888671875 739.12109375 c 0
 622.905429649 739.12109375 759.26484375 591.206054688 759.26484375 364.561523438 c 0
 759.26484375 137.916992188 622.905429649 -9.998046875 398.888671875 -9.998046875 c 0
 174.871914101 -9.998046875 38.5125 137.916992188 38.5125 364.561523438 c 0
EndSplineSet
EndChar

StartChar: guillemotleft
Encoding: 171 171 105
Width: 590
Flags: W
LayerCount: 2
Fore
SplineSet
55.5375 277.4875 m 1
 195.5375 441 l 1
 292.70625 441 l 1
 139.45625 254 l 1
 292.70625 67 l 1
 195.5375 67 l 1
 55.5375 230.5125 l 1
 55.5375 277.4875 l 1
305.5375 277.4875 m 1
 445.5375 441 l 1
 542.70625 441 l 1
 389.45625 254 l 1
 542.70625 67 l 1
 445.5375 67 l 1
 305.5375 230.5125 l 1
 305.5375 277.4875 l 1
EndSplineSet
EndChar

StartChar: guillemotright
Encoding: 187 187 106
Width: 590
Flags: W
LayerCount: 2
Fore
SplineSet
534.4625 230.5125 m 1
 394.4625 67 l 1
 297.29375 67 l 1
 450.54375 254 l 1
 297.29375 441 l 1
 394.4625 441 l 1
 534.4625 277.4875 l 1
 534.4625 230.5125 l 1
284.4625 230.5125 m 1
 144.4625 67 l 1
 47.29375 67 l 1
 200.54375 254 l 1
 47.29375 441 l 1
 144.4625 441 l 1
 284.4625 277.4875 l 1
 284.4625 230.5125 l 1
EndSplineSet
EndChar

StartChar: mu
Encoding: 181 181 107
Width: 595
Flags: W
HStem: -9.92285 78.0869<211.633 372.886> 0 21G<437.067 530.075> 481.011 20G<69.215 162.222 437.067 530.075>
VStem: 69.215 93.0075<-180 501.011> 97.975 64.2475<56.9261 321.011> 437.067 93.0075<207.449 501.011>
LayerCount: 2
Fore
SplineSet
69.215 -180 m 1x34
 69.215 501.010742188 l 1
 162.2225 501.010742188 l 1
 162.2225 -180 l 1
 69.215 -180 l 1x34
437.06734375 217.010742188 m 9
 485.04234375 207.44921875 l 17
 462.277731742 57.0107421877 394.294574135 -9.9228515625 273.77734375 -9.9228515625 c 0
 165.239488011 -9.9228515625 97.975 56.9260601597 97.975 196.44921875 c 2
 97.975 321.010742188 l 1xac
 162.2225 321.010742188 l 1
 162.2225 213.44921875 l 2
 162.2225 121.41590279 198.831516288 68.1640625 293.26484375 68.1640625 c 0xb4
 386.974335659 68.1640625 437.06734375 127.754307261 437.06734375 217.010742188 c 9
530.07484375 501.010742188 m 1
 530.07484375 0 l 1
 437.06734375 0 l 1x64
 437.06734375 501.010742188 l 1
 530.07484375 501.010742188 l 1
EndSplineSet
EndChar

StartChar: acute
Encoding: 180 180 108
Width: 242
Flags: W
HStem: 536 205.008
VStem: 18.025 205.95
LayerCount: 2
Fore
SplineSet
80.4625 536 m 1
 18.025 556 l 1
 139.05 741.0078125 l 1
 223.975 711.0078125 l 1
 80.4625 536 l 1
EndSplineSet
EndChar

StartChar: macron
Encoding: 175 175 109
Width: 374
Flags: W
HStem: 651.785 79.2225<43.5125 330.487>
VStem: 43.5125 286.975<651.785 731.008>
LayerCount: 2
Fore
SplineSet
330.4875 651.7853125 m 1
 43.5125 651.7853125 l 1
 43.5125 731.0078125 l 1
 330.4875 731.0078125 l 1
 330.4875 651.7853125 l 1
EndSplineSet
EndChar

StartChar: uni00AD
Encoding: 173 173 110
Width: 354
Flags: W
HStem: 238.538 81.925<50 304>
VStem: 50 254<238.538 320.462>
LayerCount: 2
Fore
SplineSet
304 238.5375 m 1
 50 238.5375 l 1
 50 320.4625 l 1
 304 320.4625 l 1
 304 238.5375 l 1
EndSplineSet
EndChar

StartChar: logicalnot
Encoding: 172 172 111
Width: 450
Flags: W
HStem: 318.781 78.4375<30 324.319>
VStem: 324.319 80.6812<166.756 318.781>
LayerCount: 2
Fore
SplineSet
405 166.75625 m 1
 324.31875 166.75625 l 1
 324.31875 318.78125 l 1
 30 318.78125 l 1
 30 397.21875 l 1
 405 397.21875 l 1
 405 166.75625 l 1
EndSplineSet
EndChar

StartChar: minus
Encoding: 8722 8722 112
Width: 450
Flags: W
HStem: 319.835 76.33<30 420>
LayerCount: 2
Fore
SplineSet
420 319.835 m 1
 30 319.835 l 1
 30 396.165 l 1
 420 396.165 l 1
 420 319.835 l 1
EndSplineSet
EndChar

StartChar: notequal
Encoding: 8800 8800 113
Width: 450
Flags: W
HStem: 238.43 70.1938<30 420> 407.376 70.1938<30 420>
LayerCount: 2
Fore
SplineSet
80.361875 108.530273438 m 1
 285.361875 601.403320312 l 1
 365.745625 601.403320312 l 1
 160.745625 108.530273438 l 1
 80.361875 108.530273438 l 1
EndSplineSet
Refer: 52 61 N 1 0 0 1 0 0 2
EndChar

StartChar: partialdiff
Encoding: 8706 8706 114
Width: 620
Flags: W
HStem: -9.99805 85.8137<204.681 381.738> 394.453 76.1465<216.859 390.691> 653.405 85.5877<190.989 379.966>
VStem: 48.5125 95.1254<137.982 317.547> 476.99 94.6625<390.618 527.287>
LayerCount: 2
Fore
SplineSet
453.490351562 246.890625 m 0
 453.490351562 332.179042431 404.320880741 394.453125 309.766601562 394.453125 c 0
 195.823227567 394.453125 143.637851562 323.738675459 143.637851562 226.890625 c 0
 143.637851562 139.572047018 186.326863963 75.815625 289.766601562 75.815625 c 0
 405.661064286 75.815625 453.490351562 148.01241399 453.490351562 246.890625 c 0
476.990078125 390.618320312 m 1
 473.042997009 561.499526071 413.839270253 653.40453125 291.014233398 653.40453125 c 0
 201.067296155 653.40453125 151.657148438 608.463671875 151.657148438 608.463671875 c 1
 113.241210938 688.860351562 l 1
 113.241210938 688.860351562 174.648733922 738.9921875 295.8671875 738.9921875 c 0
 473.147897833 738.9921875 571.652539062 612.671898034 571.652539062 385.331054688 c 0
 571.652539062 105.516837439 466.419245145 -9.998046875 288.8671875 -9.998046875 c 0
 139.809399076 -9.998046875 48.5125 75.5176128099 48.5125 229 c 0
 48.5125 372.20164401 144.277148438 470.599609375 295.413867188 470.599609375 c 0
 432.892230011 470.599609375 476.990078125 390.618320312 476.990078125 390.618320312 c 1
EndSplineSet
EndChar

StartChar: emptyset
Encoding: 8709 8709 115
Width: 797
Flags: W
HStem: -9.99805 82.4407<290.082 523.255> 656.68 82.4407<274.522 515.547>
VStem: 38.5125 83.7736<234.33 494.793> 675.491 83.7736<234.33 494.793>
LayerCount: 2
Fore
SplineSet
122.286132812 364.561523438 m 0
 122.286132812 189.391394004 208.639476264 72.4426171875 398.888671875 72.4426171875 c 0
 589.137867486 72.4426171875 675.491210938 189.391394004 675.491210938 364.561523438 c 0
 675.491210938 539.731652868 589.137867486 656.680429688 398.888671875 656.680429688 c 0
 208.639476264 656.680429688 122.286132812 539.731652868 122.286132812 364.561523438 c 0
38.5125 364.561523438 m 0
 38.5125 591.206054688 174.871914101 739.12109375 398.888671875 739.12109375 c 0
 622.905429649 739.12109375 759.26484375 591.206054688 759.26484375 364.561523438 c 0
 759.26484375 137.916992188 622.905429649 -9.998046875 398.888671875 -9.998046875 c 0
 174.871914101 -9.998046875 38.5125 137.916992188 38.5125 364.561523438 c 0
122.0375 -90.873046875 m 1
 587.0375 812 l 1
 674.9625 812 l 1
 209.9625 -90.873046875 l 1
 122.0375 -90.873046875 l 1
EndSplineSet
EndChar

StartChar: Delta
Encoding: 8710 8710 116
Width: 719
Flags: W
HStem: 0 94.0075<161.251 557.749> 711.008 20G<294.709 414.6>
LayerCount: 2
Fore
SplineSet
670.4875 0 m 1
 48.5125 0 l 1
 48.5125 84.0075 l 1
 302.5625 731.0078125 l 1
 406.4375 731.0078125 l 1
 670.4875 84.0075 l 1
 670.4875 0 l 1
557.74875 94.0075 m 1
 355.393554688 614.900976562 l 1
 161.25125 94.0075 l 1
 557.74875 94.0075 l 1
EndSplineSet
EndChar

StartChar: plusminus
Encoding: 177 177 117
Width: 450
Flags: W
HStem: 155.161 69.8425<30 420> 349.079 76.33<30 420>
VStem: 186.835 76.33<160.161 558.649>
LayerCount: 2
Fore
SplineSet
420 155.16125 m 1
 30 155.16125 l 1
 30 225.00375 l 1
 420 225.00375 l 1
 420 155.16125 l 1
186.835 160.16125 m 1
 186.835 558.64875 l 1
 263.165 558.64875 l 1
 263.165 160.16125 l 1
 186.835 160.16125 l 1
420 349.07875 m 1
 30 349.07875 l 1
 30 425.40875 l 1
 420 425.40875 l 1
 420 349.07875 l 1
EndSplineSet
EndChar

StartChar: degree
Encoding: 176 176 118
Width: 431
Flags: W
HStem: 407.095 68.9639<147.78 285.125> 691.851 69.1514<147.8 285.145>
VStem: 38.5125 75.4446<510.395 657.791> 317.82 75.4446<510.395 657.791>
LayerCount: 2
Fore
SplineSet
113.957109375 584.366992188 m 0
 113.957109375 519.420297345 144.155420651 476.059179688 214.786132812 476.059179688 c 0
 286.9619382 476.059179688 317.820234375 519.420297345 317.820234375 584.366992188 c 0
 317.820234375 648.819901307 286.999214259 691.850585938 214.909179688 691.850585938 c 0
 144.192701758 691.850585938 113.957109375 648.819901307 113.957109375 584.366992188 c 0
38.5125 584.142382812 m 0
 38.5125 691.159788986 105.249480807 761.001953125 214.888671875 761.001953125 c 0
 325.771029776 761.001953125 393.26484375 691.159788986 393.26484375 584.142382812 c 0
 393.26484375 477.012146789 325.771029776 407.0953125 214.888671875 407.0953125 c 0
 105.249480807 407.0953125 38.5125 477.012146789 38.5125 584.142382812 c 0
EndSplineSet
EndChar

StartChar: cedilla
Encoding: 184 184 120
Width: 317
VWidth: 999
Flags: W
HStem: -249.731 57.4625<49.6264 196.909> -84.595 54.8137<123.337 199.558>
VStem: 207.484 72.4913<-179.964 -91.7009>
LayerCount: 2
Fore
SplineSet
279.975 -132.75625 m 0
 279.975 -207.253008049 232.932458185 -249.73125 145.2975 -249.73125 c 0
 84.5130519454 -249.73125 36.35125 -224.62375 36.35125 -224.62375 c 1
 53.64875 -169.16125 l 1
 53.64875 -169.16125 84.0973458701 -192.26875 133.16125 -192.26875 c 0
 188.446472269 -192.26875 207.48375 -169.563212739 207.48375 -135.75625 c 0
 207.48375 -100.112658548 187.1685243 -84.595 154.16125 -84.595 c 0
 115.358802245 -84.595 101.83875 -109.24375 101.83875 -109.24375 c 1
 50.5125 -92 l 1
 72.5125 39 l 1
 137.21875 39 l 1
 122.947851562 -43.789765625 l 1
 122.947851562 -43.789765625 137.740086851 -29.78125 175.975 -29.78125 c 0
 238.946998762 -29.78125 279.975 -68.652849787 279.975 -132.75625 c 0
EndSplineSet
EndChar

StartChar: paragraph
Encoding: 182 182 121
Width: 682
Flags: W
HStem: 652.555 78.4375<395.351 506.426>
VStem: 40 355.351<398.719 608.211> 307.939 87.4125<-179.994 279.831> 506.426 87.4125<-179.994 652.555>
LayerCount: 2
Fore
SplineSet
395.351171875 -179.994140625 m 1xb0
 307.938671875 -179.994140625 l 1
 307.938671875 279.8309375 l 1xb0
 150.67375149 286.3184375 40 336.362726201 40 502.945117188 c 0xd0
 40 668.002427718 152 730.9921875 293.888671875 730.9921875 c 2
 593.838671875 730.9921875 l 1
 593.838671875 -179.994140625 l 1
 506.426171875 -179.994140625 l 1
 506.426171875 652.5546875 l 1
 395.351171875 652.5546875 l 1
 395.351171875 -179.994140625 l 1xb0
EndSplineSet
EndChar

StartChar: ordfeminine
Encoding: 170 170 122
Width: 402
Flags: W
HStem: 369.992 59.0575<115.147 239.018 308.306 380.868> 542.856 50.975<127.309 274.942> 678.286 60.7062<92.4023 237.874>
VStem: 33.5125 73.14<439.47 521.623> 259.43 69.545<445.604 486.992 590.992 657.949> 259.43 32.0825<414.273 480.695> 259.43 15.5125<542.856 593.831>
LayerCount: 2
Fore
SplineSet
259.43 494.9921875 m 1xf2
 259.43 455.119978198 224.416388889 429.0496875 173.4875 429.0496875 c 0
 126.213963414 429.0496875 106.6525 448.958074596 106.6525 480.4796875 c 0
 106.6525 529.235959673 147.545397196 542.8559375 274.9425 542.8559375 c 1
 274.9425 593.8309375 l 1xf2
 134.198553811 593.8309375 33.5125 575.519073093 33.5125 475.9921875 c 0
 33.5125 411.9921875 79.5125 369.9921875 153.5125 369.9921875 c 0
 247.309375 369.9921875 291.5125 414.2731875 291.5125 480.6946875 c 1xf4
 259.43 494.9921875 l 1xf2
259.43 590.9921875 m 2xf8
 259.43 459.9921875 l 2
 259.43 398.9921875 284.075412234 369.9921875 334.16125 369.9921875 c 0
 368.695897887 369.9921875 385.24375 384.8846875 385.24375 384.8846875 c 1
 379.24375 435.3471875 l 1
 379.24375 435.3471875 370.142828948 430.9959375 354.54125 430.9959375 c 0
 336.279642857 430.9959375 328.975 445.603654891 328.975 486.9921875 c 2
 328.975 595.9921875 l 2
 328.975 682.197861259 286.97609375 738.9921875 186 738.9921875 c 0
 109.553294644 738.9921875 57.05375 707.0459375 57.05375 707.0459375 c 1
 80.13625 648.9346875 l 1
 80.13625 648.9346875 119.188491379 678.2859375 174.5125 678.2859375 c 0
 233.406895161 678.2859375 259.43 651.534627016 259.43 590.9921875 c 2xf8
EndSplineSet
EndChar

StartChar: ordmasculine
Encoding: 186 186 123
Width: 418
Flags: W
HStem: 367.992 65.95<145.419 273.075> 673.042 65.95<145.419 272.767>
VStem: 36.5125 73.14<470.479 635.896> 308.347 73.14<470.479 635.896>
LayerCount: 2
Fore
SplineSet
109.6525 554.9921875 m 0
 109.6525 481.380701013 140.839448412 433.9421875 209 433.9421875 c 0
 278.579801588 433.9421875 308.3475 481.380701013 308.3475 554.9921875 c 0
 308.3475 624.824581867 277.160551587 673.0421875 209 673.0421875 c 0
 140.839448412 673.0421875 109.6525 624.824581867 109.6525 554.9921875 c 0
36.5125 555.9921875 m 0
 36.5125 667.025895365 102.354502688 738.9921875 209 738.9921875 c 0
 316.572849462 738.9921875 381.4875 667.025895365 381.4875 555.9921875 c 0
 381.4875 441.959400615 316.572849462 367.9921875 209 367.9921875 c 0
 102.354502688 367.9921875 36.5125 441.959400615 36.5125 555.9921875 c 0
EndSplineSet
EndChar

StartChar: arrowleft
Encoding: 8592 8592 124
Width: 550
Flags: W
HStem: 310.88 95.52<188.299 537.749> 319.475 78.33<108.674 458.124>
LayerCount: 2
Fore
SplineSet
537.749023438 310.879648438 m 1x80
 108.674023438 319.474648438 l 1
 108.674023438 397.804648438 l 1x40
 537.749023438 406.399648438 l 1
 537.749023438 310.879648438 l 1x80
116.486523438 358.638671875 m 1
 297.311132812 190.6084375 l 1
 230.481992188 123.779296875 l 1
 12.2509765625 358.638671875 l 1
 230.481992188 593.5 l 1
 297.311132812 526.66890625 l 1
 116.486523438 358.638671875 l 1
EndSplineSet
EndChar

StartChar: product
Encoding: 8719 8719 128
Width: 719
Flags: W
HStem: 642.839 88.1688<169.413 549.588>
VStem: 68.5125 100.9<-179.994 642.839> 549.588 100.9<-179.994 642.839>
LayerCount: 2
Fore
SplineSet
650.4875 731.0078125 m 1
 650.4875 -179.994140625 l 1
 549.5875 -179.994140625 l 1
 549.5875 642.8390625 l 1
 169.4125 642.8390625 l 1
 169.4125 -179.994140625 l 1
 68.5125 -179.994140625 l 1
 68.5125 731.0078125 l 1
 650.4875 731.0078125 l 1
EndSplineSet
EndChar

StartChar: summation
Encoding: 8721 8721 129
Width: 634
Flags: W
HStem: -179.994 87.52<173.495 590.487> 643.488 87.52<190.685 590.487>
LayerCount: 2
Back
SplineSet
264 585.0078125 m 5
 394 410 l 5
 394 319 l 5
 244 146 l 5
 544 146 l 5
 544 0 l 5
 55 0 l 5
 55 161 l 5
 235 358 l 5
 55 589 l 5
 55 731.0078125 l 5
 544 731.0078125 l 5
 544 585.0078125 l 5
 264 585.0078125 l 5
EndSplineSet
Fore
SplineSet
190.685 643.4878125 m 1
 418.2475 317.355 l 1
 418.2475 247.43 l 1
 173.495 -92.474140625 l 1
 590.4875 -92.474140625 l 1
 590.4875 -179.994140625 l 1
 68.5125 -179.994140625 l 1
 68.5125 -77.474140625 l 1
 325.5375 278 l 1
 68.5125 647.48 l 1
 68.5125 731.0078125 l 1
 590.4875 731.0078125 l 1
 590.4875 643.4878125 l 1
 190.685 643.4878125 l 1
EndSplineSet
EndChar

StartChar: approxequal
Encoding: 8776 8776 130
Width: 450
VWidth: 999
Flags: W
HStem: 207.538 73.4912<236.721 374.6> 256.538 72.4912<81.9781 209.002> 396.132 73.8425<237.424 371.986> 445.132 72.8425<81.3405 208.438> 489.136 20G<391.864 407.264>
LayerCount: 2
Fore
SplineSet
434.4875 262.025 m 1x80
 434.4875 262.025 382.552929688 207.5375 302.4875 207.5375 c 0x80
 224.949414062 207.5375 199.102734375 256.5375 142.4875 256.5375 c 0
 96.777355072 256.5375 59.4875 216.835 59.4875 216.835 c 1
 15.5125 279.02875 l 1
 15.5125 279.02875 69.8053575921 329.02875 140.4875 329.02875 c 0x40
 218.22588501 329.02875 250.82588501 281.02875 303.4875 281.02875 c 0
 362.184153847 281.02875 392.215 318.0825 392.215 318.0825 c 1
 434.4875 262.025 l 1x80
434.4875 453.78125 m 1
 434.4875 453.78125 382.552929688 396.1325 302.4875 396.1325 c 0x28
 224.949414062 396.1325 199.102734375 445.1325 142.4875 445.1325 c 0
 96.777355072 445.1325 59.4875 406.1325 59.4875 406.1325 c 1
 16.9175 467.975 l 1
 16.9175 467.975 71.2103575921 517.975 141.8925 517.975 c 0x10
 219.63088501 517.975 252.23088501 469.975 304.8925 469.975 c 0
 362.427326923 469.975 391.86375 509.13625 391.86375 509.13625 c 1x28
 434.4875 453.78125 l 1
EndSplineSet
EndChar

StartChar: perthousand
Encoding: 8240 8240 131
Width: 1263
Flags: W
HStem: -9.99805 73.8665<656.714 792.084 962.95 1098.32> 0 21G<190.287 291.414> 287.986 73.8655<655.778 795.182 959.869 1099.27> 367.143 73.8655<166.568 296.8> 665.126 73.8665<165.652 297.742> 711.008 20G<659.586 760.713>
VStem: 48.5125 81.9902<477.767 629.409> 334.568 79.8798<479.842 627.344> 539.513 80.9902<100.626 252.269> 830.65 94.77<95.6935 258.252> 854.513 45.935<74.4222 278.624> 1135.57 79.8798<102.701 250.204>
LayerCount: 2
Fore
SplineSet
925.42015625 176.481445312 m 0xb3d0
 925.42015625 95.6935208112 972.611796875 63.8684765625 1030.29046875 63.8684765625 c 0
 1086.7810504 63.8684765625 1135.56765625 95.6935208112 1135.56765625 176.481445312 c 0
 1135.56765625 258.252202499 1086.7810504 287.986015625 1030.29046875 287.986015625 c 0
 972.611796875 287.986015625 925.42015625 258.252202499 925.42015625 176.481445312 c 0xb3d0
854.5125 176.481445312 m 0xb3b0
 854.5125 278.623614564 921.270763673 361.8515625 1037.48046875 361.8515625 c 0
 1156.57496779 361.8515625 1215.44746094 278.623614564 1215.44746094 176.481445312 c 0
 1215.44746094 74.4221678792 1156.57496779 -9.998046875 1037.48046875 -9.998046875 c 0
 921.270763673 -9.998046875 854.5125 74.4221678792 854.5125 176.481445312 c 0xb3b0
620.50265625 176.481445312 m 0
 620.50265625 95.6932038562 667.377580617 63.8684765625 724.67046875 63.8684765625 c 0
 781.537906919 63.8684765625 830.65015625 95.6932038562 830.65015625 176.481445312 c 0xb3d0
 830.65015625 258.252032232 781.537906919 287.986015625 724.67046875 287.986015625 c 0
 667.377580617 287.986015625 620.50265625 258.252032232 620.50265625 176.481445312 c 0
539.5125 176.481445312 m 0
 539.5125 278.624023438 598.385007897 361.8515625 717.48046875 361.8515625 c 0
 833.689221768 361.8515625 900.447460938 278.623614564 900.447460938 176.481445312 c 0xb3b0
 900.447460938 74.4221678792 833.689221768 -9.998046875 717.48046875 -9.998046875 c 0
 598.385007897 -9.998046875 539.5125 74.4218750003 539.5125 176.481445312 c 0
130.50265625 553.622070312 m 0
 130.50265625 472.834143655 177.698348724 441.008125 231.48046875 441.008125 c 0
 285.039575867 441.008125 334.56765625 472.834143655 334.56765625 553.622070312 c 0
 334.56765625 635.391561961 285.039575867 665.125664062 231.48046875 665.125664062 c 0x3b90
 177.698348724 665.125664062 130.50265625 635.391561961 130.50265625 553.622070312 c 0
48.5125 553.622070312 m 0
 48.5125 655.764648438 115.27095371 738.9921875 231.48046875 738.9921875 c 0
 347.689013939 738.9921875 414.447460938 655.764648438 414.447460938 553.622070312 c 0
 414.447460938 451.5625 347.689013939 367.142578125 231.48046875 367.142578125 c 0
 115.27095371 367.142578125 48.5125 451.5625 48.5125 553.622070312 c 0
EndSplineSet
Refer: 138 8260 N 1 0 0 1 301 0 2
EndChar

StartChar: uni2031
Encoding: 8241 8241 132
Width: 1573
Flags: W
HStem: -9.99805 73.8665<656.714 792.084 965.12 1099.91 1272.95 1408.32> 0 21G<190.287 291.414> 287.986 73.8655<655.778 795.182 964.177 1103.11 1269.87 1409.27> 367.143 73.8655<166.497 296.872> 665.126 73.8665<165.583 297.812> 711.008 20G<659.586 760.713>
VStem: 48.5125 81.9902<477.767 629.409> 334.568 79.8798<479.842 629.409> 539.513 80.9902<100.626 252.269> 830.65 96.96<95.6935 258.252> 851.62 48.8275<74.4222 278.624> 1138.46 96.96<95.6935 258.252> 1164.51 48.8275<74.4222 278.624> 1445.57 79.8798<102.701 250.204>
LayerCount: 2
Fore
SplineSet
1235.42015625 176.481445312 m 0xb394
 1235.42015625 95.6935208112 1282.61179688 63.8684765625 1340.29046875 63.8684765625 c 0
 1396.7810504 63.8684765625 1445.56765625 95.6935208112 1445.56765625 176.481445312 c 0
 1445.56765625 258.252202499 1396.7810504 287.986015625 1340.29046875 287.986015625 c 0
 1282.61179688 287.986015625 1235.42015625 258.252202499 1235.42015625 176.481445312 c 0xb394
1164.5125 176.481445312 m 0xb38c
 1164.5125 278.623614564 1231.27076367 361.8515625 1347.48046875 361.8515625 c 0
 1466.57496779 361.8515625 1525.44746094 278.623614564 1525.44746094 176.481445312 c 0
 1525.44746094 74.4221678792 1466.57496779 -9.998046875 1347.48046875 -9.998046875 c 0
 1231.27076367 -9.998046875 1164.5125 74.4221678792 1164.5125 176.481445312 c 0xb38c
927.61015625 176.481445312 m 0xb3d4
 927.61015625 95.6935208112 974.801796875 63.8684765625 1032.48046875 63.8684765625 c 0
 1089.34800418 63.8684765625 1138.46015625 95.6935208112 1138.46015625 176.481445312 c 0
 1138.46015625 258.252202499 1089.34800418 287.986015625 1032.48046875 287.986015625 c 0
 974.801796875 287.986015625 927.61015625 258.252202499 927.61015625 176.481445312 c 0xb3d4
851.62 176.481445312 m 0xb3ac
 851.62 278.623614564 911.449358336 361.8515625 1032.48046875 361.8515625 c 0
 1153.51061234 361.8515625 1213.33996094 278.623614564 1213.33996094 176.481445312 c 0
 1213.33996094 74.4221678792 1153.51061234 -9.998046875 1032.48046875 -9.998046875 c 0
 911.449358336 -9.998046875 851.62 74.4221678792 851.62 176.481445312 c 0xb3ac
620.50265625 176.481445312 m 0
 620.50265625 95.6932038562 667.377580617 63.8684765625 724.67046875 63.8684765625 c 0
 781.537906919 63.8684765625 830.65015625 95.6932038562 830.65015625 176.481445312 c 0xb3c4
 830.65015625 258.252032232 781.537906919 287.986015625 724.67046875 287.986015625 c 0
 667.377580617 287.986015625 620.50265625 258.252032232 620.50265625 176.481445312 c 0
539.5125 176.481445312 m 0
 539.5125 278.624023438 598.385007897 361.8515625 717.48046875 361.8515625 c 0
 833.689221768 361.8515625 900.447460938 278.623614564 900.447460938 176.481445312 c 0xb3a4
 900.447460938 74.4221678792 833.689221768 -9.998046875 717.48046875 -9.998046875 c 0
 598.385007897 -9.998046875 539.5125 74.4218750003 539.5125 176.481445312 c 0
130.50265625 553.622070312 m 0
 130.50265625 472.834143655 177.347098724 441.008125 231.48046875 441.008125 c 0
 285.390825867 441.008125 334.56765625 472.834143655 334.56765625 553.622070312 c 0
 334.56765625 635.391561961 285.390825867 665.125664062 231.48046875 665.125664062 c 0x3b84
 177.347098724 665.125664062 130.50265625 635.391561961 130.50265625 553.622070312 c 0
48.5125 553.622070312 m 0
 48.5125 655.764648438 115.27095371 738.9921875 231.48046875 738.9921875 c 0
 347.689013939 738.9921875 414.447460938 655.764648438 414.447460938 553.622070312 c 0
 414.447460938 451.5625 347.689013939 367.142578125 231.48046875 367.142578125 c 0
 115.27095371 367.142578125 48.5125 451.5625 48.5125 553.622070312 c 0
EndSplineSet
Refer: 138 8260 N 1 0 0 1 301 0 2
EndChar

StartChar: uni203D
Encoding: 8253 8253 133
Width: 566
Flags: W
HStem: -10 125.374<189.026 286.974> 292 80.0276<247.821 362.4> 652.114 86.8787<121.442 345.946>
VStem: 175.924 124.152<3.23067 102.143> 191.942 94.115<465.318 791.008> 204.43 69.14<210 535.69> 422.683 95.6744<428.755 584.063>
LayerCount: 2
Fore
SplineSet
204.43 210 m 1xe6
 191.9425 791.0078125 l 1
 286.0575 791.0078125 l 1xea
 273.57 210 l 1
 204.43 210 l 1xe6
175.92421875 52.687109375 m 0xf2
 175.92421875 90.6636959687 200.392825792 115.37421875 237.999023438 115.37421875 c 0
 275.606265794 115.37421875 300.07578125 90.6636959687 300.07578125 52.687109375 c 0
 300.07578125 14.7098661108 275.606265794 -10 237.999023438 -10 c 0
 200.392825792 -10 175.92421875 14.7098661108 175.92421875 52.687109375 c 0xf2
215.935351562 305 m 1
 227.66875 378.555 l 1
 227.66875 378.555 245.532693259 372.027578125 267.9609375 372.027578125 c 0
 364.451644629 372.027578125 422.683203125 417.8020504 422.683203125 503.145507812 c 0
 422.683203125 606.460258645 351.005736455 652.113515625 232.35328125 652.113515625 c 0
 133.512665189 652.113515625 57.655078125 598.545507812 57.655078125 598.545507812 c 1
 23.7537109375 685.311523438 l 1
 23.7537109375 685.311523438 103.1778125 738.9921875 233.40703125 738.9921875 c 0
 404.312140248 738.9921875 518.357617188 661.327703299 518.357617188 505.010742188 c 0
 518.357617188 357.985517121 394.205093594 292 285.025 292 c 0
 239.786753736 292 215.935351562 305 215.935351562 305 c 1
EndSplineSet
EndChar

StartChar: lira
Encoding: 8356 8356 134
Width: 553
Flags: W
HStem: 0 86.8713<152.219 523> 222.025 71.95<60 424> 352.025 71.95<60 424> 650.452 89.0096<224.675 439.487>
VStem: 72.8641 105.879<442.965 606.828> 150.337 93.0697<200.81 351.349>
LayerCount: 2
Fore
SplineSet
523 0 m 1xf4
 30 0 l 1
 30 82.87125 l 1
 30 82.87125 150.33671875 167.447858357 150.33671875 289.379882812 c 0xf4
 150.33671875 391.588284089 72.8640625 418.16779209 72.8640625 547.185546875 c 0
 72.8640625 671.398535433 170.323618297 739.461914062 309.29609375 739.461914062 c 0
 438.6579466 739.461914062 496.44453125 699.190273438 496.44453125 699.190273438 c 1
 474.9375 613.586914062 l 1
 474.9375 613.586914062 404.546490392 650.45234375 327.27109375 650.45234375 c 0
 245.019528339 650.45234375 178.742578125 629.260681504 178.742578125 531.635838623 c 0xf8
 178.742578125 432.799375057 243.406445312 407.409707551 243.406445312 290.158203125 c 0
 243.406445312 164.192194398 152.219335938 86.87125 152.219335938 86.87125 c 1
 523 86.87125 l 1
 523 0 l 1xf4
424 222.025 m 1
 60 222.025 l 1
 60 293.975 l 1
 424 293.975 l 1
 424 222.025 l 1
424 352.025 m 1
 60 352.025 l 1
 60 423.975 l 1
 424 423.975 l 1
 424 352.025 l 1
EndSplineSet
EndChar

StartChar: uni20B5
Encoding: 8373 8373 135
Width: 623
Flags: W
HStem: -9.99805 54.8803<333.781 415.219> 679.588 59.5336<333.781 415.219>
VStem: 48.5125 98.1945<228.462 500.996> 333.781 81.4375<-105 44.8822 679.588 829.47>
LayerCount: 2
Fore
SplineSet
48.5125 364.561523438 m 0
 48.5125 591.206054688 170.711092852 739.12109375 385.888671875 739.12109375 c 0
 534.908629969 739.12109375 596.169140625 672.891601562 596.169140625 672.891601562 c 1
 554.67796875 597.618671875 l 1
 554.67796875 597.618671875 500.311181786 650.544179688 390.078671875 650.544179688 c 0
 219.595918921 650.544179688 146.70703125 536.052028976 146.70703125 364.561523438 c 0
 146.70703125 193.913531086 220.016711117 79.9838671878 391.483671875 79.9838671878 c 0
 507.881703329 79.9838671878 569.531054688 125.413203125 569.531054688 125.413203125 c 1
 599.314648438 44.595703125 l 1
 599.314648438 44.595703125 534.121754156 -9.998046875 385.888671875 -9.998046875 c 0
 170.711092852 -9.998046875 48.5125 137.916992188 48.5125 364.561523438 c 0
333.78125 -105 m 1
 333.78125 44.8822265625 l 1
 415.21875 44.8822265625 l 1
 415.21875 -105 l 1
 333.78125 -105 l 1
333.78125 679.5875 m 1
 333.78125 829.469726562 l 1
 415.21875 829.469726562 l 1
 415.21875 679.5875 l 1
 333.78125 679.5875 l 1
EndSplineSet
EndChar

StartChar: uni20B2
Encoding: 8370 8370 136
Width: 739
Flags: W
HStem: -9.99805 59.4465<333.781 415.219> 307.538 84.8712<386 522.176 613.802 704> 307.538 27.5957<522.176 613.802> 674.319 64.8023<333.781 415.219>
VStem: 48.5125 98.1945<217.812 503.329> 333.781 81.4375<-105 49.4485 674.319 829.47> 548.259 94.711<146.406 306.328>
LayerCount: 2
Fore
SplineSet
333.78125 -105 m 1x9e
 333.78125 49.4484765625 l 1
 415.21875 49.4484765625 l 1
 415.21875 -105 l 1
 333.78125 -105 l 1x9e
333.78125 674.31875 m 1
 333.78125 829.469726562 l 1
 415.21875 829.469726562 l 1
 415.21875 674.31875 l 1
 333.78125 674.31875 l 1
704 307.5375 m 1xde
 386 307.5375 l 1
 386 392.40875 l 1
 704 392.40875 l 1
 704 307.5375 l 1xde
48.5125 364.561523438 m 0
 48.5125 591.206054688 173.520490944 739.12109375 378.888671875 739.12109375 c 0
 525.782364483 739.12109375 586.169140625 672.891601562 586.169140625 672.891601562 c 1
 550.86796875 595.672421875 l 1
 550.86796875 595.672421875 493.845237632 647.543945313 378.227539062 647.543945313 c 0
 220.185274877 647.543945313 146.70703125 534.252927882 146.70703125 364.561523438 c 0
 146.70703125 193.492274491 210.710954616 79.2813671878 369.888671875 79.2813671878 c 0
 497.277632569 79.2813671878 548.258945312 139.50344325 548.258945312 229.8925 c 0
 548.258945312 303.498163523 522.176054688 335.133203125 522.176054688 335.133203125 c 1
 613.802148438 335.133203125 l 1xbe
 613.802148438 335.133203125 642.969921875 308.634576116 642.969921875 222 c 0
 642.969921875 93.0859042083 555.082770668 -9.998046875 369.888671875 -9.998046875 c 0
 165.18796412 -9.998046875 48.5125 137.916992188 48.5125 364.561523438 c 0
EndSplineSet
EndChar

StartChar: uni20BA
Encoding: 8378 8378 137
Width: 648
Flags: W
HStem: 0 89.925<209.413 399.061> 711.008 20G<108.512 209.413>
VStem: 108.512 100.9<89.925 731.008>
LayerCount: 2
Fore
SplineSet
360.4875 356.3225 m 1
 43.5125 256.3225 l 1
 43.5125 329.6775 l 1
 360.4875 429.6775 l 1
 360.4875 356.3225 l 1
360.4875 486.3225 m 1
 43.5125 386.3225 l 1
 43.5125 459.6775 l 1
 360.4875 559.6775 l 1
 360.4875 486.3225 l 1
209.4125 89.925 m 1
 300 89.925 l 2
 513.081385869 89.925 516.02125 300.95 516.02125 300.95 c 1
 615.4875 287.4625 l 1
 615.4875 287.4625 605.477472007 -3.58832061287e-14 300 0 c 2
 108.5125 0 l 1
 108.5125 731.0078125 l 1
 209.4125 731.0078125 l 1
 209.4125 89.925 l 1
EndSplineSet
EndChar

StartChar: fraction
Encoding: 8260 8260 138
Width: 304
Flags: W
HStem: 0 21G<-110.713 -9.5864> 711.008 20G<358.586 459.713>
LayerCount: 2
Fore
SplineSet
-110.712646484 0 m 1
 371.787353516 731.0078125 l 1
 459.712646484 731.0078125 l 1
 -22.7873535156 0 l 1
 -110.712646484 0 l 1
EndSplineSet
EndChar

StartChar: endash
Encoding: 8211 8211 139
Width: 570
Flags: W
HStem: 238.538 81.925<43.5125 526.487>
LayerCount: 2
Fore
SplineSet
43.5125 238.5375 m 1
 43.5125 320.4625 l 1
 526.4875 320.4625 l 1
 526.4875 238.5375 l 1
 43.5125 238.5375 l 1
EndSplineSet
EndChar

StartChar: emdash
Encoding: 8212 8212 140
Width: 820
Flags: W
HStem: 238.538 81.925<23.5125 796.487>
LayerCount: 2
Fore
SplineSet
23.5125 238.5375 m 1
 23.5125 320.4625 l 1
 796.4875 320.4625 l 1
 796.4875 238.5375 l 1
 23.5125 238.5375 l 1
EndSplineSet
EndChar

StartChar: Euro
Encoding: 8364 8364 141
Width: 683
Flags: W
HStem: -9.99805 88.5769<344.072 583.142> 267.025 71.95<40 433.903> 397.025 71.95<40 460.338> 651.949 87.1721<335.23 560.678>
VStem: 108.512 96.4384<285.975 451.743>
LayerCount: 2
Fore
SplineSet
433.90328125 267.025 m 1
 40 267.025 l 1
 40 338.975 l 1
 449.06734375 338.975 l 1
 433.90328125 267.025 l 1
460.33765625 397.025 m 1
 40 397.025 l 1
 40 468.975 l 1
 475.50171875 468.975 l 1
 460.33765625 397.025 l 1
108.5125 364.561523438 m 0
 108.5125 591.206054688 230.711011415 739.12109375 445.888671875 739.12109375 c 0
 594.908255495 739.12109375 656.169140625 672.891601562 656.169140625 672.891601562 c 1
 614.67796875 599.023671875 l 1
 614.67796875 599.023671875 558.065514588 651.94897461 443.281494141 651.94897461 c 0
 276.329650133 651.94897461 204.950927734 536.894419191 204.950927734 364.561523438 c 0
 204.950927734 193.071017895 281.360314494 78.5788671878 460.078671875 78.5788671878 c 0
 570.857488752 78.5788671878 629.531054688 124.008203125 629.531054688 124.008203125 c 1
 659.314648438 44.595703125 l 1
 659.314648438 44.595703125 594.121945178 -9.998046875 445.888671875 -9.998046875 c 0
 230.711011415 -9.998046875 108.5125 137.916992188 108.5125 364.561523438 c 0
EndSplineSet
EndChar

StartChar: uni20AD
Encoding: 8365 8365 142
Width: 665
Flags: W
HStem: 0 21G<104.512 205.413 495.679 641.487> 314.484 82.0325<23.5125 600.487> 711.008 20G<104.512 205.413 493.834 631.487>
VStem: 104.512 100.9<0 731.008>
LayerCount: 2
Fore
SplineSet
600.4875 314.48375 m 1
 23.5125 314.48375 l 1
 23.5125 396.51625 l 1
 600.4875 396.51625 l 1
 600.4875 314.48375 l 1
513.15375 0 m 1
 233.12875 320.48375 l 1
 233.12875 391.51625 l 1
 510.15375 731.0078125 l 1
 631.4875 731.0078125 l 1
 321 368.13625 l 1
 641.4875 0 l 1
 513.15375 0 l 1
104.5125 0 m 1
 104.5125 731.0078125 l 1
 205.4125 731.0078125 l 1
 205.4125 0 l 1
 104.5125 0 l 1
EndSplineSet
EndChar

StartChar: uni20B9
Encoding: 8377 8377 143
Width: 574
Flags: W
HStem: 0 21G<384.073 495> 282.538 89.9253<43.5125 280.363> 457.025 71.95<43.5125 530.487> 641.832 89.1759<43.5125 286.639>
VStem: 354.029 101.749<395.403 584.406>
LayerCount: 2
Fore
SplineSet
165.075 282.5375 m 2
 43.5125 282.5375 l 1
 43.5125 372.4628125 l 1
 166.888671875 372.573164062 l 2
 273.746776931 372.666480836 354.028710938 396.354305828 354.028710938 504.830273438 c 0
 354.028710938 616.131781998 273.546271692 641.642384471 167.888671875 641.728398438 c 2
 43.5125 641.831914062 l 1
 43.5125 731.0078125 l 1
 183.888671875 731.0078125 l 2
 326.745750968 731.0078125 455.77734375 670.291593489 455.77734375 508.074023438 c 0
 455.77734375 364.698676358 328.663476562 329.520117188 328.663476562 329.520117188 c 1
 328.663476562 329.520117188 395.04291962 316.462184812 430.437834472 206.137435302 c 2
 495 0 l 1
 390.1 0 l 1
 345.433413086 148.220266113 l 2
 310.643886861 257.955746586 288.743263296 282.5375 165.075 282.5375 c 2
530.4875 457.025 m 1
 43.5125 457.025 l 1
 43.5125 528.975 l 1
 530.4875 528.975 l 1
 530.4875 457.025 l 1
EndSplineSet
EndChar

StartChar: uni20B4
Encoding: 8372 8372 144
Width: 677
Flags: W
HStem: -10 89.6307<248.828 491.872> 262.025 71.95<43.5125 633.487> 392.025 71.95<43.5125 633.487> 648.49 90.6307<192.699 418.271>
VStem: 93.5125 98.2429<128.077 259.669> 472.169 101.212<473.871 600.316>
LayerCount: 2
Fore
SplineSet
633.4875 262.025 m 1
 43.5125 262.025 l 1
 43.5125 333.975 l 1
 633.4875 333.975 l 1
 633.4875 262.025 l 1
633.4875 392.025 m 1
 43.5125 392.025 l 1
 43.5125 463.975 l 1
 633.4875 463.975 l 1
 633.4875 392.025 l 1
354.841445312 323.00375 m 0
 212.070517722 285.905215022 191.755390625 253.542844112 191.755390625 191.54125 c 0
 191.755390625 117.482217234 252.127111738 79.6306640622 369.149492188 79.6306640622 c 0
 473.060677929 79.6306640622 556.546875 128.799921875 556.546875 128.799921875 c 1
 586.678125 42.2294921875 l 1
 586.678125 42.2294921875 493.654138397 -10 346.22734375 -10 c 0
 181.496648816 -10 93.5125 70.7423203477 93.5125 201.13625 c 0
 93.5125 308.927667575 149.626415624 362.999871961 312.576210938 409.733554688 c 0
 437.916854942 445.14951829 472.168554688 471.323531585 472.168554688 535.81 c 0
 472.168554688 607.116421321 420.411581589 648.490429688 305.3175 648.490429688 c 0
 212.032570978 648.490429688 148.7434375 605.969921875 148.7434375 605.969921875 c 1
 114.799414062 688.891601562 l 1
 114.799414062 688.891601562 181.053054024 739.12109375 317.286132812 739.12109375 c 0
 476.479265252 739.12109375 573.380078125 656.296191599 573.380078125 527.67375 c 0
 573.380078125 426.248247825 517.419570267 365.274078074 354.841445312 323.00375 c 0
EndSplineSet
EndChar

StartChar: colonmonetary
Encoding: 8353 8353 145
Width: 623
Flags: W
HStem: -9.99805 58.3928<333.915 405.353> 651.949 87.1721<325.944 434.255> 676.075 63.0461<287.16 358.597 437.16 437.709>
VStem: 48.5125 98.1945<228.127 504.425> 153.152 71.4375<-105 -70.8207> 303.152 71.4375<-105 -70.0964> 317.923 71.4375<794.566 829.47> 358.597 78.5625<676.075 710.979> 467.923 71.4375<794.566 829.47>
LayerCount: 2
Fore
SplineSet
303.151757812 -105 m 1x9c80
 333.915429688 48.3947265625 l 1
 405.352929688 48.3947265625 l 1
 374.589257812 -105 l 1
 303.151757812 -105 l 1x9c80
437.159570312 676.075 m 1xb980
 467.923242188 829.469726562 l 1
 539.360742188 829.469726562 l 1
 508.597070312 676.075 l 1
 437.159570312 676.075 l 1xb980
48.5125 364.561523438 m 0
 48.5125 591.206054688 170.711092852 739.12109375 385.888671875 739.12109375 c 0
 534.908629969 739.12109375 596.169140625 672.891601562 596.169140625 672.891601562 c 1
 554.67796875 599.023671875 l 1
 554.67796875 599.023671875 497.833928873 651.94897461 382.578613281 651.94897461 c 0xd880
 217.349679684 651.94897461 146.70703125 536.894419191 146.70703125 364.561523438 c 0
 146.70703125 193.071017895 222.380485074 78.5788671878 399.376171875 78.5788671878 c 0
 510.155243564 78.5788671878 568.828554688 125.413203125 568.828554688 125.413203125 c 1
 599.314648438 44.595703125 l 1
 599.314648438 44.595703125 534.121754156 -9.998046875 385.888671875 -9.998046875 c 0
 170.711092852 -9.998046875 48.5125 137.916992188 48.5125 364.561523438 c 0
153.151757812 -105 m 1
 186.725429688 58.9322265625 l 1
 258.162929688 58.9322265625 l 1
 224.589257812 -105 l 1
 153.151757812 -105 l 1
287.159570312 676.075 m 1xb980
 317.923242188 829.469726562 l 1
 389.360742188 829.469726562 l 1xba80
 358.597070312 676.075 l 1
 287.159570312 676.075 l 1xb980
EndSplineSet
EndChar

StartChar: zero.inferior
Encoding: 8320 8320 148
Width: 454
Flags: W
HStem: -358 69.9844<161.842 294.128> 73.625 69.375<161.842 294.128>
VStem: 30.707 75.0781<-222.51 7.29079> 350.027 75.0781<-222.51 7.29079>
LayerCount: 2
Fore
SplineSet
105.78515625 -107.390625 m 0
 105.78515625 -215.79296875 142.6796875 -288.015625 228 -288.015625 c 0
 313.3203125 -288.015625 350.02734375 -215.79296875 350.02734375 -107.390625 c 0
 350.02734375 1.01171875 313.3203125 73.625 228 73.625 c 0
 142.6796875 73.625 105.78515625 1.01171875 105.78515625 -107.390625 c 0
30.70703125 -108 m 0
 30.70703125 44 98.85546875 143 228 143 c 0
 357.14453125 143 425.10546875 44 425.10546875 -108 c 0
 425.10546875 -260 357.14453125 -358 228 -358 c 0
 98.85546875 -358 30.70703125 -260 30.70703125 -108 c 0
EndSplineSet
EndChar

StartChar: one.inferior
Encoding: 8321 8321 149
Width: 276
Flags: W
VStem: 151.867 78.7031<-350 50.6797>
LayerCount: 2
Fore
SplineSet
230.5703125 137 m 1
 230.5703125 -350 l 1
 151.8671875 -350 l 1
 151.8671875 50.6796875 l 1
 45.296875 -5.5390625 l 1
 17.9609375 51.421875 l 1
 163.22265625 137 l 1
 230.5703125 137 l 1
EndSplineSet
EndChar

StartChar: two.inferior
Encoding: 8322 8322 150
Width: 404
Flags: W
HStem: -350 68.375<117.844 379.602> 74.1211 68.8789<98.7976 269.52>
VStem: 35.0469 82.7969<-281.625 -232.696> 295.844 76.8359<-59.2786 48.2418>
LayerCount: 2
Fore
SplineSet
295.84375 -6.4296875 m 0
 295.84375 39.4375 268.4453125 74.12109375 189.75390625 74.12109375 c 0
 122.13671875 74.12109375 73.79296875 37.8984375 73.79296875 37.8984375 c 1
 48.5390625 101.5625 l 1
 48.5390625 101.5625 106.91015625 143 192.921875 143 c 0
 305.078125 143 372.6796875 92.90234375 372.6796875 -6.0234375 c 0
 372.6796875 -92.2578125 315.48046875 -128.6796875 233.4921875 -169.8203125 c 0
 128.23046875 -222 118.5546875 -253.390625 117.84375 -281.625 c 1
 379.6015625 -281.625 l 1
 379.6015625 -350 l 1
 35.046875 -350 l 1
 35.046875 -314 l 2
 35.046875 -215.38671875 97.76953125 -159.2734375 209.44140625 -102.89453125 c 0
 264.18359375 -75.96875 295.84375 -49.85546875 295.84375 -6.4296875 c 0
EndSplineSet
EndChar

StartChar: three.inferior
Encoding: 8323 8323 151
Width: 389
Flags: W
HStem: -358 67.4766<59.055 252.786> -134.113 64.2266<109.609 254.635> 73.0859 69.9141<66.4435 249.797>
VStem: 271.949 77.8008<-51.0468 49.8913> 280.188 79.7148<-263.779 -158.339>
LayerCount: 2
Fore
SplineSet
173.89453125 -69.88671875 m 2xe8
 244.4296875 -69.88671875 271.94921875 -46.91015625 271.94921875 -0.3125 c 0
 271.94921875 41.7109375 247.00390625 73.0859375 167.0703125 73.0859375 c 0
 92.609375 73.0859375 48.2890625 41.57421875 48.2890625 41.57421875 c 1
 26.40234375 106.1171875 l 1
 26.40234375 106.1171875 79.14453125 143 171.33984375 143 c 0
 282.31640625 143 349.75 95.984375 349.75 6.546875 c 0xf0
 349.75 -77.3125 271.8828125 -100.375 271.8828125 -100.375 c 1
 271.8828125 -100.375 359.90234375 -121.875 359.90234375 -215.734375 c 0
 359.90234375 -316.625 283.85546875 -358 169.1171875 -358 c 0
 71.56640625 -358 13.234375 -323.609375 13.234375 -323.609375 c 1
 34.984375 -256.33984375 l 1
 34.984375 -256.33984375 84.94921875 -290.5234375 164.4453125 -290.5234375 c 0
 244.03515625 -290.5234375 280.1875 -262.52734375 280.1875 -212.3515625 c 0
 280.1875 -159.4609375 243.25390625 -134.11328125 173.28515625 -134.11328125 c 2
 109.40625 -134.11328125 l 1
 109.609375 -69.88671875 l 1
 173.89453125 -69.88671875 l 2xe8
EndSplineSet
EndChar

StartChar: four.inferior
Encoding: 8324 8324 152
Width: 439
Flags: W
HStem: -227.996 65.4453<118.336 411.391>
VStem: 264.422 74.9414<-350 24.5703>
LayerCount: 2
Fore
SplineSet
339.36328125 137 m 1
 339.36328125 -350 l 1
 264.421875 -350 l 1
 264.421875 24.5703125 l 1
 118.3359375 -162.55078125 l 1
 411.390625 -162.55078125 l 1
 411.390625 -227.99609375 l 1
 46.03125 -227.99609375 l 1
 31.07421875 -170.328125 l 1
 266.03125 137 l 1
 339.36328125 137 l 1
EndSplineSet
EndChar

StartChar: five.inferior
Encoding: 8325 8325 153
Width: 410
Flags: W
HStem: -357 69.4727<65.2585 265.719> -94.3672 63.3945<136.575 275.595> 69.4219 67.5781<134.148 343.156>
VStem: 304.5 76.5312<-251.021 -123.444>
LayerCount: 2
Fore
SplineSet
184.84375 -357 m 0
 80.24609375 -357 18.26953125 -322.6953125 18.26953125 -322.6953125 c 1
 40.78125 -254.71484375 l 1
 40.78125 -254.71484375 100.203125 -287.52734375 176.859375 -287.52734375 c 0
 267.9921875 -287.52734375 304.5 -249.6796875 304.5 -187.8203125 c 0
 304.5 -129.11328125 271.51953125 -94.3671875 205.62890625 -94.3671875 c 0
 135.05859375 -94.3671875 111.91796875 -143.28125 111.91796875 -143.28125 c 1
 46.55078125 -126.953125 l 1
 73.921875 137 l 1
 343.15625 137 l 1
 343.15625 69.421875 l 1
 134.1484375 69.421875 l 1
 120.19140625 -64.94140625 l 1
 120.19140625 -64.94140625 144.08203125 -30.97265625 222.75390625 -30.97265625 c 0
 323.046875 -30.97265625 381.03125 -89.109375 381.03125 -186.46484375 c 0
 381.03125 -292.359375 312.69140625 -357 184.84375 -357 c 0
EndSplineSet
EndChar

StartChar: six.inferior
Encoding: 8326 8326 154
Width: 426
Flags: W
HStem: -358 67.582<148.631 291.678> -94.582 61.9219<147.797 292.618> 74.6602 68.3398<163.191 341.793>
VStem: 30.707 71.4492<-92.5 5.73803> 324.535 71.707<-258.67 -126.083>
LayerCount: 2
Fore
SplineSet
116.08984375 -192 m 0
 116.08984375 -248.484375 148.34765625 -290.41796875 220.4921875 -290.41796875 c 0
 293.40234375 -290.41796875 324.53515625 -248.484375 324.53515625 -192 c 0
 324.53515625 -135.515625 294.38671875 -94.58203125 220.4921875 -94.58203125 c 0
 148.34765625 -94.58203125 116.08984375 -135.515625 116.08984375 -192 c 0
102.15625 -92.5 m 1
 102.15625 -92.5 128.30078125 -32.66015625 230.72265625 -32.66015625 c 0
 332.3828125 -32.66015625 396.2421875 -97.3046875 396.2421875 -191 c 0
 396.2421875 -298 329.94140625 -358 221 -358 c 0
 99.984375 -358 30.70703125 -285 30.70703125 -107 c 0
 30.70703125 54 104.6171875 143 237.77734375 143 c 0
 333.8203125 143 383.0703125 103.359375 383.0703125 103.359375 c 1
 358.8828125 42.84765625 l 1
 358.8828125 42.84765625 317.5078125 74.66015625 242.70703125 74.66015625 c 0
 152.73046875 74.66015625 105.40625 21.26953125 102.15625 -92.5 c 1
EndSplineSet
EndChar

StartChar: seven.inferior
Encoding: 8327 8327 155
Width: 402
Flags: W
HStem: 68.7266 68.2734<32.3633 284.277>
VStem: 123.336 78.5156<-350 -213.236>
LayerCount: 2
Fore
SplineSet
201.8515625 -350 m 1
 123.3359375 -350 l 1
 131.26953125 -112.37109375 284.27734375 68.7265625 284.27734375 68.7265625 c 1
 32.36328125 68.7265625 l 1
 32.36328125 137 l 1
 369.83984375 137 l 1
 369.83984375 77.87109375 l 1
 369.83984375 77.87109375 204.0390625 -104.75 201.8515625 -350 c 1
EndSplineSet
EndChar

StartChar: eight.inferior
Encoding: 8328 8328 156
Width: 441
Flags: W
HStem: -358 64.125<136.825 305.052> -125.859 59.0234<162.957 282.328> -109.266 31.1211<113.043 332.004> 78.3164 64.6836<150.113 296.836>
VStem: 30.8945 74.0938<-264.152 -155.951> 55.082 71.0625<-43.1081 54.6941> 319.902 71.0625<-43.1081 54.6941> 337.262 74.0938<-263.37 -156.728>
LayerCount: 2
Fore
SplineSet
221.7109375 -66.8359375 m 0xd6
 282.328125 -66.8359375 319.90234375 -38.92578125 319.90234375 4.75390625 c 0
 319.90234375 50.9296875 284.07421875 78.31640625 221.5234375 78.31640625 c 0
 161.76953125 78.31640625 126.14453125 50.9296875 126.14453125 4.75390625 c 0
 126.14453125 -38.92578125 162.95703125 -66.8359375 221.7109375 -66.8359375 c 0xd6
221.5234375 143 m 0
 327.19140625 143 390.96484375 93.1875 390.96484375 12 c 0
 390.96484375 -65.515625 332.00390625 -109.265625 221.5234375 -109.265625 c 0xb6
 113.04296875 -109.265625 55.08203125 -65.515625 55.08203125 12 c 0
 55.08203125 93.1875 117.85546875 143 221.5234375 143 c 0
220.7265625 -293.875 m 0
 293.5625 -293.875 337.26171875 -263.76171875 337.26171875 -209.1484375 c 0
 337.26171875 -158.14453125 293.5625 -125.859375 220.7265625 -125.859375 c 0
 147.890625 -125.859375 104.98828125 -158.14453125 104.98828125 -209.1484375 c 0xd9
 104.98828125 -263.76171875 147.890625 -293.875 220.7265625 -293.875 c 0
220.9140625 -78.14453125 m 0xb9
 343.6328125 -78.14453125 411.35546875 -127.04296875 411.35546875 -214.484375 c 0
 411.35546875 -301.5625 336.58203125 -358 220.9140625 -358 c 0
 105.24609375 -358 30.89453125 -301.5625 30.89453125 -214.484375 c 0
 30.89453125 -127.04296875 98.1953125 -78.14453125 220.9140625 -78.14453125 c 0xb9
EndSplineSet
EndChar

StartChar: nine.inferior
Encoding: 8329 8329 157
Width: 426
Flags: W
HStem: -358 68.1367<85.6416 263.521> -182.898 62.1602<134.524 278.93> 74.9102 68.0898<135.744 278.681>
VStem: 30.707 72.4688<-89.0795 43.5376> 323.371 72.7188<-220.738 -122.738>
LayerCount: 2
Fore
SplineSet
311.46875 -23.3046875 m 0
 311.46875 33.1796875 279.36328125 74.91015625 207.21875 74.91015625 c 0
 134.6484375 74.91015625 103.17578125 33.1796875 103.17578125 -23.3046875 c 0
 103.17578125 -79.6015625 133.4765625 -120.73828125 207.21875 -120.73828125 c 0
 279.36328125 -120.73828125 311.46875 -79.6015625 311.46875 -23.3046875 c 0
323.37109375 -122.73828125 m 1
 323.37109375 -122.73828125 297.4296875 -182.8984375 195.515625 -182.8984375 c 0
 94.3125 -182.8984375 30.70703125 -117.84765625 30.70703125 -23.84765625 c 0
 30.70703125 83.15234375 97.05859375 143 206 143 c 0
 327.015625 143 396.08984375 70 396.08984375 -108 c 0
 396.08984375 -269 322.53515625 -358 189.578125 -358 c 0
 94.37109375 -358 45.34375 -318.359375 45.34375 -318.359375 c 1
 67.8046875 -257.6953125 l 1
 67.8046875 -257.6953125 109.17578125 -289.86328125 184.29296875 -289.86328125 c 0
 273.45703125 -289.86328125 320.12109375 -236.5078125 323.37109375 -122.73828125 c 1
EndSplineSet
EndChar

StartChar: zero.superior
Encoding: 8304 8304 158
Width: 455
Flags: W
HStem: 342 69.9844<161.863 294.129> 773.625 69.375<161.863 294.129>
VStem: 30.707 75.0781<477.49 707.291> 350.164 75.0781<477.49 707.291>
LayerCount: 2
Fore
SplineSet
105.78515625 592.609375 m 0
 105.78515625 484.20703125 142.73046875 411.984375 228 411.984375 c 0
 313.26953125 411.984375 350.1640625 484.20703125 350.1640625 592.609375 c 0
 350.1640625 701.01171875 313.26953125 773.625 228 773.625 c 0
 142.73046875 773.625 105.78515625 701.01171875 105.78515625 592.609375 c 0
30.70703125 592 m 0
 30.70703125 744 98.90625 843 228 843 c 0
 357.09375 843 425.2421875 744 425.2421875 592 c 0
 425.2421875 440 357.09375 342 228 342 c 0
 98.90625 342 30.70703125 440 30.70703125 592 c 0
EndSplineSet
EndChar

StartChar: one.superior
Encoding: 185 185 159
Width: 276
Flags: W
VStem: 151.867 78.7031<350 757.992>
LayerCount: 2
Fore
SplineSet
230.5703125 841.265625 m 1
 230.5703125 350 l 1
 151.8671875 350 l 1
 151.8671875 757.9921875 l 1
 44.6875 700.5546875 l 1
 17.9609375 758.734375 l 1
 163.22265625 841.265625 l 1
 230.5703125 841.265625 l 1
EndSplineSet
EndChar

StartChar: two.superior
Encoding: 178 178 160
Width: 404
Flags: W
HStem: 350 67.8672<117.844 379.602> 737.848 21G<65.8658 73.793> 774.121 68.8789<98.9215 269.679>
VStem: 35.0469 82.7969<417.867 467.304> 295.844 76.8359<640.598 748.871>
LayerCount: 2
Fore
SplineSet
295.84375 693.5703125 m 0
 295.84375 739.4375 269.0546875 774.12109375 190.36328125 774.12109375 c 0
 122.74609375 774.12109375 73.79296875 737.84765625 73.79296875 737.84765625 c 1
 48.5390625 801.5625 l 1
 48.5390625 801.5625 106.91015625 843 192.921875 843 c 0
 305.078125 843 372.6796875 792.80078125 372.6796875 693.7734375 c 0
 372.6796875 607.48828125 315.48046875 570.96484375 233.4921875 529.671875 c 0
 128.23046875 477.33984375 118.5546875 446.1015625 117.84375 417.8671875 c 1
 379.6015625 417.8671875 l 1
 379.6015625 350 l 1
 35.046875 350 l 1
 35.046875 386 l 2
 35.046875 484.61328125 97.76953125 540.7265625 209.44140625 597.10546875 c 0
 264.18359375 624.03125 295.84375 650.14453125 295.84375 693.5703125 c 0
EndSplineSet
EndChar

StartChar: three.superior
Encoding: 179 179 161
Width: 389
Flags: W
HStem: 342 67.4766<58.945 252.298> 565.887 64.2266<109.609 252.67> 773.086 69.9141<66.4648 249.44>
VStem: 271.34 77.8008<648.95 749.891> 279.578 79.7148<436.291 541.712>
LayerCount: 2
Fore
SplineSet
173.28515625 630.11328125 m 2xe8
 243.2109375 630.11328125 271.33984375 653.08984375 271.33984375 699.6875 c 0
 271.33984375 741.7109375 246.39453125 773.0859375 166.4609375 773.0859375 c 0
 92 773.0859375 48.2890625 741.609375 48.2890625 741.609375 c 1
 26.40234375 805.96484375 l 1
 26.40234375 805.96484375 79.75390625 843 171.33984375 843 c 0
 282.31640625 843 349.140625 795.984375 349.140625 706.546875 c 0xf0
 349.140625 622.6875 271.2734375 599.58984375 271.2734375 599.58984375 c 1
 271.2734375 599.58984375 359.29296875 578.2265625 359.29296875 484.41796875 c 0
 359.29296875 383.52734375 283.24609375 342 169.1171875 342 c 0
 71.56640625 342 13.234375 376.33984375 13.234375 376.33984375 c 1
 34.984375 443.84765625 l 1
 34.984375 443.84765625 84.33984375 409.4765625 163.8359375 409.4765625 c 0
 243.42578125 409.4765625 279.578125 437.47265625 279.578125 487.6484375 c 0
 279.578125 540.5390625 243.25390625 565.88671875 173.28515625 565.88671875 c 2
 109.40625 565.88671875 l 1
 109.609375 630.11328125 l 1
 173.28515625 630.11328125 l 2xe8
EndSplineSet
EndChar

StartChar: four.superior
Encoding: 8308 8308 162
Width: 439
Flags: W
HStem: 473.832 64.8359<118.336 411.391>
VStem: 264.422 74.9414<350 729.598>
LayerCount: 2
Fore
SplineSet
339.36328125 840.046875 m 1
 339.36328125 350 l 1
 264.421875 350 l 1
 264.421875 729.59765625 l 1
 118.3359375 538.66796875 l 1
 411.390625 538.66796875 l 1
 411.390625 473.83203125 l 1
 46.03125 473.83203125 l 1
 31.07421875 530.890625 l 1
 266.03125 840.046875 l 1
 339.36328125 840.046875 l 1
EndSplineSet
EndChar

StartChar: five.superior
Encoding: 8309 8309 163
Width: 410
Flags: W
HStem: 343 69.4727<65.2585 265.719> 605.633 63.3945<136.575 275.595> 769.422 67.5781<134.148 343.156>
VStem: 304.5 76.5312<448.979 576.556>
LayerCount: 2
Fore
SplineSet
184.84375 343 m 0
 80.24609375 343 18.26953125 377.3046875 18.26953125 377.3046875 c 1
 40.78125 445.28515625 l 1
 40.78125 445.28515625 100.203125 412.47265625 176.859375 412.47265625 c 0
 267.9921875 412.47265625 304.5 450.3203125 304.5 512.1796875 c 0
 304.5 570.88671875 271.51953125 605.6328125 205.62890625 605.6328125 c 0
 135.05859375 605.6328125 111.91796875 556.71875 111.91796875 556.71875 c 1
 46.55078125 573.046875 l 1
 73.921875 837 l 1
 343.15625 837 l 1
 343.15625 769.421875 l 1
 134.1484375 769.421875 l 1
 120.19140625 635.05859375 l 1
 120.19140625 635.05859375 144.08203125 669.02734375 222.75390625 669.02734375 c 0
 323.046875 669.02734375 381.03125 610.890625 381.03125 513.53515625 c 0
 381.03125 407.640625 312.69140625 343 184.84375 343 c 0
EndSplineSet
EndChar

StartChar: six.superior
Encoding: 8310 8310 164
Width: 426
Flags: W
HStem: 342 67.582<148.631 291.678> 605.418 61.9219<147.797 292.618> 774.66 68.3398<163.191 341.793>
VStem: 30.707 71.4492<607.348 705.738> 324.535 71.707<441.33 573.917>
LayerCount: 2
Fore
SplineSet
116.08984375 508 m 0
 116.08984375 451.515625 148.34765625 409.58203125 220.4921875 409.58203125 c 0
 293.40234375 409.58203125 324.53515625 451.515625 324.53515625 508 c 0
 324.53515625 564.484375 294.38671875 605.41796875 220.4921875 605.41796875 c 0
 148.34765625 605.41796875 116.08984375 564.484375 116.08984375 508 c 0
102.15625 607.34765625 m 1
 102.15625 607.34765625 128.30078125 667.33984375 230.72265625 667.33984375 c 0
 332.3828125 667.33984375 396.2421875 602.6953125 396.2421875 509 c 0
 396.2421875 402 329.94140625 342 221 342 c 0
 99.984375 342 30.70703125 415 30.70703125 593 c 0
 30.70703125 754 104.6171875 843 237.77734375 843 c 0
 333.8203125 843 383.0703125 803.51171875 383.0703125 803.51171875 c 1
 358.8828125 742.84765625 l 1
 358.8828125 742.84765625 317.5078125 774.66015625 242.70703125 774.66015625 c 0
 152.73046875 774.66015625 105.40625 721.26953125 102.15625 607.34765625 c 1
EndSplineSet
EndChar

StartChar: seven.superior
Encoding: 8311 8311 165
Width: 402
Flags: W
HStem: 768.727 68.2734<32.3633 284.277>
VStem: 123.336 78.5156<350 486.764>
LayerCount: 2
Fore
SplineSet
201.8515625 350 m 1
 123.3359375 350 l 1
 131.26953125 587.62890625 284.27734375 768.7265625 284.27734375 768.7265625 c 1
 32.36328125 768.7265625 l 1
 32.36328125 837 l 1
 369.83984375 837 l 1
 369.83984375 777.87109375 l 1
 369.83984375 777.87109375 204.0390625 595.25 201.8515625 350 c 1
EndSplineSet
EndChar

StartChar: eight.superior
Encoding: 8312 8312 166
Width: 442
Flags: W
HStem: 342 64.125<137.115 305.775> 574.141 59.0234<162.957 282.328> 590.734 31.1211<113.043 332.004> 778.316 64.6836<150.006 297.056>
VStem: 30.8945 74.0938<435.848 544.049> 55.082 71.0625<656.892 754.694> 320.512 71.0625<657.53 754.694> 337.871 74.0938<436.63 543.272>
LayerCount: 2
Fore
SplineSet
221.7109375 633.1640625 m 0xd6
 282.328125 633.1640625 320.51171875 661.07421875 320.51171875 704.75390625 c 0
 320.51171875 750.9296875 284.07421875 778.31640625 221.5234375 778.31640625 c 0
 161.16015625 778.31640625 126.14453125 750.9296875 126.14453125 704.75390625 c 0
 126.14453125 661.07421875 162.95703125 633.1640625 221.7109375 633.1640625 c 0xd6
221.5234375 843 m 0
 327.19140625 843 391.57421875 793.1875 391.57421875 712 c 0
 391.57421875 634.484375 332.00390625 590.734375 221.5234375 590.734375 c 0xb6
 113.04296875 590.734375 55.08203125 634.484375 55.08203125 712 c 0
 55.08203125 793.1875 117.85546875 843 221.5234375 843 c 0
221.3359375 406.125 m 0
 294.78125 406.125 337.87109375 436.23828125 337.87109375 490.8515625 c 0
 337.87109375 541.85546875 294.78125 574.140625 221.3359375 574.140625 c 0
 147.890625 574.140625 104.98828125 541.85546875 104.98828125 490.8515625 c 0xd9
 104.98828125 436.23828125 147.890625 406.125 221.3359375 406.125 c 0
221.5234375 621.85546875 m 0xb9
 344.2421875 621.85546875 411.96484375 572.95703125 411.96484375 485.515625 c 0
 411.96484375 398.4375 337.19140625 342 221.5234375 342 c 0
 105.85546875 342 30.89453125 398.4375 30.89453125 485.515625 c 0
 30.89453125 572.95703125 98.8046875 621.85546875 221.5234375 621.85546875 c 0xb9
EndSplineSet
EndChar

StartChar: nine.superior
Encoding: 8313 8313 167
Width: 426
Flags: W
HStem: 342 68.1367<85.6416 263.521> 517.102 62.1602<134.524 278.93> 774.91 68.0898<135.744 278.681>
VStem: 30.707 72.4688<610.921 743.538> 323.371 72.7188<479.262 577.398>
LayerCount: 2
Fore
SplineSet
311.46875 676.6953125 m 0
 311.46875 733.1796875 279.36328125 774.91015625 207.21875 774.91015625 c 0
 134.6484375 774.91015625 103.17578125 733.1796875 103.17578125 676.6953125 c 0
 103.17578125 620.3984375 133.4765625 579.26171875 207.21875 579.26171875 c 0
 279.36328125 579.26171875 311.46875 620.3984375 311.46875 676.6953125 c 0
323.37109375 577.3984375 m 1
 323.37109375 577.3984375 297.4296875 517.1015625 195.515625 517.1015625 c 0
 94.3125 517.1015625 30.70703125 582.15234375 30.70703125 676.15234375 c 0
 30.70703125 783.15234375 97.05859375 843 206 843 c 0
 327.015625 843 396.08984375 770 396.08984375 592 c 0
 396.08984375 431 322.53515625 342 189.578125 342 c 0
 94.37109375 342 45.34375 381.58984375 45.34375 381.58984375 c 1
 67.8046875 442.3046875 l 1
 67.8046875 442.3046875 109.17578125 410.13671875 184.29296875 410.13671875 c 0
 273.45703125 410.13671875 320.12109375 463.62890625 323.37109375 577.3984375 c 1
EndSplineSet
EndChar

StartChar: circumflex
Encoding: 710 710 168
Width: 362
Flags: W
HStem: 519.513 211.495
VStem: 24.5125 312.975
LayerCount: 2
Fore
SplineSet
281.5375 519.5125 m 1
 181 644.995117188 l 1
 80.4625 519.5125 l 1
 24.5125 546 l 1
 138.025 731.0078125 l 1
 223.975 731.0078125 l 1
 337.4875 546 l 1
 281.5375 519.5125 l 1
EndSplineSet
EndChar

StartChar: caron
Encoding: 711 711 169
Width: 362
Flags: W
HStem: 529.513 211.495
VStem: 24.5125 312.975
LayerCount: 2
Fore
SplineSet
80.4625 741.0078125 m 1
 181 615.525195312 l 1
 281.5375 741.0078125 l 1
 337.4875 714.5203125 l 1
 223.975 529.5125 l 1
 138.025 529.5125 l 1
 24.5125 714.5203125 l 1
 80.4625 741.0078125 l 1
EndSplineSet
EndChar

StartChar: breve
Encoding: 728 728 170
Width: 322
VWidth: 999
Flags: W
HStem: 612.987 72.8875<88.8699 233.95> 715 20G<31.7314 64.4059 258.414 291.089>
VStem: 8.5125 305.795
LayerCount: 2
Fore
SplineSet
161.41015625 612.986523438 m 0
 54.313827087 612.986523438 8.5125 700.787695312 8.5125 700.787695312 c 1
 64.405859375 735 l 1
 64.405859375 735 85.8462389672 685.874023438 161.41015625 685.874023438 c 0
 236.974073533 685.874023438 258.414453125 735 258.414453125 735 c 1
 314.3078125 700.787695312 l 1
 314.3078125 700.787695312 268.506485413 612.986523438 161.41015625 612.986523438 c 0
EndSplineSet
EndChar

StartChar: dotaccent
Encoding: 729 729 171
Width: 248
Flags: W
HStem: 613.618 125.374<75.5256 173.474>
VStem: 62.4242 124.152<626.849 725.761>
LayerCount: 2
Fore
SplineSet
62.42421875 676.305078125 m 0
 62.42421875 714.281942506 86.8925238806 738.9921875 124.499023438 738.9921875 c 0
 162.106561455 738.9921875 186.57578125 714.281942506 186.57578125 676.305078125 c 0
 186.57578125 638.327527633 162.106561455 613.61796875 124.499023438 613.61796875 c 0
 86.8925238804 613.61796875 62.42421875 638.327527633 62.42421875 676.305078125 c 0
EndSplineSet
EndChar

StartChar: tilde
Encoding: 732 732 172
Width: 371
VWidth: 999
Flags: W
HStem: 623.927 79.375<199.019 321.456> 672.496 78.5059<53.6848 172.489> 712.364 20G<328.78 341.343>
LayerCount: 2
Fore
SplineSet
366.400390625 672.474453125 m 1xa0
 366.400390625 672.474453125 325.907657734 623.926757812 263.481835938 623.926757812 c 0xa0
 183.966391917 623.926757812 167.715859656 672.49609375 109.656835938 672.49609375 c 0
 70.9889088218 672.49609375 39.44375 638.958007812 39.44375 638.958007812 c 1
 5 708.876953125 l 1
 5 708.876953125 49.7111163197 751.001953125 107.91953125 751.001953125 c 0x40
 186.172697281 751.001953125 208.733466727 703.301757812 261.74453125 703.301757812 c 0
 306.089834584 703.301757812 328.77953125 732.364257812 328.77953125 732.364257812 c 1
 366.400390625 672.474453125 l 1xa0
EndSplineSet
EndChar

StartChar: hungarumlaut
Encoding: 733 733 173
Width: 412
Flags: W
HStem: 536 205.008
LayerCount: 2
Fore
SplineSet
267.975 536 m 1
 210.5125 552.4875 l 1
 299.05 741.0078125 l 1
 387.4875 714.5203125 l 1
 267.975 536 l 1
77.975 536 m 1
 20.5125 552.4875 l 1
 109.05 741.0078125 l 1
 197.4875 714.5203125 l 1
 77.975 536 l 1
EndSplineSet
EndChar

StartChar: multiply
Encoding: 215 215 174
Width: 450
Flags: W
LayerCount: 2
Fore
SplineSet
418.040039062 498.535585938 m 1
 84.4644140625 164.959960938 l 1
 31.9599609375 217.464414062 l 1
 365.535585938 551.040039062 l 1
 418.040039062 498.535585938 l 1
365.535585938 164.959960938 m 1
 31.9599609375 498.535585938 l 1
 84.4644140625 551.040039062 l 1
 418.040039062 217.464414062 l 1
 365.535585938 164.959960938 l 1
EndSplineSet
EndChar

StartChar: divide
Encoding: 247 247 175
Width: 450
Flags: W
HStem: 150.356 113.754<178.977 271.023> 319.835 76.33<30 420> 451.89 113.754<178.977 271.023>
VStem: 168.673 112.653<160.76 253.705 462.294 555.24>
LayerCount: 2
Fore
SplineSet
420 319.835 m 1
 30 319.835 l 1
 30 396.165 l 1
 420 396.165 l 1
 420 319.835 l 1
168.6734375 207.232460938 m 0
 168.6734375 241.689475519 190.875423273 264.109804688 224.999023438 264.109804688 c 0
 259.12366718 264.109804688 281.3265625 241.689475519 281.3265625 207.232460938 c 0
 281.3265625 172.775636916 259.12366718 150.35609375 224.999023438 150.35609375 c 0
 190.875423273 150.35609375 168.6734375 172.775636916 168.6734375 207.232460938 c 0
168.6734375 508.767539062 m 0
 168.6734375 543.223701076 190.875423273 565.64390625 224.999023438 565.64390625 c 0
 259.12366718 565.64390625 281.3265625 543.223701076 281.3265625 508.767539062 c 0
 281.3265625 474.309862469 259.12366718 451.890195312 224.999023438 451.890195312 c 0
 190.875423273 451.890195312 168.6734375 474.309862469 168.6734375 508.767539062 c 0
EndSplineSet
EndChar

StartChar: AE
Encoding: 198 198 176
Width: 1024
Flags: W
HStem: 0 88.1687<624.144 980.487> 156.942 86.8175<222 596.144> 321.05 91.4125<575.95 920.487> 642.839 88.1688<624.144 980.487>
VStem: 525 71.1437<156.942 243.76> 575.95 48.1937<321.05 412.462>
LayerCount: 2
Fore
SplineSet
920.4875 321.05 m 1xf4
 575.95 321.05 l 1
 575.95 412.4625 l 1
 920.4875 412.4625 l 1
 920.4875 321.05 l 1xf4
624.14375 642.8390625 m 1
 624.14375 88.16875 l 1xf4
 980.4875 88.16875 l 1
 980.4875 0 l 1
 525 0 l 1
 525 731.0078125 l 1xf8
 980.4875 731.0078125 l 1
 980.4875 642.8390625 l 1
 624.14375 642.8390625 l 1
596.14375 156.9425 m 1xf8
 159.025 156.9425 l 1
 222 243.76 l 1
 596.14375 243.76 l 1
 596.14375 156.9425 l 1xf8
572.9625 731.0078125 m 1
 557.962646484 731.0078125 557.962646484 661.587646484 557.962646484 661.587646484 c 1
 135.44125 0 l 1
 18.5125 0 l 1
 500.512207031 731.0078125 l 1
 572.9625 731.0078125 l 1
EndSplineSet
EndChar

StartChar: ae
Encoding: 230 230 177
Width: 872
Flags: W
HStem: -9.99805 76.8457<542.458 774.113> -9.99805 77.8457<160.503 314.314> 214.484 70.545<432.169 743.778> 236.654 66.2543<190.545 378.315> 431.079 79.9314<128.372 318.446> 432.954 77.9794<526.437 687.116>
VStem: 38.5125 97.2611<92.9615 196.457> 359.656 73.735<158 388.054> 432.169 29.5511<214.484 285.029>
LayerCount: 2
Fore
SplineSet
359.656210938 177.561523438 m 1x53
 441.95 164.975 l 1
 422.37021542 51.1919060202 353.335647102 -9.998046875 222.429921875 -9.998046875 c 0
 104.348914368 -9.998046875 38.5125 48.185631621 38.5125 136.43375 c 0
 38.5125 280.030376117 180.116238225 302.774827227 378.466210938 302.90859375 c 1
 378.314697266 236.654296875 l 1
 172.610925272 236.515296285 135.773632812 203.370034739 135.773632812 144.429023438 c 0
 135.773632812 93.6314914814 173.779430201 67.8476171875 235.917421875 67.8476171875 c 0
 304.54238538 67.8476171875 359.656210938 103.852161459 359.656210938 177.561523438 c 1x53
433.391210938 158 m 1
 359.656210938 165 l 1
 359.656210938 304.060742188 l 2
 359.656210938 392.822513915 316.081135004 431.079345703 239.517578125 431.079345703 c 0
 160.424676166 431.079345703 103.916503906 397.835449219 103.916503906 397.835449219 c 1
 79.9409179688 470.522949219 l 1
 79.9409179688 470.522949219 140.082348998 511.010742188 247.82625 511.010742188 c 0x0b
 357.622457431 511.010742188 433.391210938 450.426207049 433.391210938 340.010742188 c 2
 433.391210938 158 l 1
EndSplineSet
Refer: 43 101 N 1 0 0 1 321 0 2
EndChar

StartChar: Eth
Encoding: 208 208 178
Width: 789
Flags: W
HStem: 0 90.4128<231.413 488.479> 317.591 85.8175<33.5125 430.487> 640.588 90.4196<231.413 485.933>
VStem: 130.512 100.9<90.4128 640.588> 639.516 101.749<234.32 494.934>
LayerCount: 2
Fore
SplineSet
430.4875 317.59125 m 1
 33.5125 317.59125 l 1
 33.5125 403.40875 l 1
 430.4875 403.40875 l 1
 430.4875 317.59125 l 1
EndSplineSet
Refer: 5 68 N 1 0 0 1 62 0 2
EndChar

StartChar: eth
Encoding: 240 240 179
Width: 588
Flags: W
HStem: -9.99805 84.2794<210.407 378.244> 431.008 79.9257<211.935 384.056>
VStem: 51.5838 89.5586<150.388 355.001> 452.831 92.5049<154.125 516.761> 452.831 50.9061<285.074 366.118>
LayerCount: 2
Fore
SplineSet
157.090332031 609.633056641 m 1xe0
 484.003417969 703.054931641 l 1
 503.616943359 633.546875 l 1
 176.702880859 540.124023438 l 1
 157.090332031 609.633056641 l 1xe0
452.83125 251.561523438 m 0xf0
 452.83125 508.216395367 359.85600464 595.711628942 218.945800781 718.599121094 c 1
 299.603515625 771.274414062 l 1
 299.603515625 771.274414062 545.336132812 601 545.336132812 279 c 0xf0
 545.336132812 93.8330078125 450.766211203 -9.998046875 296.959960938 -9.998046875 c 0
 144.428952149 -9.998046875 51.5837890625 94.0830078123 51.5837890625 253.561523438 c 0
 51.5837890625 409.295898438 136.792098723 510.93359375 285.16125 510.93359375 c 0
 413.069347306 510.93359375 503.737382812 425.082205245 503.737382812 285.074023438 c 1xe8
 452.83125 273.561523438 l 1
 452.83125 366.118195993 398.882324228 431.007929688 297.794882812 431.007929688 c 0
 188.058296589 431.007929688 141.142421875 359.96758183 141.142421875 253.561523438 c 0
 141.142421875 146.056175717 187.808558699 74.2813671875 296.959960938 74.2813671875 c 0
 409.327097986 74.2813671875 452.83125 161.896628902 452.83125 251.561523438 c 0xf0
EndSplineSet
EndChar

StartChar: Thorn
Encoding: 222 222 180
Width: 650
Flags: W
HStem: 0 21G<68.5125 169.413> 154 80.5453<136.438 437.925> 516.456 83.1471<137.438 436.804> 711.008 20G<68.5125 169.413>
VStem: 68.5125 100.9<0 154 234.545 516.456 599.603 731.008> 137.438 31.975<154 234.545 516.456 599.603> 505.95 96.3149<294.344 455.76>
LayerCount: 2
Fore
SplineSet
68.5125 0 m 1xfa
 68.5125 731.0078125 l 1
 169.4125 731.0078125 l 1
 169.4125 0 l 1
 68.5125 0 l 1xfa
136.4375 154 m 1
 136.4375 234.5453125 l 1
 313.401171875 234.655664062 l 2
 423.635601881 234.767322525 505.949960938 259.812278017 505.949960938 374.561523438 c 0
 505.949960938 489.841944656 423.623405955 516.308773842 313.401171875 516.352148438 c 2
 137.4375 516.455664062 l 1
 137.4375 599.6028125 l 1xf6
 345.376171875 599.6028125 l 2
 480.53798035 599.6028125 602.26484375 538.313145087 602.26484375 374.561523438 c 0
 602.26484375 213.240207598 483.259109269 154 345.376171875 154 c 2
 136.4375 154 l 1
EndSplineSet
EndChar

StartChar: thorn
Encoding: 254 254 181
Width: 602
Flags: W
HStem: -9.99805 80.3869<229.417 397.366> 431.359 79.5744<232.474 400.181> 731.002 20G<69.215 162.222>
VStem: 69.215 93.0075<-180 751.002> 111.936 50.2861<66.4395 183.562> 122.886 39.3361<283.562 425.747> 465.155 90.2611<144.425 359.814>
LayerCount: 2
Fore
SplineSet
69.215 -180 m 1xf2
 69.215 751.001953125 l 1
 162.2225 751.001953125 l 1
 162.2225 -180 l 1
 69.215 -180 l 1xf2
162.2225 213.561523438 m 1
 162.2225 143.808437156 208.888313334 70.3888671875 318.040039062 70.3888671875 c 0
 421.094405054 70.3888671875 465.155078125 143.72098202 465.155078125 253.561523438 c 0
 465.155078125 360.178209528 421.128909346 431.359179688 318.151367188 431.359179688 c 0
 215.948042885 431.359179688 162.2225 372.189132943 162.2225 283.561523438 c 1xf2
 122.886367188 283.561523438 l 1xe6
 122.886367188 425.747070312 205.0085939 510.93359375 331.4875 510.93359375 c 0
 473.727734375 510.93359375 555.416210938 409.295898438 555.416210938 253.561523438 c 0
 555.416210938 94.0830078123 469.94453125 -9.998046875 329.527539062 -9.998046875 c 0
 194.268585617 -9.998046875 111.936367188 66.4394531248 111.936367188 183.561523438 c 1xea
 162.2225 213.561523438 l 1
EndSplineSet
EndChar

StartChar: kgreenlandic
Encoding: 312 312 182
Width: 555
Flags: W
HStem: 0 21G<75.7025 168.71 363.292 496.012> 225.215 61.57<89 201.385> 481.011 20G<75.7025 168.71 356.896 486.012>
VStem: 75.7025 93.0075<0 225.215 286.785 501.011> 89 79.71<225.215 286.785>
LayerCount: 2
Fore
SplineSet
201.385 286.785 m 1xe8
 201.385 225.215 l 1
 89 225.215 l 1
 89 286.785 l 1
 201.385 286.785 l 1xe8
379.071044922 0 m 1
 201.385 225.215 l 1
 201.385 286.785 l 1
 372.909912109 501.010742188 l 1
 486.012207031 501.010742188 l 1
 278.75 261.487792969 l 1
 496.012207031 0 l 1
 379.071044922 0 l 1
75.7025 0 m 1xf0
 75.7025 501.010742188 l 1
 168.71 501.010742188 l 1
 168.71 0 l 1
 75.7025 0 l 1xf0
EndSplineSet
EndChar

StartChar: Eng
Encoding: 330 330 183
Width: 719
Flags: W
HStem: -189.994 81.0325<353.732 522.269> 0 21G<68.5125 168.115> 711.008 20G<68.5125 187.69 550.885 650.487>
VStem: 68.5125 99.6025<0 564.18> 550.885 99.6025<-78.6476 -7.33691 175.912 731.008>
LayerCount: 2
Back
SplineSet
75 0 m 5
 75 731.0078125 l 5
 208 731.0078125 l 5
 517 228.599609375 l 5
 517 731.0078125 l 5
 644 731.0078125 l 5
 644 0 l 5
 511 0 l 5
 202 515.004882812 l 5
 202 0 l 5
 75 0 l 5
EndSplineSet
Fore
SplineSet
68.5125 0 m 1
 68.5125 731.0078125 l 1
 174.115 731.0078125 l 1
 550.885 175.912109375 l 1
 550.885 731.0078125 l 1
 650.4875 731.0078125 l 1
 650.4875 -3 l 2
 650.4875 -125.529296875 598.90862069 -189.994140625 474.5125 -189.994140625 c 0
 392.367831857 -189.994140625 344.025 -169.642890625 344.025 -169.642890625 c 1
 356.62 -92.907890625 l 1
 356.62 -92.907890625 398.280006984 -108.961640625 456.59125 -108.961640625 c 0
 513.510060234 -108.961640625 546.642637959 -83.7197763533 549.3615625 -7.3369140625 c 1
 168.115 564.179882812 l 1
 168.115 0 l 1
 68.5125 0 l 1
EndSplineSet
Substitution2: "'ss06' Style Set 6 lookup 7-1" Eng.ss06
EndChar

StartChar: eng
Encoding: 331 331 184
Width: 595
Flags: W
HStem: -189.994 79.6275<270.486 411.277> 0 21G<69.215 162.222> 432.847 78.0869<229.799 388.057> 481.011 20G<69.215 162.222>
VStem: 69.215 93.0075<0 501.011> 437.067 93.0075<-83.2384 381.491>
LayerCount: 2
Fore
SplineSet
69.215 0 m 1xdc
 69.215 501.010742188 l 1
 162.2225 501.010742188 l 1
 162.2225 0 l 1
 69.215 0 l 1xdc
162.2225 284 m 1
 114.2475 293.561523438 l 1
 138.410217899 444 203.081554718 510.93359375 338.4875 510.93359375 c 0
 465.009323448 510.93359375 530.07484375 441.809114389 530.07484375 297.536523438 c 2
 530.07484375 -9 l 2
 530.07484375 -117.937600252 481.847376622 -189.994140625 365.53359375 -189.994140625 c 0
 303.623200684 -189.994140625 260.80234375 -171.994140625 260.80234375 -171.994140625 c 1
 273.39734375 -97.312890625 l 1
 273.39734375 -97.312890625 302.432041961 -110.366640625 343.07109375 -110.366640625 c 0
 409.249038449 -110.366640625 437.06734375 -78.9291406251 437.06734375 -5.994140625 c 2
 437.06734375 280.536523438 l 2
 437.06734375 383.94391062 397.999577463 432.846679688 306.025 432.846679688 c 0xec
 212.66675809 432.846679688 162.2225 373.256434926 162.2225 284 c 1
EndSplineSet
EndChar

StartChar: OE
Encoding: 338 338 185
Width: 991
Flags: W
HStem: 0 88.1687<586.413 952.487> 0 88.2794<305.875 532.777> 321.05 91.4125<536.462 892.487> 642.839 88.1688<586.413 952.487> 643.377 87.6307<305.418 532.777>
VStem: 58.5125 97.8024<232.338 497.066> 536.462 49.95<321.05 412.462>
LayerCount: 2
Fore
SplineSet
532.77734375 88.1690625 m 1x6e
 532.77734375 0 l 1
 428.888671875 0 l 2
 235.156613567 0 58.5125 97.9169921874 58.5125 364.561523438 c 0
 58.5125 631.206054688 234.016062907 731.0078125 428.888671875 731.0078125 c 2
 532.77734375 731.0078125 l 1
 532.77734375 643.480664062 l 1
 448.888671875 643.377148438 l 2
 292.152388849 643.204883081 156.314882812 591.246714897 156.314882812 364.561523438 c 0
 156.314882812 137.958727485 292.152388999 88.4619383238 448.888671875 88.2794140621 c 2
 532.77734375 88.1690625 l 1x6e
EndSplineSet
Refer: 10 69 N 1 0 0 1 417 0 2
EndChar

StartChar: oe
Encoding: 339 339 186
Width: 920
Flags: W
HStem: -9.99805 81.0357<210.023 366.602 591.08 831.619> 214.484 70.545<490.706 791.778> 429.71 81.2232<205.524 368.2 579.155 739.142>
VStem: 48.5125 90.6124<146.406 354.625> 436.602 90.6124<119.097 384.243> 490.706 29.5511<219.115 281.171>
LayerCount: 2
Fore
SplineSet
139.124882812 253.561523438 m 0xf8
 139.124882812 144.110574951 187.206227161 71.0376171875 288.619921875 71.0376171875 c 0
 389.15609022 71.0376171875 436.602460938 144.110574951 436.602460938 253.561523438 c 0
 436.602460938 359.189863281 389.189562134 429.710429688 288.73125 429.710429688 c 0
 187.239594728 429.710429688 139.124882812 359.189863281 139.124882812 253.561523438 c 0xf8
48.5125 253.561523438 m 0
 48.5125 409.295898438 139.364523506 510.93359375 288.619921875 510.93359375 c 0
 436.935045808 510.93359375 527.21484375 409.295898438 527.21484375 253.561523438 c 0
 527.21484375 94.0830078125 436.935045808 -9.998046875 288.619921875 -9.998046875 c 0
 139.364523506 -9.998046875 48.5125 94.0830078125 48.5125 253.561523438 c 0
428.05 253.561523438 m 0
 428.05 409.295898438 516.631520887 510.93359375 662.157421875 510.93359375 c 0
 829.501135369 510.93359375 881.953320312 375.935201415 881.953320312 279.2771875 c 0
 881.953320312 239.276126709 877.4875 214.48375 877.4875 214.48375 c 1
 490.70625 214.48375 l 1
 490.70625 285.02875 l 1
 791.7775 285.02875 l 1
 791.7775 285.02875 791.892437745 290.865997315 790.83125 301.975 c 0
 785.872493896 370.090750732 751.248193711 432.954179688 658.025 432.954179688 c 0
 561.518257288 432.954179688 520.257382812 360.334407959 520.257382812 251.561523438 c 0xf4
 520.257382812 130.858319092 574.041868322 66.8476171875 702.1075 66.8476171875 c 0
 787.598759328 66.8476171875 836.316054688 94.979453125 836.316054688 94.979453125 c 1
 852.314648438 18.595703125 l 1
 852.314648438 18.595703125 795.991628994 -9.998046875 698.157421875 -9.998046875 c 0
 511.553921889 -9.998046875 428.05 94.0830078125 428.05 253.561523438 c 0
EndSplineSet
EndChar

StartChar: longs
Encoding: 383 383 187
Width: 269
Flags: W
HStem: 0 21G<87.9963 181.004> 685.681 75.33<212.7 349.212>
VStem: 87.9963 93.0075<0 653.847>
LayerCount: 2
Fore
SplineSet
181.00375 567.548242188 m 2
 181.00375 0 l 1
 87.99625 0 l 1
 87.99625 580.548242188 l 2
 87.99625 689.167689394 137.095697344 761.010742188 255.5125 761.010742188 c 0
 316.384710787 761.010742188 358.4875 745.010742188 358.4875 745.010742188 c 1
 346.595 673.275742188 l 1
 346.595 673.275742188 319.249595215 685.680742188 280.975 685.680742188 c 0
 210.590363868 685.680742188 181.00375 650.098130752 181.00375 567.548242188 c 2
EndSplineSet
EndChar

StartChar: uni018F
Encoding: 399 399 188
Width: 765
Flags: W
HStem: -9.99805 92.5769<273.859 485.598> 335.309 86.8175<151.008 656.725> 646.949 92.1719<178.387 466.592>
VStem: 43.5125 107.036<211.418 369.758> 620.252 38.4724<335.309 422.127>
LayerCount: 2
Back
SplineSet
35 364.561523438 m 0
 35 591.206054688 163.541887394 739.12109375 389.888671875 739.12109375 c 0
 653.541980974 739.12109375 740.108398438 551.971330386 740.108398438 365.891601562 c 0
 740.108398438 303.039520695 732 284 732 284 c 1
 162 284 l 1
 160 424 l 1
 562 424 l 1
 562 424 560.13712938 586.659179688 391 586.659179688 c 0
 261.796380576 586.659179688 205.848632812 497.743164062 205.848632812 364.561523438 c 4
 205.848632812 231.379882812 273.845797251 142.463867188 432.888671875 142.463867188 c 0
 580.720714467 142.463867188 659.018554688 179.595703125 659.018554688 179.595703125 c 1
 682.827148438 32.595703125 l 1
 682.827148438 32.595703125 604.343305548 -9.998046875 425.888671875 -9.998046875 c 0
 176.581210181 -9.998046875 35 137.916992188 35 364.561523438 c 0
EndSplineSet
Fore
SplineSet
721.595898438 364.561523438 m 0
 721.595898438 137.916992187 597.948284631 -9.998046875 380.219726562 -9.998046875 c 0
 126.738932228 -9.998046875 43.5125 165.361761774 43.5125 339.718945312 c 0
 43.5125 399.79675776 51.6208984375 422.126796875 51.6208984375 422.126796875 c 1
 656.724648438 422.126796875 l 1
 658.724648438 335.309296875 l 1
 151.008398438 335.309296875 l 1
 151.008398438 335.309296875 150.54875 330.109953774 150.54875 311.59125 c 0
 150.54875 205.165230742 214.740484085 82.5788671878 379.405898438 82.5788671878 c 0
 545.712582507 82.5788671878 620.252265625 195.469631962 620.252265625 364.561523438 c 0
 620.252265625 533.896274585 532.604358694 646.949179688 339.327226562 646.949179688 c 0
 197.343780338 646.949179688 122.14359375 604.06109375 122.14359375 604.06109375 c 1
 100.79375 692.52734375 l 1
 100.79375 692.52734375 175.150095362 739.12109375 344.219726562 739.12109375 c 0
 584.908961843 739.12109375 721.595898438 591.206054687 721.595898438 364.561523438 c 0
EndSplineSet
EndChar

StartChar: florin
Encoding: 402 402 190
Width: 398
Flags: W
HStem: -190.011 79.2763<-31.1297 104.41> 425.914 75.097<34 362> 684.276 76.735<252.7 389.212>
VStem: 127.996 93.0075<-85.3241 650.409>
LayerCount: 2
Fore
SplineSet
34 501.010742188 m 1
 362 501.010742188 l 1
 362 425.91375 l 1
 34 425.91375 l 1
 34 501.010742188 l 1
127.99625 -10.9282421875 m 2
 127.99625 580.548242188 l 2
 127.99625 689.167689394 177.095697344 761.010742188 295.5125 761.010742188 c 0
 356.384710787 761.010742188 398.4875 745.010742188 398.4875 745.010742188 c 1
 386.595 671.870742188 l 1
 386.595 671.870742188 359.249595215 684.275742188 320.975 684.275742188 c 0
 250.590363868 684.275742188 221.00375 649.116329864 221.00375 567.548242188 c 2
 221.00375 -12.5232421875 l 2
 221.00375 -119.352211382 175.555862069 -190.010742188 65.94625 -190.010742188 c 0
 2.58239192311 -190.010742188 -41.24375 -171.659492188 -41.24375 -171.659492188 c 1
 -27.94625 -96.2757421877 l 1
 -27.94625 -96.2757421877 0.795440802915 -110.734492188 41.025 -110.734492188 c 0
 102.257346375 -110.734492188 127.99625 -80.6723686936 127.99625 -10.9282421875 c 2
EndSplineSet
EndChar

StartChar: uni01B7
Encoding: 439 439 191
Width: 584
Flags: W
HStem: -9.99805 85.16<100.899 368.127> 347.572 74.1052<309.929 374.308> 643.48 87.52<43.5125 394.534>
VStem: 442.117 99.2815<141.791 288.79>
LayerCount: 2
Fore
SplineSet
309.92875 421.6775 m 1
 376.802285526 421.6775 541.398632812 403.595935117 541.398632812 218.617148438 c 0
 541.398632812 55.3841702269 424.910441897 -9.998046875 250 -9.998046875 c 0
 105.136957448 -9.998046875 18.963671875 40.2066796875 18.963671875 40.2066796875 c 1
 44.3156640625 120.133945312 l 1
 44.3156640625 120.133945312 122.077997155 75.161953125 244.05375 75.161953125 c 0
 381.066068879 75.161953125 442.117148438 124.142966415 442.117148438 219.235653076 c 0
 442.117148438 306.691076136 377.52363699 347.245712664 253.676171875 347.572304688 c 2
 174 347.835 l 1
 174 398.7025 l 1
 394.53375 643.48 l 1
 43.5125 643.48 l 1
 43.5125 731 l 1
 510.4875 731 l 1
 510.4875 647.48 l 1
 309.92875 421.6775 l 1
EndSplineSet
EndChar

StartChar: uni0292
Encoding: 658 658 192
Width: 524
Flags: W
HStem: -189.994 80.375<71.8719 320.971> 133.576 71.2088<272.276 329.234> 420.329 80.6812<44 356.29>
VStem: 387.2 94.199<-51.1178 82.7093>
LayerCount: 2
Fore
SplineSet
272.27625 204.785 m 1
 320.051367102 204.785 481.398632812 185.317510139 481.398632812 19.194029541 c 0
 481.398632812 -128.593295752 372.905550851 -189.994140625 210 -189.994140625 c 0
 96.4876640071 -189.994140625 28.963671875 -159.086914062 28.963671875 -159.086914062 c 1
 48.4769140625 -78.2958984377 l 1
 48.4769140625 -78.2958984377 108.636075109 -109.619140625 203 -109.619140625 c 0
 330.421932413 -109.619140625 387.199648438 -61.9375951522 387.199648438 16.6512841797 c 0
 387.199648438 97.6763944063 326.514740915 133.152402599 210.163671875 133.576210938 c 2
 141.025 133.83890625 l 1
 141.025 185.78890625 l 1
 356.29 420.329492188 l 1
 44 420.329492188 l 1
 44 501.010742188 l 1
 470.4875 501.010742188 l 1
 470.4875 424.329492188 l 1
 272.27625 204.785 l 1
EndSplineSet
EndChar

StartChar: Oslash
Encoding: 216 216 193
Width: 813
Flags: W
HStem: -9.99805 93.2257<287.01 510.768> 645.895 93.2257<287.01 510.768>
VStem: 48.5125 101.749<233.695 495.428> 647.516 101.749<233.695 495.428>
LayerCount: 2
Fore
SplineSet
165.687744141 -91.4697265625 m 1
 544.912597656 801.403320312 l 1
 631.323974609 801.403320312 l 1
 252.099121094 -91.4697265625 l 1
 165.687744141 -91.4697265625 l 1
EndSplineSet
Refer: 1 79 N 1 0 0 1 0 0 2
EndChar

StartChar: oslash
Encoding: 248 248 194
Width: 599
Flags: W
HStem: -9.99805 81.0357<213.074 378.593> 429.71 81.2232<208.455 380.283>
VStem: 48.5125 90.6124<149.448 354.625> 450.652 90.6124<149.448 354.625>
LayerCount: 2
Fore
SplineSet
79.2919921875 -91.4697265625 m 1
 434.877197266 581.403320312 l 1
 509.719726562 581.403320312 l 1
 154.134521484 -91.4697265625 l 1
 79.2919921875 -91.4697265625 l 1
EndSplineSet
Refer: 29 111 N 1 0 0 1 0 0 2
EndChar

StartChar: ring
Encoding: 730 730 197
Width: 355
Flags: W
HStem: 497.633 62.8465<127.344 227.62> 697.968 63.034<126.91 229.662>
VStem: 45.5375 67.8494<573.43 685.185> 242.39 67.8494<575.441 684.72>
LayerCount: 2
Fore
SplineSet
113.386875 631.177734375 m 0
 113.386875 588.783471762 132.437847847 560.479296875 176.99609375 560.479296875 c 0
 222.805118255 560.479296875 242.39046875 588.783471762 242.39046875 631.177734375 c 0
 242.39046875 671.228729659 222.834927419 697.96796875 177.094726562 697.96796875 c 0
 132.467658837 697.96796875 113.386875 671.228729659 113.386875 631.177734375 c 0
45.5375 631.411132812 m 0
 45.5375 709.826303839 95.237981324 761.001953125 176.888671875 761.001953125 c 0
 259.782548399 761.001953125 310.23984375 709.826303839 310.23984375 631.411132812 c 0
 310.23984375 550.462586165 259.782548399 497.6328125 176.888671875 497.6328125 c 0
 95.237981324 497.6328125 45.5375 550.462586165 45.5375 631.411132812 c 0
EndSplineSet
EndChar

StartChar: ogonek
Encoding: 731 731 198
Width: 307
VWidth: 999
Flags: W
HStem: -249.731 60.76<137.653 266.707>
VStem: 43.5125 77.4375<-172.843 -46.399>
LayerCount: 2
Fore
SplineSet
43.5125 -130 m 0
 43.5125 -30.5220125786 135.025 39 135.025 39 c 1
 210.975 39 l 1
 210.975 39 120.95 -32.6167197452 120.95 -115.025 c 0
 120.95 -168.188604562 148.903536812 -188.97125 198.0825 -188.97125 c 0
 241.547908404 -188.97125 261.1075 -172.5125 261.1075 -172.5125 c 1
 277 -226.73125 l 1
 277 -226.73125 244.426287616 -249.73125 179 -249.73125 c 0
 95.5715046103 -249.73125 43.5125 -207.134155544 43.5125 -130 c 0
EndSplineSet
EndChar

StartChar: minute
Encoding: 8242 8242 203
Width: 235
Flags: W
HStem: 456 275.008
VStem: 27.5375 181.925
LayerCount: 2
Fore
SplineSet
27.5375 456 m 1
 111.05 731.0078125 l 1
 209.4625 731.0078125 l 1
 94.73125 456 l 1
 27.5375 456 l 1
EndSplineSet
EndChar

StartChar: bullet
Encoding: 8226 8226 206
Width: 325
Flags: W
HStem: 250 226.449<92.6443 232.581>
VStem: 50 225.227<292.876 433.573>
LayerCount: 2
Fore
SplineSet
50 363.224609375 m 0
 50 431.817406607 94.3894466578 476.44921875 162.612304688 476.44921875 c 0
 230.836094646 476.44921875 275.2265625 431.817406607 275.2265625 363.224609375 c 0
 275.2265625 294.630626073 230.836094646 250 162.612304688 250 c 0
 94.3894466578 250 50 294.630626073 50 363.224609375 c 0
EndSplineSet
EndChar

StartChar: dagger
Encoding: 8224 8224 207
Width: 530
Flags: W
HStem: 390.548 79.925<30 500>
VStem: 209.55 110.9<-171.47 82.1944> 217.794 94.4125<477.16 759.47> 226.038 77.925<172.911 709.159>
LayerCount: 2
Fore
SplineSet
209.55 -171.469726562 m 1xc0
 226.0375 427 l 1x90
 217.79375 759.469726562 l 1
 312.20625 759.469726562 l 1xa0
 303.9625 426 l 1x90
 320.45 -171.469726562 l 1
 209.55 -171.469726562 l 1xc0
30 390.548242188 m 1
 30 470.473242188 l 1
 500 470.473242188 l 1
 500 390.548242188 l 1
 30 390.548242188 l 1
EndSplineSet
EndChar

StartChar: daggerdbl
Encoding: 8225 8225 208
Width: 530
Flags: W
HStem: 100.548 79.925<30 500> 440.548 79.925<30 500>
VStem: 217.442 95.115<-171.47 28.6807 199.827 420.852 575.593 759.47> 226.038 77.925<-78.9288 283.597 347.321 716.702>
LayerCount: 2
Fore
SplineSet
30 100.548242188 m 1xc0
 30 180.473242188 l 1
 500 180.473242188 l 1
 500 100.548242188 l 1
 30 100.548242188 l 1xc0
216.0375 -171.469726562 m 1
 226.0375 137 l 1xd0
 217.4425 317 l 1xe0
 226.0375 477 l 1
 217.79375 759.469726562 l 1
 312.20625 759.469726562 l 1
 303.9625 476 l 1xd0
 312.5575 318 l 1xe0
 303.9625 136 l 1xd0
 313.9625 -171.469726562 l 1
 216.0375 -171.469726562 l 1
30 440.548242188 m 1
 30 520.473242188 l 1
 500 520.473242188 l 1
 500 440.548242188 l 1
 30 440.548242188 l 1
EndSplineSet
EndChar

StartChar: uni2116
Encoding: 8470 8470 209
Width: 1126
Flags: W
HStem: 0 21G<68.5125 168.115 531.529 650.487> 257.43 72.8425<735.513 1070.49> 385.086 78.2614<846.287 968.727> 660.543 78.4489<845.546 971.612> 711.008 20G<68.5125 187.69 550.885 650.487>
VStem: 68.5125 99.6025<0 564.18> 550.885 99.6025<175.912 731.008> 735.136 83.0934<490.794 633.068> 997.77 83.0934<492.861 633.068>
LayerCount: 2
Fore
SplineSet
735.5125 330.2725 m 1xe780
 1070.4875 330.2725 l 1
 1070.4875 257.43 l 1
 735.5125 257.43 l 1
 735.5125 330.2725 l 1xe780
818.2296875 564.357226562 m 0
 818.2296875 503.786471876 845.430323197 463.346914062 906.897460938 463.346914062 c 0
 969.908607633 463.346914062 997.7703125 503.786471876 997.7703125 564.357226562 c 0
 997.7703125 622.035550697 969.945890244 660.543320312 907.020507812 660.543320312 c 0xf780
 845.467611298 660.543320312 818.2296875 622.035550697 818.2296875 564.357226562 c 0
735.136328125 564.132617188 m 0
 735.136328125 669.939826976 800.165875196 738.9921875 907 738.9921875 c 0
 1015.07729355 738.9921875 1080.86367188 669.939826976 1080.86367188 564.132617188 c 0
 1080.86367188 455.792191852 1015.07729355 385.085546875 907 385.085546875 c 0
 800.165875196 385.085546875 735.136328125 455.792191852 735.136328125 564.132617188 c 0
EndSplineSet
Refer: 11 78 N 1 0 0 1 0 0 2
EndChar

StartChar: uni20BF
Encoding: 8383 8383 210
Width: 650
Flags: W
HStem: -105 160.419<176.241 256.295 353.542 433.595> 0 87.9262<164.413 443.979> 325.194 80.6203<132.925 417.374> 643.183 87.8246<164.413 416.211> 669.05 160.419<176.241 256.295 353.542 433.595>
VStem: 132.925 31.4875<325.194 405.814> 176.241 80.054<-105 55.4194 669.05 829.47> 353.542 80.0532<-105 55.4194 669.05 829.47> 476.516 96.7486<455.552 590.982> 499.516 96.7486<134.159 274.879>
LayerCount: 2
Fore
SplineSet
353.541748047 -105 m 1xa7
 353.541748047 55.4194335938 l 1
 433.594970703 55.4194335938 l 1
 433.594970703 -105 l 1
 353.541748047 -105 l 1xa7
353.541748047 669.050292969 m 1x2f
 353.541748047 829.469726562 l 1
 433.594970703 829.469726562 l 1
 433.594970703 669.050292969 l 1
 353.541748047 669.050292969 l 1x2f
176.241455078 -105 m 1xa7
 176.241455078 55.4194335938 l 1
 256.295410156 55.4194335938 l 1
 256.295410156 -105 l 1
 176.241455078 -105 l 1xa7
176.241455078 669.050292969 m 1x2f
 176.241455078 829.469726562 l 1
 256.295410156 829.469726562 l 1
 256.295410156 669.050292969 l 1
 176.241455078 669.050292969 l 1x2f
EndSplineSet
Refer: 19 66 N 1 0 0 1 0 0 2
EndChar

StartChar: uni20A6
Encoding: 8358 8358 211
Width: 874
Flags: W
HStem: 0 21G<156.512 255.413 603.042 724.487> 264.62 73.7063<43.5125 229.413 644.588 830.487> 395.674 73.7063<43.5125 229.413 644.588 830.487> 711.008 20G<156.512 278.16 625.588 724.487>
VStem: 43.5125 211.9<264.62 338.326 395.674 469.38> 156.512 98.9<0 264.62 338.326 395.674 469.38 574.18> 156.512 72.9<264.62 338.326 395.674 469.38> 625.588 204.9<264.62 338.326 395.674 469.38> 625.588 98.9<165.912 264.62 338.326 395.674 469.38 731.008> 644.588 79.9<264.62 338.326 395.674 469.38>
LayerCount: 2
Fore
SplineSet
830.4875 264.62 m 1xf1
 644.5875 264.62 l 1
 644.5875 338.32625 l 1xf040
 830.4875 338.32625 l 1
 830.4875 264.62 l 1xf1
830.4875 395.67375 m 1xf1
 644.5875 395.67375 l 1
 644.5875 469.38 l 1xf040
 830.4875 469.38 l 1
 830.4875 395.67375 l 1xf1
229.4125 264.62 m 1xf2
 43.5125 264.62 l 1
 43.5125 338.32625 l 1xf8
 229.4125 338.32625 l 1
 229.4125 264.62 l 1xf2
229.4125 395.67375 m 1xf2
 43.5125 395.67375 l 1
 43.5125 469.38 l 1xf8
 229.4125 469.38 l 1
 229.4125 395.67375 l 1xf2
156.5125 0 m 1xf440
 156.5125 731.0078125 l 1
 265.4125 731.0078125 l 1
 625.5875 165.912109375 l 1
 625.5875 731.0078125 l 1
 724.4875 731.0078125 l 1xf280
 724.4875 0 l 1
 615.5875 0 l 1
 255.4125 574.179882812 l 1
 255.4125 0 l 1
 156.5125 0 l 1xf440
EndSplineSet
EndChar

StartChar: uni20BD
Encoding: 8381 8381 212
Width: 703
Flags: W
HStem: 0 21G<144.512 245.413> 165.377 71.95<30 544> 305.377 73.95<30 495.535> 642.129 88.8784<245.413 486.116>
VStem: 144.512 100.9<0 642.129> 556.76 98.5049<431.987 583.585>
LayerCount: 2
Fore
SplineSet
544 165.3765625 m 1
 30 165.3765625 l 1
 30 237.3265625 l 1
 544 237.3265625 l 1
 544 165.3765625 l 1
30 305.3765625 m 1
 30 379.3265625 l 1
 374.723671875 379.436914062 l 2
 478.939398829 379.574252075 556.759960938 402.993289085 556.759960938 504.586523438 c 0
 556.759960938 615.275352634 474.434614769 641.885690704 364.186171875 642.025898438 c 2
 245.4125 642.129414062 l 1
 245.4125 0 l 1
 144.5125 0 l 1
 144.5125 731.0078125 l 1
 371.376171875 731.0078125 l 2
 553.990429688 731.0078125 655.26484375 664.126277347 655.26484375 504.586523438 c 0
 655.26484375 375.727748086 563.884960938 305.3765625 409.4875 305.3765625 c 2
 30 305.3765625 l 1
EndSplineSet
EndChar

StartChar: dong
Encoding: 8363 8363 213
Width: 645
Flags: W
HStem: 0 73.7063<33.5125 590.487> 142.977 76.5994<228.532 386.914> 493.522 74.4119<229.728 390.827> 614.971 69.0575<304.513 601.487> 731.002 20G<437.778 534.298>
VStem: 84.5838 92.0174<272.574 440.244> 437.778 96.52<348.349 751.002> 437.778 60.8236<383.862 491.355>
LayerCount: 2
Fore
SplineSet
590.4875 0 m 1xfc
 33.5125 0 l 1
 33.5125 73.70625 l 1
 590.4875 73.70625 l 1
 590.4875 0 l 1xfc
601.4875 614.97125 m 1
 304.5125 614.97125 l 1
 304.5125 684.02875 l 1
 601.4875 684.02875 l 1
 601.4875 614.97125 l 1
534.2975 152.975 m 1xfe
 437.7775 152.975 l 1xfd
 437.7775 751.001953125 l 1
 534.2975 751.001953125 l 1
 534.2975 152.975 l 1xfe
437.7775 381.861523438 m 1xfe
 437.7775 436.262005261 403.744881833 493.521679688 306.959960938 493.521679688 c 0
 220.658177688 493.521679688 176.601171875 437.610140487 176.601171875 353.861523438 c 0
 176.601171875 273.33675266 220.625487914 219.576367188 306.848632812 219.576367188 c 0
 403.708257248 219.576367188 437.7775 271.130543337 437.7775 348.349023438 c 1xfe
 493.601132812 360.349023438 l 1
 493.601132812 230.6703125 421.2222084 142.976953125 282.025 142.976953125 c 0
 146.92787265 142.976953125 84.5837890625 232.126984336 84.5837890625 353.861523438 c 0
 84.5837890625 479.284195281 153.285996079 567.93359375 286.984960938 567.93359375 c 0
 431.479171596 567.93359375 498.601132812 491.355281666 498.601132812 383.861523438 c 1xfd
 437.7775 381.861523438 l 1xfe
EndSplineSet
EndChar

StartChar: uni1E9E
Encoding: 7838 7838 220
Width: 743
Flags: W
HStem: -10 84.049<356.473 552.99> 0 21G<68.5125 169.413> 330.942 77.0325<471.603 545.492> 643.839 87.1688<230.393 532.612>
VStem: 68.5125 100.9<0 584.255> 606.236 98.2512<125.725 279.044>
LayerCount: 2
Fore
SplineSet
68.5125 504 m 2x7c
 68.5125 663.708074726 155.351590909 731.0078125 349.4625 731.0078125 c 2
 655 731.0078125 l 1
 655 660.3265625 l 1
 471.6025 407.975 l 1
 572.30995814 407.975 704.4875 370.803381642 704.4875 205.4875 c 0
 704.4875 59.9389254386 616.595884147 -10 472 -10 c 0
 367.695080516 -10 308.5125 26 308.5125 26 c 1
 335 106.925 l 1
 335 106.925 383.941219139 74.0490234375 465.528125 74.0490234375 c 0xbc
 551.224350582 74.0490234375 606.23625 117.75193718 606.23625 205.4875 c 0
 606.23625 292.141984536 550.46375 330.9425 419 330.9425 c 2
 344.5125 330.9425 l 1
 344.5125 385.4875 l 1
 532.6125 643.8390625 l 1
 338.5125 643.8390625 l 2
 202.582660785 643.8390625 169.4125 591.980042899 169.4125 471.0078125 c 2
 169.4125 0 l 1
 68.5125 0 l 1
 68.5125 504 l 2x7c
EndSplineSet
EndChar

StartChar: germandbls
Encoding: 223 223 221
Width: 725
Flags: W
HStem: -9.99805 75.417<347.704 562.955> 0 21G<81.5087 174.516> 434.872 77.0618<419.659 566.582> 679.842 81.1688<250.094 489.336>
VStem: 81.5087 93.0075<0 604.547> 301.717 91.4701<318.219 408.582> 566.724 86.3819<506.659 603.01> 587.596 89.5814<90.2862 179.42>
LayerCount: 2
Fore
SplineSet
465.137486572 215.619564209 m 0xbd
 335.894128457 242.698404582 301.716601562 287.426165518 301.716601562 358.5125 c 0
 301.716601562 454.083356816 377.703636081 511.93359375 487 511.93359375 c 0
 537.536874178 511.93359375 566.72375 504.4875 566.72375 504.4875 c 1
 564.63060937 620.705080362 518.604547674 679.841992188 370 679.841992188 c 0
 210.45241693 679.841992188 174.51625 612.998699871 174.51625 481.060742188 c 2
 174.51625 0 l 1
 81.50875 0 l 1
 81.50875 494.060742188 l 2
 81.50875 657.08328226 152.515247456 761.010742188 361 761.010742188 c 0
 612.045546889 761.010742188 653.105664062 625.257922754 653.105664062 509.38 c 0x7e
 653.105664062 451.139017807 642.294921875 405.709335938 642.294921875 405.709335938 c 1
 642.294921875 405.709335938 590.551984704 434.871796875 514.284414062 434.871796875 c 0
 430.75281709 434.871796875 393.18671875 406.991277149 393.18671875 362.031054688 c 0
 393.18671875 324.053735539 417.788628695 304.837129914 503.060745849 286.81583496 c 0
 632.134168681 258.527604479 677.176953125 214.698766794 677.176953125 139.88984375 c 0
 677.176953125 47.5156501121 607.433622921 -9.998046875 476.856445312 -9.998046875 c 0
 365.253967979 -9.998046875 294.5125 26.5625 294.5125 26.5625 c 1
 314.314453125 101.298828125 l 1
 314.314453125 101.298828125 381.554998645 65.4189453125 463.993164062 65.4189453125 c 0
 547.729529845 65.4189453125 587.595507812 89.0288245266 587.595507812 134.824414062 c 0
 587.595507812 171.858348579 566.98454595 194.673814621 465.137486572 215.619564209 c 0xbd
EndSplineSet
EndChar

StartChar: uni2113
Encoding: 8467 8467 222
Width: 619
Flags: W
HStem: -10 92.1374<296.913 501.635> 674.406 86.5961<322.675 442.826>
VStem: 123.537 100.076<231.637 523.433> 471.636 97.9911<482.739 646.886>
LayerCount: 2
Fore
SplineSet
123.5375 303.074609375 m 0
 123.5375 604.580273085 214.169988221 761.001953125 384.830390625 761.001953125 c 0
 517.295543745 761.001953125 569.627148438 665.294770154 569.627148438 576.02953125 c 0
 569.627148438 224.952654281 29.35125 166.7025 29.35125 166.7025 c 1
 18.86375 255.8175 l 1
 18.86375 255.8175 471.636054688 302.761621567 471.636054688 571.324453125 c 0
 471.636054688 636.112370932 442.619872929 674.405820312 386.830390625 674.405820312 c 0
 271.807904046 674.405820312 223.613242188 529.858033905 223.613242188 318.85 c 0
 223.613242188 165.171031408 255.60744151 82.1373828122 392.45875 82.1373828122 c 0
 481.036647178 82.1373828122 539.470507812 123.134804688 539.470507812 123.134804688 c 1
 563 42 l 1
 563 42 504.256446843 -10 374.425390625 -10 c 0
 212.363870676 -10 123.5375 93.0876487429 123.5375 303.074609375 c 0
EndSplineSet
EndChar

StartChar: uni20B8
Encoding: 8376 8376 223
Width: 614
Flags: W
HStem: 0 21G<256.55 357.45> 443.906 88.1688<40 256.55 357.45 574> 443.906 58.1688<256.55 357.45> 642.831 88.1688<40 574>
VStem: 256.55 100.9<0 502.075>
LayerCount: 2
Fore
SplineSet
574 642.83125 m 1x98
 40 642.83125 l 1
 40 731 l 1
 574 731 l 1
 574 642.83125 l 1x98
574 443.90625 m 1xd8
 40 443.90625 l 1
 40 532.075 l 1
 574 532.075 l 1
 574 443.90625 l 1xd8
256.55 0 m 1
 256.55 502.075 l 1
 357.45 502.075 l 1xb8
 357.45 0 l 1
 256.55 0 l 1
EndSplineSet
EndChar

StartChar: uni20BC
Encoding: 8380 8380 224
Width: 839
Flags: W
HStem: 0 21G<68.5125 169.413 369.05 469.95 666.365 767.265> 461.024 89.9819<281.04 554.737> 711.008 20G<369.05 469.95>
VStem: 68.5125 100.9<0 348.76> 369.05 100.9<0 731.008> 666.365 100.9<0 348.76>
LayerCount: 2
Fore
SplineSet
417.888671875 551.005859375 m 0
 678.806182677 551.005859375 767.26484375 426.572421674 767.26484375 235.908789062 c 2
 767.26484375 0 l 1
 666.36484375 0 l 1
 666.36484375 205.908789062 l 2
 666.36484375 358.889047138 632.106079641 461.023945312 417.888671875 461.023945312 c 0
 203.671264109 461.023945312 169.4125 358.889047138 169.4125 205.908789062 c 2
 169.4125 0 l 1
 68.5125 0 l 1
 68.5125 235.908789062 l 2
 68.5125 426.572421674 156.971161073 551.005859375 417.888671875 551.005859375 c 0
369.05 0 m 1
 369.05 731.0078125 l 1
 469.95 731.0078125 l 1
 469.95 0 l 1
 369.05 0 l 1
EndSplineSet
EndChar

StartChar: Ohorn
Encoding: 416 416 225
Width: 813
Flags: W
HStem: -9.99805 93.2257<287.01 510.768> 645.895 93.2257<287.01 510.768>
VStem: 48.5125 101.749<233.695 495.428> 614.692 90.5623<673.589 814.018> 647.516 101.749<233.695 495.428>
LayerCount: 2
Fore
SplineSet
585.063232422 825.799804688 m 1xf0
 683.426757812 825.799804688 l 1
 683.426757812 825.799804688 705.254394531 795.200195312 705.254394531 738.9921875 c 0
 705.254394531 649.9626923 626.264404297 600.36694336 626.264404297 600.36694336 c 1
 566.874267578 641.360351562 l 1
 566.874267578 641.360351562 614.692138672 688 614.692138672 733.729492188 c 0
 614.692138672 790.55078125 585.063232422 825.799804688 585.063232422 825.799804688 c 1xf0
EndSplineSet
Refer: 1 79 N 1 0 0 1 0 0 2
EndChar

StartChar: ohorn
Encoding: 417 417 226
Width: 599
Flags: W
HStem: -9.99805 81.0357<213.074 378.593> 429.71 81.2232<208.455 380.283>
VStem: 48.5125 90.6124<149.448 354.625> 439.646 86.7485<463.589 604.018> 450.652 90.6124<149.448 354.625>
LayerCount: 2
Fore
SplineSet
410.017333985 615.799804688 m 1xf0
 504.56640625 615.799804688 l 1
 504.56640625 615.799804688 526.39477539 585.200195312 526.39477539 528.9921875 c 0
 526.39477539 439.9626923 447.404052735 390.366943359 447.404052735 390.366943359 c 1
 391.829101562 431.360351562 l 1
 391.829101562 431.360351562 439.646240234 478 439.646240234 523.729492188 c 0
 439.646240234 580.55078125 410.017333985 615.799804688 410.017333985 615.799804688 c 1xf0
EndSplineSet
Refer: 29 111 N 1 0 0 1 0 0 2
EndChar

StartChar: Uhorn
Encoding: 431 431 227
Width: 777
Flags: W
HStem: -9.99805 93.5769<251.594 464.184> 671.537 59.4703<614.487 633.829> 711.008 20G<68.5125 169.413 546.365 647.265>
VStem: 68.5125 100.9<168.323 731.008> 546.365 100.9<168.323 731.008> 638.075 95.4125<737.873 815.632>
LayerCount: 2
Fore
SplineSet
604.155078125 825.799804688 m 1xb4
 704.247265625 825.799804688 l 1
 704.247265625 825.799804688 733.4875 801.227941108 733.4875 755.5125 c 0
 733.4875 700.144368132 685.4875 671.5375 614.4875 671.5375 c 1xd4
 565.075 731.0078125 l 1
 599.075 731.0078125 638.075 732.480474404 638.075 770 c 0
 638.075 804 604.155078125 825.799804688 604.155078125 825.799804688 c 1xb4
EndSplineSet
Refer: 6 85 N 1 0 0 1 0 0 2
EndChar

StartChar: uhorn
Encoding: 432 432 228
Width: 660
Flags: W
HStem: -9.92285 78.0869<212.338 368.428> 0 21G<434.567 527.575> 481.011 20G<71.715 164.722 434.567 527.575>
VStem: 71.715 93.0075<119.52 501.011> 434.567 93.0075<207.449 501.011> 521.075 95.4125<509.058 596.577>
LayerCount: 2
Fore
SplineSet
478.834765625 615.799804688 m 1x34
 578.926953125 615.799804688 l 1
 578.926953125 615.799804688 616.4875 585.985088684 616.4875 530.515429688 c 0
 616.4875 471.850594522 571.321113445 441.540429688 504.5125 441.540429688 c 1
 448.075 501.010742188 l 1
 482.075 501.010742188 521.075 502.672238349 521.075 545.002929688 c 0
 521.075 588.140961504 478.834765625 615.799804688 478.834765625 615.799804688 c 1x34
EndSplineSet
Refer: 50 117 N 1 0 0 1 0 0 2
EndChar

StartChar: integral
Encoding: 8747 8747 229
Width: 448
Flags: W
HStem: -190.011 84.6813<-37.9035 88.9193> 680.817 80.1937<306.677 437.385>
LayerCount: 2
Fore
SplineSet
127.29375 31.9892578125 m 2
 177.29375 570.010742188 l 2
 187.267000998 684.899403654 227.628624776 761.010742188 349.025 761.010742188 c 0
 407.820846229 761.010742188 448.4875 745.010742188 448.4875 745.010742188 c 1
 434.4875 669.816992188 l 1
 434.4875 669.816992188 408.447481994 680.816992188 372 680.816992188 c 0
 301.388308139 680.816992188 279.8458908 644.271189068 271.70625 557.010742188 c 2
 221.70625 20.9892578125 l 2
 210.657035714 -105.820802163 171.371228448 -190.010742188 49.975 -190.010742188 c 0
 -8.82085534072 -190.010742188 -49.4875 -174.010742188 -49.4875 -174.010742188 c 1
 -35.4875 -94.3294921877 l 1
 -35.4875 -94.3294921877 -9.44771669828 -105.329492188 27 -105.329492188 c 0
 97.6120889281 -105.329492188 118.311547548 -64.6631001131 127.29375 31.9892578125 c 2
EndSplineSet
EndChar

StartChar: dotlessi
Encoding: 305 305 231
Width: 269
Flags: W
HStem: 0 21G<87.9963 181.004> 481.011 20G<87.9963 181.004>
VStem: 87.9963 93.0075<0 501.011>
LayerCount: 2
Fore
SplineSet
87.99625 0 m 1
 87.99625 501.010742188 l 1
 181.00375 501.010742188 l 1
 181.00375 0 l 1
 87.99625 0 l 1
EndSplineSet
EndChar

